<?xml version="1.0" encoding="UTF-8"?>
<!DOCTYPE svg PUBLIC "-//W3C//DTD SVG 1.1//EN" "http://www.w3.org/Graphics/SVG/1.1/DTD/svg11.dtd">
<svg xmlns="http://www.w3.org/2000/svg" version="1.1" width="64px" height="64px" style="shape-rendering:geometricPrecision; text-rendering:geometricPrecision; image-rendering:optimizeQuality; fill-rule:evenodd; clip-rule:evenodd" xmlns:xlink="http://www.w3.org/1999/xlink">
<g><path style="opacity:0.767" fill="#000000" d="M 23.5,-0.5 C 28.8333,-0.5 34.1667,-0.5 39.5,-0.5C 51.8333,3.16667 59.8333,11.1667 63.5,23.5C 63.5,28.8333 63.5,34.1667 63.5,39.5C 59.8333,51.8333 51.8333,59.8333 39.5,63.5C 34.1667,63.5 28.8333,63.5 23.5,63.5C 11.1667,59.8333 3.16667,51.8333 -0.5,39.5C -0.5,34.1667 -0.5,28.8333 -0.5,23.5C 3.16667,11.1667 11.1667,3.16667 23.5,-0.5 Z M 28.5,3.5 C 46.5384,4.34602 56.8717,13.6794 59.5,31.5C 57.5,48.1667 48.1667,57.5 31.5,59.5C 14.8333,57.5 5.5,48.1667 3.5,31.5C 5.42242,16.2557 13.7558,6.92236 28.5,3.5 Z M 43.5,21.5 C 45.0847,22.0024 45.5847,23.0024 45,24.5C 39.3188,30.3482 33.4854,36.0149 27.5,41.5C 23.8333,38.5 20.5,35.1667 17.5,31.5C 17.8076,30.6919 18.3076,30.0253 19,29.5C 21.1667,31.6667 23.3333,33.8333 25.5,36C 26.8333,36.6667 28.1667,36.6667 29.5,36C 34.3699,31.2979 39.0366,26.4646 43.5,21.5 Z"/></g>
<g><path style="opacity:0.762" fill="#000000" d="M 42.5,15.5 C 45.9594,16.436 48.7928,18.436 51,21.5C 51.6667,22.8333 51.6667,24.1667 51,25.5C 43.8333,32.6667 36.6667,39.8333 29.5,47C 28.1667,47.6667 26.8333,47.6667 25.5,47C 21,42.5 16.5,38 12,33.5C 12.2213,28.9069 14.5546,25.5736 19,23.5C 21.9676,25.6309 24.801,27.9642 27.5,30.5C 32.8544,25.8123 37.8544,20.8123 42.5,15.5 Z M 43.5,21.5 C 39.0366,26.4646 34.3699,31.2979 29.5,36C 28.1667,36.6667 26.8333,36.6667 25.5,36C 23.3333,33.8333 21.1667,31.6667 19,29.5C 18.3076,30.0253 17.8076,30.6919 17.5,31.5C 20.5,35.1667 23.8333,38.5 27.5,41.5C 33.4854,36.0149 39.3188,30.3482 45,24.5C 45.5847,23.0024 45.0847,22.0024 43.5,21.5 Z"/></g>
</svg>
