<?xml version="1.0" encoding="UTF-8"?>
<!DOCTYPE svg PUBLIC "-//W3C//DTD SVG 1.1//EN" "http://www.w3.org/Graphics/SVG/1.1/DTD/svg11.dtd">
<svg xmlns="http://www.w3.org/2000/svg" version="1.1" width="72px" height="72px" style="shape-rendering:geometricPrecision; text-rendering:geometricPrecision; image-rendering:optimizeQuality; fill-rule:evenodd; clip-rule:evenodd" xmlns:xlink="http://www.w3.org/1999/xlink">
<g><path style="opacity:0.998" fill="#444444" d="M 8.5,-0.5 C 23.5,-0.5 38.5,-0.5 53.5,-0.5C 56.4625,2.96414 59.6291,6.29747 63,9.5C 63.4998,18.1603 63.6664,26.8269 63.5,35.5C 62.5,35.5 61.5,35.5 60.5,35.5C 60.5,27.5 60.5,19.5 60.5,11.5C 57.5,11.5 54.5,11.5 51.5,11.5C 51.5,8.5 51.5,5.5 51.5,2.5C 38.1667,2.5 24.8333,2.5 11.5,2.5C 10.5036,18.3246 10.1703,34.3246 10.5,50.5C 13.3854,50.8064 16.0521,50.4731 18.5,49.5C 19.1667,48.1667 20.1667,47.1667 21.5,46.5C 22.4682,44.3926 22.8016,42.0593 22.5,39.5C 24.1667,39.5 25.8333,39.5 27.5,39.5C 28.3242,42.7644 28.6576,46.0977 28.5,49.5C 31.9619,50.4816 35.6286,50.815 39.5,50.5C 39.5,56.8333 39.5,63.1667 39.5,69.5C 36.6862,70.1647 33.6862,70.498 30.5,70.5C 20.6141,68.8913 10.6141,68.2246 0.5,68.5C 0.5,67.5 0.5,66.5 0.5,65.5C 4.83333,65.5 9.16667,65.5 13.5,65.5C 13.5,61.1667 13.5,56.8333 13.5,52.5C 9.16667,52.5 4.83333,52.5 0.5,52.5C 0.5,51.5 0.5,50.5 0.5,49.5C 3.1873,49.6641 5.85397,49.4974 8.5,49C 7.17361,32.5 7.17361,16 8.5,-0.5 Z M 55.5,6.5 C 55.5,7.16667 55.8333,7.5 56.5,7.5C 56.44,8.04309 56.1067,8.37642 55.5,8.5C 54.2267,7.7435 54.2267,7.07683 55.5,6.5 Z M 24.5,41.5 C 25.4816,44.9619 25.815,48.6286 25.5,52.5C 29.5138,52.3345 33.5138,52.5012 37.5,53C 34.5184,53.498 31.5184,53.6646 28.5,53.5C 28.5,54.8333 28.5,56.1667 28.5,57.5C 40.5,57.8333 40.5,58.1667 28.5,58.5C 28.5,59.5 28.5,60.5 28.5,61.5C 40.5,61.8333 40.5,62.1667 28.5,62.5C 28.5,63.8333 28.5,65.1667 28.5,66.5C 31.5184,66.3354 34.5184,66.502 37.5,67C 30.677,67.9344 24.0104,67.4344 17.5,65.5C 17.797,61.2325 17.4637,57.0659 16.5,53C 22.8822,51.7804 25.5489,47.9471 24.5,41.5 Z"/></g>
<g><path style="opacity:0.208" fill="#c8c8c8" d="M 11.5,3.5 C 11.5,3.16667 11.5,2.83333 11.5,2.5C 24.8333,2.5 38.1667,2.5 51.5,2.5C 51.5,5.5 51.5,8.5 51.5,11.5C 50.5269,9.0521 50.1936,6.38544 50.5,3.5C 37.5,3.5 24.5,3.5 11.5,3.5 Z"/></g>
<g><path style="opacity:0.297" fill="#a3a3a3" d="M 11.5,2.5 C 11.5,2.83333 11.5,3.16667 11.5,3.5C 11.5,18.8333 11.5,34.1667 11.5,49.5C 13.8333,49.5 16.1667,49.5 18.5,49.5C 16.0521,50.4731 13.3854,50.8064 10.5,50.5C 10.1703,34.3246 10.5036,18.3246 11.5,2.5 Z"/></g>
<g><path style="opacity:0.69" fill="#424242" d="M 12.5,4.5 C 24.8333,4.5 37.1667,4.5 49.5,4.5C 49.5,5.5 49.5,6.5 49.5,7.5C 37.1667,7.5 24.8333,7.5 12.5,7.5C 12.5,6.5 12.5,5.5 12.5,4.5 Z"/></g>
<g><path style="opacity:0.059" fill="#d8d8d8" d="M 55.5,6.5 C 54.2267,7.07683 54.2267,7.7435 55.5,8.5C 56.1067,8.37642 56.44,8.04309 56.5,7.5C 57.2891,7.78281 57.9558,8.28281 58.5,9C 56.8659,9.49351 55.1992,9.66018 53.5,9.5C 53.3398,7.80081 53.5065,6.13414 54,4.5C 54.7172,5.0442 55.2172,5.71087 55.5,6.5 Z"/></g>
<g><path style="opacity:0.212" fill="#cbcbcb" d="M 12.5,8.5 C 24.8333,8.5 37.1667,8.5 49.5,8.5C 49.5,9.83333 49.5,11.1667 49.5,12.5C 37.1667,12.5 24.8333,12.5 12.5,12.5C 12.5,11.1667 12.5,9.83333 12.5,8.5 Z"/></g>
<g><path style="opacity:0.986" fill="#020202" d="M 13.5,9.5 C 25.1857,9.16775 36.8523,9.50109 48.5,10.5C 42.6667,10.8333 36.8333,11.1667 31,11.5C 24.793,11.4958 18.9597,10.8291 13.5,9.5 Z"/></g>
<g><path style="opacity:0.267" fill="#bababa" d="M 51.5,11.5 C 54.5,11.5 57.5,11.5 60.5,11.5C 60.5,19.5 60.5,27.5 60.5,35.5C 59.508,28.0182 59.1746,20.3516 59.5,12.5C 56.6146,12.8064 53.9479,12.4731 51.5,11.5 Z"/></g>
<g><path style="opacity:0.682" fill="#464646" d="M 12.5,13.5 C 24.8333,13.5 37.1667,13.5 49.5,13.5C 49.5,14.5 49.5,15.5 49.5,16.5C 37.1667,16.5 24.8333,16.5 12.5,16.5C 12.5,15.5 12.5,14.5 12.5,13.5 Z"/></g>
<g><path style="opacity:0.998" fill="#4d4d4d" d="M 50.5,39.5 C 38.7195,47.0371 30.7195,44.2038 26.5,31C 29.2238,19.1383 36.2238,15.4716 47.5,20C 53.7314,25.7448 54.7314,32.2448 50.5,39.5 Z M 46.5,24.5 C 50.3041,28.512 50.4707,32.8454 47,37.5C 42.6304,41.2408 38.1304,41.4075 33.5,38C 27.9619,27.0724 31.2952,21.7391 43.5,22C 44.9423,22.3768 45.9423,23.2101 46.5,24.5 Z"/></g>
<g><path style="opacity:0.008" fill="#cdcdcd" d="M 46.5,24.5 C 46.6716,25.4916 46.3382,26.1583 45.5,26.5C 44.6522,25.375 43.6522,25.375 42.5,26.5C 43.1834,24.8235 44.5168,24.1568 46.5,24.5 Z"/></g>
<g><path style="opacity:0.997" fill="#4e4e4e" d="M 45.5,26.5 C 44.4666,30.8981 42.6332,34.8981 40,38.5C 37.9824,36.6499 36.1491,34.6499 34.5,32.5C 36.4148,29.8492 37.9148,30.1825 39,33.5C 40.2126,31.0748 41.3793,28.7415 42.5,26.5C 43.6522,25.375 44.6522,25.375 45.5,26.5 Z"/></g>
<g><path style="opacity:1" fill="#5f5f5f" d="M 61.5,38.5 C 60.7611,38.369 60.0944,38.5357 59.5,39C 60.8009,40.6155 60.8009,42.1155 59.5,43.5C 59.6499,39.8388 58.1499,38.8388 55,40.5C 54.51,41.7932 54.3433,43.1266 54.5,44.5C 53.5413,40.6385 52.5413,40.6385 51.5,44.5C 50.5489,43.0813 50.2155,41.4147 50.5,39.5C 52.2622,37.5833 54.4288,36.25 57,35.5C 58.9812,35.8985 60.4812,36.8985 61.5,38.5 Z"/></g>
<g><path style="opacity:0.478" fill="#7c7c7c" d="M 27.5,39.5 C 25.8333,39.5 24.1667,39.5 22.5,39.5C 22.8016,42.0593 22.4682,44.3926 21.5,46.5C 21.5,43.8333 21.5,41.1667 21.5,38.5C 23.7354,38.2053 25.7354,38.5386 27.5,39.5 Z"/></g>
<g><path style="opacity:0.283" fill="#b8b8b8" d="M 27.5,39.5 C 28.1174,39.6107 28.6174,39.944 29,40.5C 29.498,43.4816 29.6646,46.4816 29.5,49.5C 29.1667,49.5 28.8333,49.5 28.5,49.5C 28.6576,46.0977 28.3242,42.7644 27.5,39.5 Z"/></g>
<g><path style="opacity:0.523" fill="#7c7c7c" d="M 28.5,49.5 C 28.8333,49.5 29.1667,49.5 29.5,49.5C 33.1667,49.5 36.8333,49.5 40.5,49.5C 40.824,56.3543 40.4907,63.021 39.5,69.5C 39.5,63.1667 39.5,56.8333 39.5,50.5C 35.6286,50.815 31.9619,50.4816 28.5,49.5 Z"/></g>
<g><path style="opacity:0.741" fill="#7e7e7e" d="M 61.5,46.5 C 61.3259,48.861 60.9926,51.1944 60.5,53.5C 61.791,53.2627 62.791,53.596 63.5,54.5C 62.1667,54.5 60.8333,54.5 59.5,54.5C 59.2938,51.5049 59.9605,48.8383 61.5,46.5 Z"/></g>
<g><path style="opacity:0.114" fill="#dbdbdb" d="M 52.5,47.5 C 53.4682,49.6074 53.8016,51.9407 53.5,54.5C 52.1667,54.5 50.8333,54.5 49.5,54.5C 50.8333,54.5 52.1667,54.5 53.5,54.5C 53.8016,51.9407 53.4682,49.6074 52.5,47.5 Z"/></g>
<g><path style="opacity:0.576" fill="#8d8d8d" d="M 64.5,54.5 C 66.1042,55.287 66.7709,56.6203 66.5,58.5C 67.791,58.2627 68.791,58.596 69.5,59.5C 68.1667,59.5 66.8333,59.5 65.5,59.5C 65.3713,57.7839 65.038,56.1172 64.5,54.5 Z"/></g>
<g><path style="opacity:0.995" fill="#2a2a2a" d="M 61.5,38.5 C 64.1667,41.1667 64.1667,43.8333 61.5,46.5C 59.9605,48.8383 59.2938,51.5049 59.5,54.5C 60.8333,54.5 62.1667,54.5 63.5,54.5C 63.8333,54.5 64.1667,54.5 64.5,54.5C 65.038,56.1172 65.3713,57.7839 65.5,59.5C 66.8333,59.5 68.1667,59.5 69.5,59.5C 70.1667,60.1667 70.8333,60.8333 71.5,61.5C 71.5,62.8333 71.5,64.1667 71.5,65.5C 71.1667,65.5 70.8333,65.5 70.5,65.5C 69.5,65.5 68.5,65.5 67.5,65.5C 67.5,66.8333 67.5,68.1667 67.5,69.5C 60.1667,69.5 52.8333,69.5 45.5,69.5C 44.2264,68.8106 44.2264,67.9772 45.5,67C 41.9345,64.8225 41.6012,62.1558 44.5,59C 45.448,58.5172 46.448,58.3505 47.5,58.5C 47.2291,56.6203 47.8958,55.287 49.5,54.5C 50.8333,54.5 52.1667,54.5 53.5,54.5C 53.8016,51.9407 53.4682,49.6074 52.5,47.5C 51.8902,46.609 51.5569,45.609 51.5,44.5C 52.5413,40.6385 53.5413,40.6385 54.5,44.5C 55.4345,45.5676 55.7678,46.901 55.5,48.5C 55.5,50.5 55.5,52.5 55.5,54.5C 56.5,54.5 57.5,54.5 58.5,54.5C 58.5,52.1667 58.5,49.8333 58.5,47.5C 58.4326,46.0413 58.7659,44.7079 59.5,43.5C 60.8009,42.1155 60.8009,40.6155 59.5,39C 60.0944,38.5357 60.7611,38.369 61.5,38.5 Z"/></g>
<g><path style="opacity:0.263" fill="#b5b5b5" d="M 58.5,47.5 C 58.5,49.8333 58.5,52.1667 58.5,54.5C 57.5,54.5 56.5,54.5 55.5,54.5C 55.5,52.5 55.5,50.5 55.5,48.5C 56.3019,49.9516 56.8019,51.6183 57,53.5C 57.1909,51.2922 57.6909,49.2922 58.5,47.5 Z"/></g>
<g><path style="opacity:0.133" fill="#d0d0d0" d="M 46.5,61.5 C 53.5,62.8333 60.5,62.8333 67.5,61.5C 68.0431,61.56 68.3764,61.8933 68.5,62.5C 60.8333,63.8333 53.1667,63.8333 45.5,62.5C 45.6236,61.8933 45.9569,61.56 46.5,61.5 Z"/></g>
<g><path style="opacity:0.588" fill="#878787" d="M 65.5,66.5 C 42.8333,66.8333 42.8333,67.1667 65.5,67.5C 59.69,68.4896 53.69,68.8229 47.5,68.5C 47.5,67.5 47.5,66.5 47.5,65.5C 53.69,65.1771 59.69,65.5104 65.5,66.5 Z"/></g>
<g><path style="opacity:0.654" fill="#646464" d="M 70.5,65.5 C 69.032,66.7791 68.3653,68.4458 68.5,70.5C 60.6484,70.8254 52.9818,70.492 45.5,69.5C 52.8333,69.5 60.1667,69.5 67.5,69.5C 67.5,68.1667 67.5,66.8333 67.5,65.5C 68.5,65.5 69.5,65.5 70.5,65.5 Z"/></g>
</svg>
