<?xml version="1.0" encoding="UTF-8"?>
<!DOCTYPE svg PUBLIC "-//W3C//DTD SVG 1.1//EN" "http://www.w3.org/Graphics/SVG/1.1/DTD/svg11.dtd">
<svg xmlns="http://www.w3.org/2000/svg" version="1.1" width="72px" height="72px" style="shape-rendering:geometricPrecision; text-rendering:geometricPrecision; image-rendering:optimizeQuality; fill-rule:evenodd; clip-rule:evenodd" xmlns:xlink="http://www.w3.org/1999/xlink">
<g><path style="opacity:0.998" fill="#2e2e2e" d="M 15.5,-0.5 C 17.5,-0.5 19.5,-0.5 21.5,-0.5C 21.427,1.02694 22.0937,2.02694 23.5,2.5C 26.2575,3.81818 29.4242,4.48484 33,4.5C 36.3518,4.49822 39.5185,4.16489 42.5,3.5C 42.8333,2.16667 43.1667,0.833333 43.5,-0.5C 45.8333,-0.5 48.1667,-0.5 50.5,-0.5C 50.8333,0.166667 51.1667,0.833333 51.5,1.5C 51.5,2.5 51.5,3.5 51.5,4.5C 54.5,4.5 57.5,4.5 60.5,4.5C 62.371,4.85883 63.871,5.85883 65,7.5C 65.4998,18.495 65.6665,29.495 65.5,40.5C 64.8902,41.391 64.5569,42.391 64.5,43.5C 64.1667,43.5 63.8333,43.5 63.5,43.5C 63.5,42.8333 63.1667,42.5 62.5,42.5C 62.5,41.8333 62.1667,41.5 61.5,41.5C 61.5,40.8333 61.1667,40.5 60.5,40.5C 60.1583,39.6618 59.4916,39.3284 58.5,39.5C 58.5,38.8333 58.1667,38.5 57.5,38.5C 57.1583,37.6618 56.4916,37.3284 55.5,37.5C 52.5,37.5 49.5,37.5 46.5,37.5C 46.1667,37.5 45.8333,37.5 45.5,37.5C 45.1667,36.8333 44.8333,36.1667 44.5,35.5C 49.9799,32.8037 55.3132,33.137 60.5,36.5C 60.56,37.0431 60.8933,37.3764 61.5,37.5C 62.8157,31.6796 62.8157,26.0129 61.5,20.5C 42.5,20.5 23.5,20.5 4.5,20.5C 3.83404,23.3583 3.16738,26.3583 2.5,29.5C 1.503,22.5316 1.16967,15.5316 1.5,8.5C 1.83333,6.16667 3.16667,4.83333 5.5,4.5C 8.5,4.5 11.5,4.5 14.5,4.5C 14.5,3.5 14.5,2.5 14.5,1.5C 14.8333,0.833333 15.1667,0.166667 15.5,-0.5 Z M 17.5,2.5 C 18.5,2.5 19.5,2.5 20.5,2.5C 20.9051,6.04786 20.4051,9.38119 19,12.5C 17.5949,9.38119 17.0949,6.04786 17.5,2.5 Z M 48.5,2.5 C 50.0371,6.0633 49.7037,9.39664 47.5,12.5C 46.8826,12.3893 46.3826,12.056 46,11.5C 45.3333,8.83333 45.3333,6.16667 46,3.5C 46.6708,2.74756 47.5041,2.41423 48.5,2.5 Z M 5.5,7.5 C 8.16667,7.5 10.8333,7.5 13.5,7.5C 13.2155,9.41467 13.5489,11.0813 14.5,12.5C 15.9728,15.2474 18.3061,16.0807 21.5,15C 22.8228,14.1841 23.4894,13.0174 23.5,11.5C 24.4345,10.4324 24.7678,9.09903 24.5,7.5C 30.5,7.5 36.5,7.5 42.5,7.5C 41.3327,13.4964 43.6661,15.9964 49.5,15C 50.756,14.5831 51.4226,13.7498 51.5,12.5C 52.4511,11.0813 52.7845,9.41467 52.5,7.5C 55.1667,7.5 57.8333,7.5 60.5,7.5C 60.5,8.16667 60.8333,8.5 61.5,8.5C 61.5,11.5 61.5,14.5 61.5,17.5C 42.5,17.5 23.5,17.5 4.5,17.5C 4.5,14.5 4.5,11.5 4.5,8.5C 5.16667,8.5 5.5,8.16667 5.5,7.5 Z"/></g>
<g><path style="opacity:0.525" fill="#8d8d8d" d="M 21.5,-0.5 C 21.8333,-0.5 22.1667,-0.5 22.5,-0.5C 23.1098,0.391047 23.4431,1.39105 23.5,2.5C 22.0937,2.02694 21.427,1.02694 21.5,-0.5 Z"/></g>
<g><path style="opacity:0.114" fill="#dcdcdc" d="M 14.5,1.5 C 14.5,2.5 14.5,3.5 14.5,4.5C 11.5,4.5 8.5,4.5 5.5,4.5C 8.6343,3.9649 11.6343,2.9649 14.5,1.5 Z"/></g>
<g><path style="opacity:0.113" fill="#e3e3e3" d="M 23.5,2.5 C 29.7436,3.45783 36.077,3.79116 42.5,3.5C 39.5185,4.16489 36.3518,4.49822 33,4.5C 29.4242,4.48484 26.2575,3.81818 23.5,2.5 Z"/></g>
<g><path style="opacity:0.747" fill="#505050" d="M 48.5,2.5 C 49.7647,3.51448 50.4313,5.01448 50.5,7C 50.3333,8.5 50.1667,10 50,11.5C 49.3292,12.2524 48.4959,12.5858 47.5,12.5C 49.7037,9.39664 50.0371,6.0633 48.5,2.5 Z"/></g>
<g><path style="opacity:0.114" fill="#d3d3d3" d="M 51.5,1.5 C 54.3657,2.9649 57.3657,3.9649 60.5,4.5C 57.5,4.5 54.5,4.5 51.5,4.5C 51.5,3.5 51.5,2.5 51.5,1.5 Z"/></g>
<g><path style="opacity:0.295" fill="#a5a5a5" d="M 5.5,7.5 C 8.2869,6.52333 11.2869,6.19 14.5,6.5C 14.5,8.5 14.5,10.5 14.5,12.5C 13.5489,11.0813 13.2155,9.41467 13.5,7.5C 10.8333,7.5 8.16667,7.5 5.5,7.5 Z"/></g>
<g><path style="opacity:0.294" fill="#b9b9b9" d="M 42.5,7.5 C 36.5,7.5 30.5,7.5 24.5,7.5C 24.7678,9.09903 24.4345,10.4324 23.5,11.5C 23.5,9.83333 23.5,8.16667 23.5,6.5C 30.0221,6.1765 36.3554,6.50984 42.5,7.5 Z"/></g>
<g><path style="opacity:0.294" fill="#999999" d="M 60.5,7.5 C 57.8333,7.5 55.1667,7.5 52.5,7.5C 52.7845,9.41467 52.4511,11.0813 51.5,12.5C 51.5,10.5 51.5,8.5 51.5,6.5C 54.7131,6.19 57.7131,6.52333 60.5,7.5 Z"/></g>
<g><path style="opacity:0.275" fill="#bcbcbc" d="M 1.5,8.5 C 1.16967,15.5316 1.503,22.5316 2.5,29.5C 3.16738,26.3583 3.83404,23.3583 4.5,20.5C 4.75599,24.2693 4.42266,27.9359 3.5,31.5C 2.83333,31.5 2.16667,31.5 1.5,31.5C 0.188019,23.7347 0.188019,16.0681 1.5,8.5 Z"/></g>
<g><path style="opacity:0.675" fill="#707070" d="M 4.5,8.5 C 4.5,11.5 4.5,14.5 4.5,17.5C 23.5,17.5 42.5,17.5 61.5,17.5C 61.5,14.5 61.5,11.5 61.5,8.5C 62.4794,11.6248 62.8128,14.9581 62.5,18.5C 42.8333,18.5 23.1667,18.5 3.5,18.5C 3.18723,14.9581 3.52056,11.6248 4.5,8.5 Z"/></g>
<g><path style="opacity:0.024" fill="#f2f2f2" d="M 61.5,20.5 C 62.8157,26.0129 62.8157,31.6796 61.5,37.5C 60.8933,37.3764 60.56,37.0431 60.5,36.5C 61.4881,31.3595 61.8214,26.0262 61.5,20.5 Z"/></g>
<g><path style="opacity:1" fill="#5b5b5b" d="M 13.5,24.5 C 15.2517,24.4176 16.2517,25.2509 16.5,27C 13.6399,35.1496 10.9732,35.3163 8.5,27.5C 11.285,28.0838 12.9517,27.0838 13.5,24.5 Z"/></g>
<g><path style="opacity:1" fill="#585858" d="M 25.5,32.5 C 24.8592,31.5178 24.1925,30.5178 23.5,29.5C 23.6236,28.8933 23.9569,28.56 24.5,28.5C 25.8267,27.1999 27.16,25.8665 28.5,24.5C 29.5,24.8333 30.1667,25.5 30.5,26.5C 29.4986,29.1732 27.9986,31.5065 26,33.5C 25.6012,33.2716 25.4346,32.9382 25.5,32.5 Z"/></g>
<g><path style="opacity:0.902" fill="#9a9a9a" d="M 41.5,25.5 C 42.7434,24.2625 43.7434,24.5959 44.5,26.5C 44.0576,27.7387 43.3909,28.7387 42.5,29.5C 42.7678,27.901 42.4345,26.5676 41.5,25.5 Z"/></g>
<g><path style="opacity:1" fill="#5a5a5a" d="M 55.5,24.5 C 58.8384,25.1935 59.3384,26.8601 57,29.5C 55.809,31.8469 53.9757,32.6802 51.5,32C 49.9926,31.1627 49.4926,29.9961 50,28.5C 51,27.1667 52,27.1667 53,28.5C 54.0946,27.3066 54.928,25.9733 55.5,24.5 Z"/></g>
<g><path style="opacity:0.847" fill="#8c8c8c" d="M 24.5,28.5 C 23.9569,28.56 23.6236,28.8933 23.5,29.5C 24.1925,30.5178 24.8592,31.5178 25.5,32.5C 23.4362,32.2381 22.1029,31.0714 21.5,29C 22.5029,27.4542 23.5029,27.2875 24.5,28.5 Z"/></g>
<g><path style="opacity:1" fill="#313131" d="M 41.5,25.5 C 42.4345,26.5676 42.7678,27.901 42.5,29.5C 42.5,30.1667 42.1667,30.5 41.5,30.5C 39.9008,31.562 38.2341,31.562 36.5,30.5C 35.475,30.1034 35.3083,29.4368 36,28.5C 37,27.1667 38,27.1667 39,28.5C 39.8518,27.4293 40.6851,26.4293 41.5,25.5 Z"/></g>
<g><path style="opacity:0.985" fill="#555555" d="M 1.5,31.5 C 2.16667,31.5 2.83333,31.5 3.5,31.5C 4.78154,34.7307 4.78154,38.0641 3.5,41.5C 2.83333,41.5 2.16667,41.5 1.5,41.5C 0.218461,38.0641 0.218461,34.7307 1.5,31.5 Z"/></g>
<g><path style="opacity:0.682" fill="#898989" d="M 36.5,30.5 C 38.2341,31.562 39.9008,31.562 41.5,30.5C 40.1217,34.3521 38.4551,34.3521 36.5,30.5 Z"/></g>
<g><path style="opacity:0.998" fill="#4c4c4c" d="M 44.5,35.5 C 44.8333,36.1667 45.1667,36.8333 45.5,37.5C 44.8333,37.5 44.5,37.8333 44.5,38.5C 43.5084,38.3284 42.8417,38.6618 42.5,39.5C 42.5,39.8333 42.5,40.1667 42.5,40.5C 41.8333,40.5 41.5,40.8333 41.5,41.5C 39.5,41.5 38.5,42.5 38.5,44.5C 36.8958,45.287 36.2291,46.6203 36.5,48.5C 35.5206,51.6248 35.1872,54.9581 35.5,58.5C 34.5,58.8333 33.8333,59.5 33.5,60.5C 30.268,52.6396 31.6013,45.4729 37.5,39C 39.5766,37.295 41.91,36.1283 44.5,35.5 Z"/></g>
<g><path style="opacity:0.102" fill="#cfcfcf" d="M 44.5,38.5 C 44.5,37.8333 44.8333,37.5 45.5,37.5C 45.8333,37.5 46.1667,37.5 46.5,37.5C 46.5,38.1667 46.8333,38.5 47.5,38.5C 47.1583,39.3382 46.4916,39.6716 45.5,39.5C 45.5,38.8333 45.1667,38.5 44.5,38.5 Z"/></g>
<g><path style="opacity:0.029" fill="#cdcdcd" d="M 42.5,39.5 C 42.8417,38.6618 43.5084,38.3284 44.5,38.5C 45.1667,38.5 45.5,38.8333 45.5,39.5C 45.5,40.1667 45.1667,40.5 44.5,40.5C 44.1667,40.5 43.8333,40.5 43.5,40.5C 43.5,39.8333 43.1667,39.5 42.5,39.5 Z"/></g>
<g><path style="opacity:0.933" fill="#323232" d="M 47.5,38.5 C 49.8333,38.5 52.1667,38.5 54.5,38.5C 54.8417,39.3382 55.5084,39.6716 56.5,39.5C 55.791,40.404 54.791,40.7373 53.5,40.5C 51.139,40.6741 48.8056,41.0074 46.5,41.5C 45.5084,41.6716 44.8417,41.3382 44.5,40.5C 45.1667,40.5 45.5,40.1667 45.5,39.5C 46.4916,39.6716 47.1583,39.3382 47.5,38.5 Z"/></g>
<g><path style="opacity:0.184" fill="#c1c1c1" d="M 55.5,37.5 C 56.4916,37.3284 57.1583,37.6618 57.5,38.5C 56.8333,38.5 56.5,38.8333 56.5,39.5C 55.5084,39.6716 54.8417,39.3382 54.5,38.5C 55.1667,38.5 55.5,38.1667 55.5,37.5 Z"/></g>
<g><path style="opacity:0.999" fill="#363636" d="M 27.5,39.5 C 28.8333,39.5 29.5,40.1667 29.5,41.5C 29.0679,42.7095 28.4013,43.7095 27.5,44.5C 26.609,45.1098 25.609,45.4431 24.5,45.5C 23.8333,45.5 23.5,45.1667 23.5,44.5C 23.2627,43.209 23.596,42.209 24.5,41.5C 25.5,40.8333 26.5,40.1667 27.5,39.5 Z"/></g>
<g><path style="opacity:0.278" fill="#bcbcbc" d="M 27.5,39.5 C 28.209,38.596 29.209,38.2627 30.5,38.5C 30.7373,39.791 30.404,40.791 29.5,41.5C 29.5,40.1667 28.8333,39.5 27.5,39.5 Z"/></g>
<g><path style="opacity:0.998" fill="#595959" d="M 13.5,38.5 C 14.5,38.5 15.5,38.5 16.5,38.5C 16.297,41.907 14.797,44.5737 12,46.5C 8.74537,45.4684 7.91204,43.4684 9.5,40.5C 11.6155,41.7563 12.9489,41.0896 13.5,38.5 Z"/></g>
<g><path style="opacity:0.993" fill="#535353" d="M 1.5,41.5 C 2.16667,41.5 2.83333,41.5 3.5,41.5C 4.18222,48.5678 4.84888,55.7345 5.5,63C 15.1667,63.6667 24.8333,63.6667 34.5,63C 33.7476,62.3292 33.4142,61.4959 33.5,60.5C 33.8333,59.5 34.5,58.8333 35.5,58.5C 36.1667,59.1667 36.8333,59.8333 37.5,60.5C 37.427,62.0269 38.0937,63.0269 39.5,63.5C 39.5,64.1667 39.8333,64.5 40.5,64.5C 41.1667,65.5 41.8333,66.5 42.5,67.5C 41.209,67.2627 40.209,67.596 39.5,68.5C 27.909,67.6877 16.2423,67.1877 4.5,67C 3.33333,65.8333 2.16667,64.6667 1,63.5C 0.178181,55.9882 0.344847,48.6549 1.5,41.5 Z"/></g>
<g><path style="opacity:0.839" fill="#929292" d="M 24.5,41.5 C 23.596,42.209 23.2627,43.209 23.5,44.5C 21.121,43.4381 21.121,42.1048 23.5,40.5C 24.1067,40.6236 24.44,40.9569 24.5,41.5 Z"/></g>
<g><path style="opacity:1" fill="#606060" d="M 42.5,40.5 C 42.8333,40.5 43.1667,40.5 43.5,40.5C 43.8333,40.5 44.1667,40.5 44.5,40.5C 44.8417,41.3382 45.5084,41.6716 46.5,41.5C 43.8333,43.5 41.5,45.8333 39.5,48.5C 39.6716,47.5084 39.3382,46.8417 38.5,46.5C 38.5,45.8333 38.5,45.1667 38.5,44.5C 39.8333,43.8333 40.8333,42.8333 41.5,41.5C 42.1667,41.5 42.5,41.1667 42.5,40.5 Z"/></g>
<g><path style="opacity:1" fill="#2e2e2e" d="M 56.5,42.5 C 57.4834,46.2984 57.8168,50.2984 57.5,54.5C 57.1667,54.5 56.8333,54.5 56.5,54.5C 56.5,53.1667 56.5,51.8333 56.5,50.5C 53.5,50.5 50.5,50.5 47.5,50.5C 47.1667,50.5 46.8333,50.5 46.5,50.5C 49.2469,49.7648 52.5802,49.0981 56.5,48.5C 56.5,47.1667 56.5,45.8333 56.5,44.5C 53.6146,44.1936 50.9479,44.5269 48.5,45.5C 47.5084,45.6716 46.8417,45.3382 46.5,44.5C 46.6107,43.8826 46.944,43.3826 47.5,43C 50.4816,42.502 53.4816,42.3354 56.5,42.5 Z"/></g>
<g><path style="opacity:0.004" fill="#dadada" d="M 27.5,44.5 C 26.9473,46.5518 25.9473,46.8852 24.5,45.5C 25.609,45.4431 26.609,45.1098 27.5,44.5 Z"/></g>
<g><path style="opacity:0.031" fill="#c5c5c5" d="M 65.5,45.5 C 66.3382,45.8417 66.6716,46.5084 66.5,47.5C 65.8333,47.5 65.5,47.8333 65.5,48.5C 64.6618,48.1583 64.3284,47.4916 64.5,46.5C 65.1667,46.5 65.5,46.1667 65.5,45.5 Z"/></g>
<g><path style="opacity:1" fill="#4e4e4e" d="M 38.5,46.5 C 39.3382,46.8417 39.6716,47.5084 39.5,48.5C 39.5,51.5 39.5,54.5 39.5,57.5C 39.5912,59.6977 38.9245,60.0311 37.5,58.5C 36.5863,55.272 36.2529,51.9387 36.5,48.5C 37.1667,47.8333 37.8333,47.1667 38.5,46.5 Z"/></g>
<g><path style="opacity:0.999" fill="#525252" d="M 27.5,51.5 C 28.9953,51.4148 29.9953,52.0815 30.5,53.5C 28.6694,59.9424 25.6694,60.7757 21.5,56C 24.104,55.2089 26.104,53.7089 27.5,51.5 Z"/></g>
<g><path style="opacity:0.345" fill="#b7b7b7" d="M 13.5,52.5 C 14.209,51.596 15.209,51.2627 16.5,51.5C 16.7373,52.791 16.404,53.791 15.5,54.5C 15.5,53.1667 14.8333,52.5 13.5,52.5 Z"/></g>
<g><path style="opacity:0.373" fill="#b6b6b6" d="M 66.5,47.5 C 67.404,48.209 67.7373,49.209 67.5,50.5C 66.5386,52.2646 66.2053,54.2646 66.5,56.5C 66.1667,56.5 65.8333,56.5 65.5,56.5C 65.5,54.1667 65.5,51.8333 65.5,49.5C 66.3382,49.1583 66.6716,48.4916 66.5,47.5 Z"/></g>
<g><path style="opacity:0.997" fill="#383838" d="M 13.5,52.5 C 14.8333,52.5 15.5,53.1667 15.5,54.5C 12.9925,61.0974 10.6591,61.0974 8.5,54.5C 10.5542,54.6347 12.2209,53.968 13.5,52.5 Z"/></g>
<g><path style="opacity:0.059" fill="#d8d8d8" d="M 39.5,57.5 C 40.3412,58.9264 41.3412,60.2597 42.5,61.5C 41.1667,61.5 40.5,62.1667 40.5,63.5C 40.1667,63.5 39.8333,63.5 39.5,63.5C 39.7148,61.8212 39.0481,60.8212 37.5,60.5C 37.5,59.8333 37.5,59.1667 37.5,58.5C 38.9245,60.0311 39.5912,59.6977 39.5,57.5 Z"/></g>
<g><path style="opacity:0.994" fill="#4d4d4d" d="M 56.5,39.5 C 57.1667,39.5 57.8333,39.5 58.5,39.5C 58.8417,40.3382 59.5084,40.6716 60.5,40.5C 61.1667,40.5 61.5,40.8333 61.5,41.5C 62.1667,41.5 62.5,41.8333 62.5,42.5C 63.1667,42.5 63.5,42.8333 63.5,43.5C 63.5,44.1667 63.8333,44.5 64.5,44.5C 65.1667,44.5 65.5,44.8333 65.5,45.5C 64.8333,45.5 64.5,45.8333 64.5,46.5C 64.3284,47.4916 64.6618,48.1583 65.5,48.5C 65.5,48.8333 65.5,49.1667 65.5,49.5C 65.5,51.8333 65.5,54.1667 65.5,56.5C 65.5,57.5 65.5,58.5 65.5,59.5C 64.6618,59.8417 64.3284,60.5084 64.5,61.5C 63.8333,61.5 63.5,61.8333 63.5,62.5C 62.1667,63.1667 61.1667,64.1667 60.5,65.5C 59.8333,65.5 59.5,65.8333 59.5,66.5C 58.5084,66.3284 57.8417,66.6618 57.5,67.5C 56.209,67.2627 55.209,67.596 54.5,68.5C 52.5,68.5 50.5,68.5 48.5,68.5C 45.8721,67.1861 43.2054,65.8527 40.5,64.5C 40.5,64.1667 40.5,63.8333 40.5,63.5C 40.5,62.1667 41.1667,61.5 42.5,61.5C 42.4346,61.9382 42.6012,62.2716 43,62.5C 44.214,60.9512 45.714,59.7845 47.5,59C 42.7869,54.2968 42.4536,49.4634 46.5,44.5C 46.8417,45.3382 47.5084,45.6716 48.5,45.5C 48.0472,46.4584 47.3805,47.2917 46.5,48C 49.4816,48.498 52.4816,48.6646 55.5,48.5C 55.8333,48.5 56.1667,48.5 56.5,48.5C 52.5802,49.0981 49.2469,49.7648 46.5,50.5C 46.7284,56.085 49.395,58.085 54.5,56.5C 55.4916,56.3284 56.1583,56.6618 56.5,57.5C 55.6494,59.7036 56.6494,61.037 59.5,61.5C 62.4168,59.6665 63.7501,56.9998 63.5,53.5C 63.6345,49.3938 62.1345,46.0605 59,43.5C 58.5014,47.1516 58.3347,50.8183 58.5,54.5C 58.1667,54.5 57.8333,54.5 57.5,54.5C 57.8168,50.2984 57.4834,46.2984 56.5,42.5C 55.5,41.8333 54.5,41.1667 53.5,40.5C 54.791,40.7373 55.791,40.404 56.5,39.5 Z M 48.5,64.5 C 51.1569,64.838 53.4902,64.1713 55.5,62.5C 56.3081,62.8076 56.9747,63.3076 57.5,64C 54.4052,65.5339 51.4052,65.7005 48.5,64.5 Z M 48.5,64.5 C 45.2027,64.6713 44.8694,64.0046 47.5,62.5C 48.2975,62.9569 48.6309,63.6236 48.5,64.5 Z M 46.5,50.5 C 46.8333,50.5 47.1667,50.5 47.5,50.5C 49.9479,51.4731 52.6146,51.8064 55.5,51.5C 55.2627,52.791 55.596,53.791 56.5,54.5C 55.8333,55.1667 55.1667,55.8333 54.5,56.5C 49.395,58.085 46.7284,56.085 46.5,50.5 Z M 48.5,45.5 C 50.8333,45.5 53.1667,45.5 55.5,45.5C 55.5,46.5 55.5,47.5 55.5,48.5C 52.4816,48.6646 49.4816,48.498 46.5,48C 47.3805,47.2917 48.0472,46.4584 48.5,45.5 Z M 56.5,57.5 C 57.4013,56.7095 58.0679,55.7095 58.5,54.5C 58.3347,50.8183 58.5014,47.1516 59,43.5C 62.1345,46.0605 63.6345,49.3938 63.5,53.5C 63.7501,56.9998 62.4168,59.6665 59.5,61.5C 56.6494,61.037 55.6494,59.7036 56.5,57.5 Z"/></g>
<g><path style="opacity:0.129" fill="#dcdcdc" d="M 52.5,61.5 C 51.8333,60.1667 51.1667,60.1667 50.5,61.5C 49.2486,60.528 49.582,59.8614 51.5,59.5C 53.418,59.8614 53.7514,60.528 52.5,61.5 Z"/></g>
<g><path style="opacity:0.031" fill="#dfdfdf" d="M 56.5,54.5 C 56.8333,54.5 57.1667,54.5 57.5,54.5C 57.8333,54.5 58.1667,54.5 58.5,54.5C 58.0679,55.7095 57.4013,56.7095 56.5,57.5C 56.1583,56.6618 55.4916,56.3284 54.5,56.5C 55.1667,55.8333 55.8333,55.1667 56.5,54.5 Z"/></g>
<g><path style="opacity:0.019" fill="#fafafa" d="M 47.5,50.5 C 50.5,50.5 53.5,50.5 56.5,50.5C 56.5,51.8333 56.5,53.1667 56.5,54.5C 55.596,53.791 55.2627,52.791 55.5,51.5C 52.6146,51.8064 49.9479,51.4731 47.5,50.5 Z"/></g>
<g><path style="opacity:0.478" fill="#9c9c9c" d="M 48.5,45.5 C 50.9479,44.5269 53.6146,44.1936 56.5,44.5C 56.5,45.8333 56.5,47.1667 56.5,48.5C 56.1667,48.5 55.8333,48.5 55.5,48.5C 55.5,47.5 55.5,46.5 55.5,45.5C 53.1667,45.5 50.8333,45.5 48.5,45.5 Z"/></g>
<g><path style="opacity:0.999" fill="#3f3f3f" d="M 65.5,40.5 C 71.9768,48.8988 72.1435,57.5654 66,66.5C 63.6744,68.0657 61.5078,69.7324 59.5,71.5C 53.8333,71.5 48.1667,71.5 42.5,71.5C 41.3065,70.7281 40.3065,69.7281 39.5,68.5C 40.209,67.596 41.209,67.2627 42.5,67.5C 44.4352,68.1495 46.4352,68.4828 48.5,68.5C 50.5,69.8333 52.5,69.8333 54.5,68.5C 55.791,68.7373 56.791,68.404 57.5,67.5C 58.4916,67.6716 59.1583,67.3382 59.5,66.5C 60.1667,66.5 60.5,66.1667 60.5,65.5C 62.5,65.5 63.5,64.5 63.5,62.5C 64.1667,62.5 64.5,62.1667 64.5,61.5C 65.3382,61.1583 65.6716,60.4916 65.5,59.5C 66.404,58.791 66.7373,57.791 66.5,56.5C 67.4614,54.7354 67.7947,52.7354 67.5,50.5C 67.7373,49.209 67.404,48.209 66.5,47.5C 66.6716,46.5084 66.3382,45.8417 65.5,45.5C 65.5,44.8333 65.1667,44.5 64.5,44.5C 64.5,44.1667 64.5,43.8333 64.5,43.5C 64.5569,42.391 64.8902,41.391 65.5,40.5 Z"/></g>
</svg>
