<svg version="1.1" id="Layer_1" xmlns="http://www.w3.org/2000/svg" xmlns:xlink="http://www.w3.org/1999/xlink" x="0px" y="0px"
	 width="100%" viewBox="0 0 720 1250" enable-background="new 0 0 720 1250" xml:space="preserve">
<path fill="#EFEFEF" opacity="1.000000" stroke="none" 
	d="
M1.000000,755.000000 
	C1.000000,588.309265 1.000000,421.618500 1.330285,254.670715 
	C3.748283,266.218750 7.320308,277.411896 15.128226,287.223450 
	C22.105495,296.770264 30.277140,304.490173 41.094276,309.631226 
	C50.278210,312.579376 59.072697,316.744446 68.190422,317.648071 
	C81.340118,318.951263 94.724487,317.886719 108.472244,317.901855 
	C140.626083,317.925323 172.316376,317.879456 204.470337,317.903412 
	C231.291031,317.926666 257.648041,317.880127 284.468506,317.905396 
	C305.955383,317.929321 326.978790,317.881409 348.465576,317.907135 
	C365.953461,317.933075 382.977936,317.885406 400.465637,317.912292 
	C418.287354,317.935486 435.645844,317.884094 453.467468,317.906921 
	C464.951752,318.043518 475.972870,318.105927 487.048676,318.507019 
	C488.040009,319.714569 488.848572,320.813080 489.932617,321.417664 
	C505.422058,330.056580 520.911621,338.696960 536.496155,347.162231 
	C539.806335,348.960266 543.495483,350.060822 547.006470,351.481293 
	C547.006470,339.561798 547.006470,328.867859 547.469604,318.100861 
	C569.619690,318.074524 591.306519,318.121246 612.922485,318.497681 
	C612.398804,319.288116 612.024597,319.892731 611.482056,320.188812 
	C592.237244,330.691010 573.030090,341.264984 553.667969,351.547119 
	C550.259949,353.356903 548.889648,355.255768 548.909729,359.182251 
	C549.070923,390.661682 548.996399,422.142334 549.010254,453.622589 
	C549.010925,455.213928 549.161682,456.805176 549.280518,459.143707 
	C551.693420,458.024323 553.489990,457.291962 555.192078,456.382782 
	C560.903320,453.332123 566.491211,450.036346 572.296204,447.179504 
	C578.210205,444.269012 584.448364,442.009735 590.323120,439.028809 
	C599.138733,434.555695 607.794983,429.763214 616.453552,424.987885 
	C622.096985,421.875458 627.772888,418.779297 633.156860,415.252380 
	C637.456116,412.436035 642.454651,411.521179 645.083923,413.767944 
	C652.073853,419.740845 658.985779,425.813721 666.148743,431.573151 
	C674.735413,438.477325 683.606873,445.026245 692.242554,451.870941 
	C696.772644,455.461609 700.976929,459.461914 705.483276,463.084503 
	C710.564636,467.169342 715.820190,471.037567 721.000000,475.000000 
	C721.000000,733.666687 721.000000,992.333374 721.000000,1251.000000 
	C694.234436,1251.000000 667.581116,1251.000000 640.465149,1250.626709 
	C640.908142,1249.434692 641.707520,1248.127319 642.742188,1247.902344 
	C644.710754,1247.474365 647.011963,1248.192383 648.828064,1247.510620 
	C658.451355,1243.897095 667.165833,1238.627563 675.254333,1232.290039 
	C678.196655,1229.984619 681.275818,1227.853882 684.905396,1225.194336 
	C679.085205,1223.924194 674.689453,1222.909912 670.269775,1222.013550 
	C663.571045,1220.654785 656.744629,1219.773193 650.185913,1217.929443 
	C645.687683,1216.665039 641.050171,1214.776245 637.360779,1211.992432 
	C630.115540,1206.525635 621.446899,1206.037598 613.265442,1204.190552 
	C605.910278,1202.529907 598.206726,1202.250244 590.630798,1201.789917 
	C585.985535,1201.507568 581.605347,1200.915039 577.558777,1198.433716 
	C576.666504,1197.886475 575.295776,1198.072510 574.140442,1198.009033 
	C567.684326,1197.654785 561.220276,1197.417480 554.772583,1196.951172 
	C551.812622,1196.737061 549.122864,1195.702393 549.074646,1192.044312 
	C548.983459,1185.129639 549.009399,1178.213135 549.002136,1171.297485 
	C548.992981,1162.634155 549.235291,1153.962402 548.924500,1145.310181 
	C548.675781,1138.386108 548.007202,1131.875000 540.936218,1127.291260 
	C533.429565,1122.424927 526.921387,1116.018677 518.939453,1109.428101 
	C520.379272,1108.784424 521.038696,1108.571655 521.613342,1108.220459 
	C535.161987,1099.939575 548.677795,1091.604370 562.265198,1083.387695 
	C564.662354,1081.938110 566.127563,1080.235962 564.040222,1077.883789 
	C561.193054,1074.675659 558.045471,1071.682983 554.721741,1068.971802 
	C553.226746,1067.752319 550.993652,1067.437744 549.095459,1066.712524 
	C548.730225,1068.602051 548.405945,1070.500610 547.989929,1072.378906 
	C547.448669,1074.822510 546.834717,1077.249878 546.252075,1079.684326 
	C543.312561,1078.754028 540.291626,1078.014282 537.470337,1076.807617 
	C536.187500,1076.258911 535.433960,1074.583618 534.206787,1073.772583 
	C530.919556,1071.600464 527.507996,1069.616577 524.142395,1067.563599 
	C521.528442,1065.968994 518.918457,1064.367798 516.290222,1062.797241 
	C512.491699,1060.527344 508.444580,1056.076660 504.916351,1056.450684 
	C495.299500,1057.469971 490.247406,1048.929077 481.888306,1047.310303 
	C477.180359,1046.398438 473.334808,1041.006226 469.115753,1037.613770 
	C467.765594,1036.528076 466.463318,1035.382935 464.379211,1033.623413 
	C468.614838,1031.459839 472.198944,1029.856079 475.520660,1027.823608 
	C476.904297,1026.977051 478.139832,1025.341064 478.601776,1023.810303 
	C478.781586,1023.214417 476.760071,1021.258850 475.545532,1021.047424 
	C465.816132,1019.354187 456.738007,1015.385986 446.676727,1014.407898 
	C432.290039,1013.009277 418.084351,1009.644287 403.844910,1006.893311 
	C399.050629,1005.967041 394.138031,1004.912109 389.722382,1002.929626 
	C381.895721,999.415710 374.245056,995.425842 366.834961,991.097229 
	C361.841980,988.180603 356.076752,985.722351 355.050537,978.602905 
	C354.849396,977.207642 352.060333,976.075562 350.333771,975.040833 
	C348.569977,973.983765 346.353607,973.533081 344.843445,972.228699 
	C339.727600,967.809937 335.348267,962.343140 329.755981,958.710876 
	C317.217621,950.566895 306.240997,940.729797 295.162811,930.184998 
	C287.538818,936.538513 285.859222,926.810791 280.938843,924.657532 
	C286.618530,918.009583 294.814026,914.753479 300.692627,908.002991 
	C294.869476,906.824402 290.393677,905.813843 285.878632,905.029602 
	C279.424408,903.908630 272.892242,903.187744 266.488647,901.842346 
	C262.416779,900.986877 257.313873,900.446533 254.784744,897.769897 
	C249.040085,891.690002 241.332153,890.363647 234.342163,888.451172 
	C225.218445,885.954834 215.372208,886.174500 205.874863,884.934326 
	C201.659515,884.383850 197.560822,882.992798 193.365906,882.217407 
	C189.529785,881.508240 185.639206,881.084351 181.765594,880.589844 
	C176.881226,879.966248 171.973053,879.500366 167.118057,878.704712 
	C166.323944,878.574646 165.273849,877.159790 165.152069,876.232361 
	C164.314301,869.851501 163.292603,863.455688 163.077789,857.039673 
	C162.513275,840.178040 162.584366,823.292786 161.868149,806.439636 
	C161.587555,799.837097 161.705414,792.632202 154.739273,788.317505 
	C153.354706,787.459900 152.657928,785.491882 151.644012,784.035889 
	C153.432205,783.275024 155.220413,782.514099 157.981354,781.339294 
	C158.257889,780.878174 159.165054,779.305969 160.129013,777.769409 
	C162.751892,773.588379 162.292664,772.310486 157.475952,770.706360 
	C154.645523,769.763733 151.588242,769.276489 148.987045,767.910339 
	C137.409988,761.829956 125.969177,755.490662 114.455452,749.288879 
	C112.855682,748.427124 111.123863,747.810730 109.454025,747.078796 
	C105.300323,745.258118 100.935478,743.801514 97.035812,741.542114 
	C87.578606,736.062744 78.372551,730.151184 68.968323,724.577332 
	C67.727432,723.841919 65.592949,723.384705 64.427917,723.947998 
	C56.210663,727.920593 48.182201,732.281128 40.010498,736.351196 
	C27.108618,742.777344 15.285855,751.469543 1.000000,755.000000 
z"/>
<path fill="#E9E9E9" opacity="1.000000" stroke="none" 
	d="
M1.000000,755.468628 
	C15.285855,751.469543 27.108618,742.777344 40.010498,736.351196 
	C48.182201,732.281128 56.210663,727.920593 64.427917,723.947998 
	C65.592949,723.384705 67.727432,723.841919 68.968323,724.577332 
	C78.372551,730.151184 87.578606,736.062744 97.035812,741.542114 
	C100.935478,743.801514 105.300323,745.258118 109.454025,747.078796 
	C111.123863,747.810730 112.855682,748.427124 114.455452,749.288879 
	C125.969177,755.490662 137.409988,761.829956 148.987045,767.910339 
	C151.588242,769.276489 154.645523,769.763733 157.475952,770.706360 
	C162.292664,772.310486 162.751892,773.588379 160.129013,777.769409 
	C159.165054,779.305969 158.257889,780.878174 157.981354,781.339294 
	C155.220413,782.514099 153.432205,783.275024 151.644012,784.035889 
	C152.657928,785.491882 153.354706,787.459900 154.739273,788.317505 
	C161.705414,792.632202 161.587555,799.837097 161.868149,806.439636 
	C162.584366,823.292786 162.513275,840.178040 163.077789,857.039673 
	C163.292603,863.455688 164.314301,869.851501 165.152069,876.232361 
	C165.273849,877.159790 166.323944,878.574646 167.118057,878.704712 
	C171.973053,879.500366 176.881226,879.966248 181.765594,880.589844 
	C185.639206,881.084351 189.529785,881.508240 193.365906,882.217407 
	C197.560822,882.992798 201.659515,884.383850 205.874863,884.934326 
	C215.372208,886.174500 225.218445,885.954834 234.342163,888.451172 
	C241.332153,890.363647 249.040085,891.690002 254.784744,897.769897 
	C257.313873,900.446533 262.416779,900.986877 266.488647,901.842346 
	C272.892242,903.187744 279.424408,903.908630 285.878632,905.029602 
	C290.393677,905.813843 294.869476,906.824402 300.692627,908.002991 
	C294.814026,914.753479 286.618530,918.009583 280.938843,924.657532 
	C285.859222,926.810791 287.538818,936.538513 295.162811,930.184998 
	C306.240997,940.729797 317.217621,950.566895 329.755981,958.710876 
	C335.348267,962.343140 339.727600,967.809937 344.843445,972.228699 
	C346.353607,973.533081 348.569977,973.983765 350.333771,975.040833 
	C352.060333,976.075562 354.849396,977.207642 355.050537,978.602905 
	C356.076752,985.722351 361.841980,988.180603 366.834961,991.097229 
	C374.245056,995.425842 381.895721,999.415710 389.722382,1002.929626 
	C394.138031,1004.912109 399.050629,1005.967041 403.844910,1006.893311 
	C418.084351,1009.644287 432.290039,1013.009277 446.676727,1014.407898 
	C456.738007,1015.385986 465.816132,1019.354187 475.545532,1021.047424 
	C476.760071,1021.258850 478.781586,1023.214417 478.601776,1023.810303 
	C478.139832,1025.341064 476.904297,1026.977051 475.520660,1027.823608 
	C472.198944,1029.856079 468.614838,1031.459839 464.379211,1033.623413 
	C466.463318,1035.382935 467.765594,1036.528076 469.115753,1037.613770 
	C473.334808,1041.006226 477.180359,1046.398438 481.888306,1047.310303 
	C490.247406,1048.929077 495.299500,1057.469971 504.916351,1056.450684 
	C508.444580,1056.076660 512.491699,1060.527344 516.290222,1062.797241 
	C518.918457,1064.367798 521.528442,1065.968994 524.142395,1067.563599 
	C527.507996,1069.616577 530.919556,1071.600464 534.206787,1073.772583 
	C535.433960,1074.583618 536.187500,1076.258911 537.470337,1076.807617 
	C540.291626,1078.014282 543.312561,1078.754028 546.252075,1079.684326 
	C546.834717,1077.249878 547.448669,1074.822510 547.989929,1072.378906 
	C548.405945,1070.500610 548.730225,1068.602051 549.095459,1066.712524 
	C550.993652,1067.437744 553.226746,1067.752319 554.721741,1068.971802 
	C558.045471,1071.682983 561.193054,1074.675659 564.040222,1077.883789 
	C566.127563,1080.235962 564.662354,1081.938110 562.265198,1083.387695 
	C548.677795,1091.604370 535.161987,1099.939575 521.613342,1108.220459 
	C521.038696,1108.571655 520.379272,1108.784424 518.939453,1109.428101 
	C526.921387,1116.018677 533.429565,1122.424927 540.936218,1127.291260 
	C548.007202,1131.875000 548.675781,1138.386108 548.924500,1145.310181 
	C549.235291,1153.962402 548.992981,1162.634155 549.002136,1171.297485 
	C549.009399,1178.213135 548.983459,1185.129639 549.074646,1192.044312 
	C549.122864,1195.702393 551.812622,1196.737061 554.772583,1196.951172 
	C561.220276,1197.417480 567.684326,1197.654785 574.140442,1198.009033 
	C575.295776,1198.072510 576.666504,1197.886475 577.558777,1198.433716 
	C581.605347,1200.915039 585.985535,1201.507568 590.630798,1201.789917 
	C598.206726,1202.250244 605.910278,1202.529907 613.265442,1204.190552 
	C621.446899,1206.037598 630.115540,1206.525635 637.360779,1211.992432 
	C641.050171,1214.776245 645.687683,1216.665039 650.185913,1217.929443 
	C656.744629,1219.773193 663.571045,1220.654785 670.269775,1222.013550 
	C674.689453,1222.909912 679.085205,1223.924194 684.905396,1225.194336 
	C681.275818,1227.853882 678.196655,1229.984619 675.254333,1232.290039 
	C667.165833,1238.627563 658.451355,1243.897095 648.828064,1247.510620 
	C647.011963,1248.192383 644.710754,1247.474365 642.742188,1247.902344 
	C641.707520,1248.127319 640.908142,1249.434692 640.001282,1250.626709 
	C609.979126,1251.000000 579.958191,1251.000000 549.468628,1250.545898 
	C550.595642,1232.500854 550.145081,1214.915161 549.786072,1196.310913 
	C546.291748,1197.984619 543.875000,1199.002441 541.591064,1200.261230 
	C533.307434,1204.826294 525.099670,1209.529053 516.806213,1214.075928 
	C498.599365,1224.057861 480.223785,1233.741943 462.201141,1244.044678 
	C455.672089,1247.776855 449.942413,1250.272339 443.556915,1244.340820 
	C442.506256,1243.364868 440.893036,1243.002686 439.554840,1242.327148 
	C430.391449,1237.701294 421.137634,1233.243530 412.096893,1228.389160 
	C402.156494,1223.051880 392.455200,1217.271240 382.569275,1211.830078 
	C376.205841,1208.327881 369.379272,1205.574341 363.334076,1201.610229 
	C355.720703,1196.617798 355.209778,1196.429932 347.518005,1200.890869 
	C339.505951,1205.537598 331.185577,1209.652588 323.043640,1213.636230 
	C324.755737,1210.322998 323.299805,1208.034180 321.178406,1206.303467 
	C318.054504,1203.755005 314.524933,1201.705444 311.385437,1199.173828 
	C303.989777,1193.210083 296.798584,1186.991821 289.380676,1181.056519 
	C282.838898,1175.822144 276.108185,1170.823486 269.444092,1165.742798 
	C268.527130,1165.043823 267.403503,1164.591797 266.561798,1163.822021 
	C262.227936,1159.857910 258.123505,1155.625122 253.619339,1151.869385 
	C247.490677,1146.759033 240.965378,1142.125488 234.809906,1137.045532 
	C228.863266,1132.137695 223.185608,1126.904785 217.347855,1121.863281 
	C216.496185,1121.127808 215.370834,1120.719360 214.442230,1120.060791 
	C211.597687,1118.043335 208.707458,1116.077148 205.990952,1113.896729 
	C204.096420,1112.376221 202.346283,1110.636108 200.725922,1108.820679 
	C195.078018,1102.493042 185.264679,1101.101685 181.481934,1092.551392 
	C181.256027,1092.040771 180.417297,1091.802124 179.865219,1091.434692 
	C174.914642,1088.140747 175.061279,1084.968750 180.303833,1081.866455 
	C184.021774,1079.666382 187.937454,1077.730713 191.383316,1075.164673 
	C193.726135,1073.420044 195.408951,1070.788940 196.938690,1069.060669 
	C192.792068,1067.096680 188.550430,1066.262207 186.216187,1063.693970 
	C183.083771,1060.247437 179.361984,1058.112793 175.454498,1058.596558 
	C172.024445,1059.021240 166.242767,1054.978271 165.020325,1062.041626 
	C163.845062,1068.832275 162.984161,1075.677856 162.029373,1082.505493 
	C161.797104,1084.166504 161.738342,1085.851807 161.599792,1087.525879 
	C159.725464,1087.179688 157.577271,1087.308472 156.020615,1086.411133 
	C144.531647,1079.788208 132.718521,1073.596069 121.861275,1066.041260 
	C107.393143,1055.973633 93.653587,1044.852905 79.686264,1034.074219 
	C71.360664,1027.649170 63.196381,1021.014954 54.967022,1014.465454 
	C54.333328,1013.961121 53.753998,1013.387695 53.157116,1012.837952 
	C49.420921,1009.397461 45.687870,1005.953430 41.947590,1002.517334 
	C41.831299,1002.410583 41.631340,1002.400330 41.497429,1002.306458 
	C36.257370,998.634644 30.746418,995.286499 25.853001,991.199036 
	C19.853260,986.187378 14.459457,980.457214 8.619394,975.244141 
	C6.337403,973.207275 3.554671,971.731384 0.999998,970.000000 
	C1.000000,962.312439 1.000000,954.624817 1.463156,946.468628 
	C7.698994,946.080994 13.602547,945.415039 19.217052,946.398804 
	C30.845055,948.436157 41.242718,946.389099 50.946808,939.735596 
	C54.494511,937.303162 58.352028,935.235962 62.285748,933.493164 
	C64.000336,932.733459 66.656113,932.450439 68.208893,933.254944 
	C75.408058,936.985107 82.233917,941.438721 89.449013,945.134460 
	C100.384903,950.736023 112.289436,954.799622 122.384453,961.593811 
	C133.217896,968.885010 144.832474,968.033020 156.500656,968.994568 
	C159.641541,969.253479 160.940979,967.876953 161.044052,964.642761 
	C161.610214,946.878662 162.314606,929.118774 163.009247,911.358948 
	C163.281372,904.401367 163.518143,897.438293 164.010452,890.494690 
	C164.648376,881.496765 164.193207,880.849670 156.236191,876.579163 
	C137.417252,866.479004 118.705368,856.179504 99.933029,845.992249 
	C89.584373,840.376160 79.234573,834.759644 68.792725,829.320984 
	C67.414139,828.603027 65.101364,828.228943 63.870510,828.895142 
	C46.353081,838.376343 28.979965,848.123840 11.486478,857.650024 
	C8.181435,859.449707 4.505044,860.567505 0.999997,862.000000 
	C1.000000,826.645752 1.000000,791.291565 1.000000,755.468628 
M438.374512,1136.168579 
	C442.063446,1138.093750 445.634064,1140.326782 449.492889,1141.809814 
	C451.330292,1142.515991 454.038879,1142.458130 455.796661,1141.603149 
	C462.659180,1138.264893 469.353302,1134.565674 476.009949,1130.822632 
	C486.980225,1124.654053 497.881226,1118.362061 508.792511,1112.089111 
	C511.669525,1110.435059 511.366058,1109.003784 508.878326,1106.839722 
	C503.226532,1101.923340 496.497925,1099.634888 489.638489,1097.041382 
	C481.658722,1094.024536 474.295288,1089.382935 466.637817,1085.498779 
	C465.932770,1085.141113 465.004791,1084.939087 464.232117,1085.044434 
	C459.015808,1085.755615 455.488586,1082.440674 451.160614,1080.473511 
	C440.170349,1075.478516 432.890076,1063.530151 419.326599,1063.551270 
	C418.586945,1063.552368 417.870850,1062.583008 417.101288,1062.509155 
	C414.646667,1062.274048 411.842102,1061.436768 409.762085,1062.282227 
	C400.702148,1065.964478 391.644684,1069.766968 382.995514,1074.305664 
	C377.163727,1077.365967 372.789734,1079.812134 366.714233,1073.886475 
	C361.912506,1069.203003 357.725861,1071.840576 356.928375,1078.620361 
	C356.640045,1081.071899 355.151520,1083.521973 355.382996,1085.856567 
	C355.630005,1088.348145 356.585815,1091.890747 358.399963,1092.923706 
	C370.228760,1099.659180 382.416687,1105.759766 394.406464,1112.217773 
	C408.883667,1120.015747 423.280914,1127.962036 438.374512,1136.168579 
M274.310394,992.009155 
	C273.233307,991.661926 272.168274,991.270203 271.077118,990.974976 
	C266.248657,989.668213 260.808380,990.511292 256.769989,986.431641 
	C253.458374,983.086182 249.496353,981.850037 244.612320,982.816101 
	C242.958664,983.143188 240.854462,981.390564 239.006393,980.485596 
	C236.816711,979.413391 234.744308,977.411499 232.511276,977.239624 
	C223.772339,976.567200 216.733109,972.124634 210.170563,967.167236 
	C207.024124,964.790405 204.786484,964.849609 201.669861,966.124146 
	C195.243851,968.752136 188.794708,971.338867 182.260849,973.679443 
	C179.968063,974.500732 177.160355,975.395691 175.004028,974.785645 
	C169.842392,973.325500 166.880264,974.289490 164.488968,979.498535 
	C162.528320,983.769592 162.269440,985.458252 166.500748,987.761658 
	C176.666748,993.295532 186.824463,998.844727 196.989090,1004.381104 
	C216.524292,1015.021240 236.080856,1025.622437 255.577164,1036.333374 
	C258.342468,1037.852661 260.493286,1037.851562 263.371643,1036.231323 
	C279.278748,1027.277466 295.385193,1018.678162 311.305878,1009.747925 
	C313.625977,1008.446533 315.315582,1006.020996 318.062408,1003.379456 
	C314.833130,1002.371643 313.153259,1001.793884 311.443451,1001.325500 
	C308.465149,1000.509827 305.487030,999.677795 302.474487,999.007019 
	C298.902618,998.211670 295.269501,997.686157 291.707642,996.852478 
	C286.056122,995.529602 280.441742,994.048218 274.310394,992.009155 
M573.378174,1212.429565 
	C579.155212,1217.325073 584.598572,1222.720093 590.854309,1226.899048 
	C593.854431,1228.903320 598.391479,1228.606934 602.232544,1229.352539 
	C602.386780,1228.853760 602.541016,1228.355103 602.695312,1227.856445 
	C602.206848,1227.287109 601.827209,1226.526733 601.213562,1226.177124 
	C593.015625,1221.508789 584.800964,1216.868896 576.539062,1212.315063 
	C575.669250,1211.835693 574.473572,1211.947510 573.378174,1212.429565 
z"/>
<path fill="#62111F" opacity="1.000000" stroke="none" 
	d="
M204.006683,317.833618 
	C172.316376,317.879456 140.626083,317.925323 108.536949,317.579010 
	C119.164780,308.760345 130.065964,300.162903 141.250961,291.952087 
	C154.206635,282.441437 167.480347,273.365112 180.490189,263.926819 
	C194.704971,253.614426 208.737442,243.051071 222.921295,232.695602 
	C234.681976,224.109268 246.609634,215.751221 258.349396,207.136810 
	C271.706482,197.335632 284.845337,187.235779 298.247467,177.497574 
	C312.858612,166.880890 327.767365,156.673203 342.357544,146.028397 
	C362.177582,131.567932 381.762482,116.785461 401.555786,102.287956 
	C414.627777,92.713417 427.913818,83.431656 441.059021,73.956398 
	C458.937744,61.069202 476.782013,48.134167 494.624481,35.196781 
	C505.219543,27.514421 515.902649,19.945210 526.302002,12.005307 
	C530.534729,8.773595 534.120117,4.693881 538.000000,1.000001 
	C570.020874,1.000000 602.041809,1.000000 634.490417,1.345887 
	C633.891479,2.960967 633.078552,4.521217 631.806152,5.455939 
	C610.853943,20.848156 589.852234,36.173119 568.843811,51.488728 
	C554.130310,62.215206 539.436279,72.969284 524.646606,83.589966 
	C513.218567,91.796585 501.562439,99.686897 490.179871,107.954811 
	C479.471222,115.733223 469.101624,123.979027 458.378571,131.736755 
	C442.860046,142.963760 427.073059,153.819809 411.560699,165.055161 
	C399.643158,173.686844 388.025757,182.731659 376.177917,191.461212 
	C363.122742,201.080353 349.993378,210.600021 336.826874,220.066422 
	C327.412964,226.834839 317.800995,233.329269 308.429443,240.154709 
	C297.865540,247.848618 287.585938,255.935059 276.974274,263.560791 
	C265.041962,272.135559 252.805237,280.285889 240.836823,288.811584 
	C231.959595,295.135254 223.214569,301.653564 214.581894,308.307312 
	C210.835175,311.195190 207.518616,314.641144 204.006683,317.833618 
z"/>
<path fill="#540C19" opacity="1.000000" stroke="none" 
	d="
M204.470337,317.903412 
	C207.518616,314.641144 210.835175,311.195190 214.581894,308.307312 
	C223.214569,301.653564 231.959595,295.135254 240.836823,288.811584 
	C252.805237,280.285889 265.041962,272.135559 276.974274,263.560791 
	C287.585938,255.935059 297.865540,247.848618 308.429443,240.154709 
	C317.800995,233.329269 327.412964,226.834839 336.826874,220.066422 
	C349.993378,210.600021 363.122742,201.080353 376.177917,191.461212 
	C388.025757,182.731659 399.643158,173.686844 411.560699,165.055161 
	C427.073059,153.819809 442.860046,142.963760 458.378571,131.736755 
	C469.101624,123.979027 479.471222,115.733223 490.179871,107.954811 
	C501.562439,99.686897 513.218567,91.796585 524.646606,83.589966 
	C539.436279,72.969284 554.130310,62.215206 568.843811,51.488728 
	C589.852234,36.173119 610.853943,20.848156 631.806152,5.455939 
	C633.078552,4.521217 633.891479,2.960967 634.959106,1.345887 
	C661.354248,1.000000 687.708435,1.000000 714.490662,1.345841 
	C712.383606,4.231658 710.132812,7.163085 707.265259,9.244984 
	C693.591064,19.172489 679.661621,28.748362 665.990967,38.680485 
	C650.843323,49.685574 635.905518,60.978939 620.824829,72.076721 
	C607.012146,82.241341 593.126892,92.307137 579.281128,102.426857 
	C570.766479,108.650124 562.258362,114.882378 553.765808,121.135628 
	C552.032959,122.411545 550.450745,123.898087 548.682495,125.118591 
	C539.958557,131.140015 531.070496,136.931549 522.477051,143.132233 
	C511.237610,151.242157 500.267365,159.723999 489.093445,167.926086 
	C478.708954,175.548691 468.199799,183.001282 457.763641,190.553741 
	C451.867645,194.820526 446.023682,199.159164 440.128906,203.427643 
	C428.061493,212.165878 415.926910,220.812195 403.913879,229.624359 
	C395.367462,235.893600 387.102753,242.551804 378.477295,248.707092 
	C369.718018,254.957901 360.535767,260.616638 351.786285,266.880493 
	C342.777039,273.330292 334.033264,280.154083 325.241150,286.902588 
	C321.563416,289.725494 318.235443,293.026672 314.443848,295.674194 
	C304.866943,302.361359 295.102142,308.779022 285.467651,315.384857 
	C284.755310,315.873230 284.482330,317.002350 284.005066,317.833557 
	C257.648041,317.880127 231.291031,317.926666 204.470337,317.903412 
z"/>
<path fill="#39030D" opacity="1.000000" stroke="none" 
	d="
M612.993408,318.167969 
	C591.306519,318.121246 569.619690,318.074524 547.006470,318.021851 
	C526.384705,318.066742 506.689362,318.117554 486.994019,318.168335 
	C475.972870,318.105927 464.951752,318.043518 453.533569,317.584137 
	C464.753326,308.460663 476.326050,299.674683 488.002625,291.028931 
	C495.590485,285.410614 503.400940,280.092773 510.986420,274.471313 
	C527.661682,262.113617 543.845886,249.070099 561.768311,238.467590 
	C562.886353,237.806152 563.657776,236.584518 564.717407,235.793533 
	C567.426270,233.771500 570.189148,231.819977 572.966003,229.891586 
	C574.451599,228.859940 576.098206,228.047180 577.522949,226.943054 
	C587.309082,219.359100 596.871704,211.472748 606.859253,204.166183 
	C620.849304,193.931534 635.285950,184.307251 649.273865,174.069824 
	C664.172058,163.166229 678.704712,151.764374 693.529114,140.758102 
	C700.031616,135.930313 706.784729,131.424545 713.588013,127.026131 
	C715.790283,125.602295 718.514526,124.985779 721.000000,123.999992 
	C721.000000,167.354233 721.000000,210.708450 720.646606,254.679321 
	C717.497009,270.350952 711.262634,283.675690 700.690918,294.912994 
	C691.957336,304.196381 681.240906,310.278839 669.133301,314.836121 
	C656.747314,318.700623 644.315369,317.825043 631.530945,318.097107 
	C625.043152,318.072662 619.018250,318.120300 612.993408,318.167969 
z"/>
<path fill="#6F1625" opacity="1.000000" stroke="none" 
	d="
M537.531372,1.000001 
	C534.120117,4.693881 530.534729,8.773595 526.302002,12.005307 
	C515.902649,19.945210 505.219543,27.514421 494.624481,35.196781 
	C476.782013,48.134167 458.937744,61.069202 441.059021,73.956398 
	C427.913818,83.431656 414.627777,92.713417 401.555786,102.287956 
	C381.762482,116.785461 362.177582,131.567932 342.357544,146.028397 
	C327.767365,156.673203 312.858612,166.880890 298.247467,177.497574 
	C284.845337,187.235779 271.706482,197.335632 258.349396,207.136810 
	C246.609634,215.751221 234.681976,224.109268 222.921295,232.695602 
	C208.737442,243.051071 194.704971,253.614426 180.490189,263.926819 
	C167.480347,273.365112 154.206635,282.441437 141.250961,291.952087 
	C130.065964,300.162903 119.164780,308.760345 108.073418,317.509705 
	C94.724487,317.886719 81.340118,318.951263 68.190422,317.648071 
	C59.072697,316.744446 50.278210,312.579376 41.160908,309.257385 
	C44.772652,305.554749 48.425629,302.277313 52.375690,299.409027 
	C74.227036,283.541901 96.171722,267.803436 118.042175,251.962524 
	C132.409363,241.556274 146.703201,231.048767 161.033478,220.591522 
	C173.476532,211.511459 185.902985,202.408417 198.375931,193.369553 
	C214.821442,181.451828 231.359573,169.661255 247.754044,157.673996 
	C259.385498,149.169342 270.741180,140.286316 282.408325,131.832138 
	C296.213562,121.828636 310.319366,112.239609 324.114349,102.222298 
	C338.431946,91.825485 352.459015,81.029182 366.750885,70.596245 
	C380.928467,60.246700 395.316956,50.186569 409.540955,39.899944 
	C425.121307,28.632401 440.649170,17.291296 456.108795,5.859019 
	C457.721619,4.666356 458.717743,2.639710 460.000000,1.000006 
	C485.687561,1.000000 511.375122,1.000000 537.531372,1.000001 
z"/>
<path fill="#E3E3E3" opacity="1.000000" stroke="none" 
	d="
M0.999998,970.468628 
	C3.554671,971.731384 6.337403,973.207275 8.619394,975.244141 
	C14.459457,980.457214 19.853260,986.187378 25.853001,991.199036 
	C30.746418,995.286499 36.257370,998.634644 41.497429,1002.306458 
	C41.631340,1002.400330 41.831299,1002.410583 41.947590,1002.517334 
	C45.687870,1005.953430 49.420921,1009.397461 53.157116,1012.837952 
	C53.753998,1013.387695 54.333328,1013.961121 54.967022,1014.465454 
	C63.196381,1021.014954 71.360664,1027.649170 79.686264,1034.074219 
	C93.653587,1044.852905 107.393143,1055.973633 121.861275,1066.041260 
	C132.718521,1073.596069 144.531647,1079.788208 156.020615,1086.411133 
	C157.577271,1087.308472 159.725464,1087.179688 161.599792,1087.525879 
	C161.738342,1085.851807 161.797104,1084.166504 162.029373,1082.505493 
	C162.984161,1075.677856 163.845062,1068.832275 165.020325,1062.041626 
	C166.242767,1054.978271 172.024445,1059.021240 175.454498,1058.596558 
	C179.361984,1058.112793 183.083771,1060.247437 186.216187,1063.693970 
	C188.550430,1066.262207 192.792068,1067.096680 196.938690,1069.060669 
	C195.408951,1070.788940 193.726135,1073.420044 191.383316,1075.164673 
	C187.937454,1077.730713 184.021774,1079.666382 180.303833,1081.866455 
	C175.061279,1084.968750 174.914642,1088.140747 179.865219,1091.434692 
	C180.417297,1091.802124 181.256027,1092.040771 181.481934,1092.551392 
	C185.264679,1101.101685 195.078018,1102.493042 200.725922,1108.820679 
	C202.346283,1110.636108 204.096420,1112.376221 205.990952,1113.896729 
	C208.707458,1116.077148 211.597687,1118.043335 214.442230,1120.060791 
	C215.370834,1120.719360 216.496185,1121.127808 217.347855,1121.863281 
	C223.185608,1126.904785 228.863266,1132.137695 234.809906,1137.045532 
	C240.965378,1142.125488 247.490677,1146.759033 253.619339,1151.869385 
	C258.123505,1155.625122 262.227936,1159.857910 266.561798,1163.822021 
	C267.403503,1164.591797 268.527130,1165.043823 269.444092,1165.742798 
	C276.108185,1170.823486 282.838898,1175.822144 289.380676,1181.056519 
	C296.798584,1186.991821 303.989777,1193.210083 311.385437,1199.173828 
	C314.524933,1201.705444 318.054504,1203.755005 321.178406,1206.303467 
	C323.299805,1208.034180 324.755737,1210.322998 322.734741,1213.794922 
	C312.217590,1219.896484 302.073730,1225.513550 291.880768,1231.040039 
	C285.625549,1234.431519 279.295319,1237.684692 272.954651,1240.656372 
	C268.661804,1236.432983 264.370392,1232.598877 260.172424,1228.664917 
	C248.659302,1217.875977 237.282425,1206.939697 225.673828,1196.254883 
	C206.996964,1179.064209 188.197266,1162.006836 169.375336,1144.974976 
	C168.053589,1143.778931 166.121231,1143.257690 164.472778,1142.422607 
	C163.985397,1144.086060 163.089203,1145.745972 163.075012,1147.413452 
	C162.955948,1161.400269 163.008865,1175.388306 162.979736,1189.375977 
	C162.976120,1191.115112 162.795609,1192.854126 162.618179,1195.985352 
	C130.137115,1178.347900 98.671570,1161.261841 66.637802,1143.867188 
	C68.039627,1142.765137 68.499252,1142.291626 69.051735,1141.985962 
	C81.952660,1134.848877 94.836845,1127.680542 107.785515,1120.630859 
	C113.238960,1117.661865 113.395035,1116.483032 108.636269,1112.775879 
	C104.323647,1109.416138 100.134171,1105.897095 95.919426,1102.413208 
	C78.298744,1087.848389 60.677959,1073.283569 43.085171,1058.685059 
	C39.835957,1055.988892 36.378853,1055.172241 32.480274,1057.015747 
	C28.119732,1059.077759 23.720053,1061.069092 19.448654,1063.303833 
	C15.699931,1065.265137 12.893517,1064.918213 9.866511,1061.591309 
	C7.434219,1058.918091 3.993349,1057.162720 0.999999,1055.000000 
	C1.000000,1026.979126 1.000000,998.958191 0.999998,970.468628 
z"/>
<path fill="#D6D6D6" opacity="1.000000" stroke="none" 
	d="
M0.999999,1055.468628 
	C3.993349,1057.162720 7.434219,1058.918091 9.866511,1061.591309 
	C12.893517,1064.918213 15.699931,1065.265137 19.448654,1063.303833 
	C23.720053,1061.069092 28.119732,1059.077759 32.480274,1057.015747 
	C36.378853,1055.172241 39.835957,1055.988892 43.085171,1058.685059 
	C60.677959,1073.283569 78.298744,1087.848389 95.919426,1102.413208 
	C100.134171,1105.897095 104.323647,1109.416138 108.636269,1112.775879 
	C113.395035,1116.483032 113.238960,1117.661865 107.785515,1120.630859 
	C94.836845,1127.680542 81.952660,1134.848877 69.051735,1141.985962 
	C68.499252,1142.291626 68.039627,1142.765137 66.637802,1143.867188 
	C98.671570,1161.261841 130.137115,1178.347900 162.618179,1195.985352 
	C162.795609,1192.854126 162.976120,1191.115112 162.979736,1189.375977 
	C163.008865,1175.388306 162.955948,1161.400269 163.075012,1147.413452 
	C163.089203,1145.745972 163.985397,1144.086060 164.472778,1142.422607 
	C166.121231,1143.257690 168.053589,1143.778931 169.375336,1144.974976 
	C188.197266,1162.006836 206.996964,1179.064209 225.673828,1196.254883 
	C237.282425,1206.939697 248.659302,1217.875977 260.172424,1228.664917 
	C264.370392,1232.598877 268.661804,1236.432983 272.743896,1240.923584 
	C269.617401,1243.213989 266.527771,1244.707520 263.749390,1246.647095 
	C262.228058,1247.708984 261.232574,1249.524414 260.000000,1251.000000 
	C260.000000,1251.000000 259.500000,1251.000000 259.211792,1250.649414 
	C257.813843,1249.138428 256.902924,1247.619629 255.562134,1246.875854 
	C246.692307,1241.956055 237.710205,1237.239258 228.802750,1232.386597 
	C215.377487,1225.072510 202.016525,1217.640015 188.564026,1210.376587 
	C180.103378,1205.808594 171.525345,1201.458008 162.782867,1196.824463 
	C159.788025,1198.059814 156.976852,1199.419189 154.238190,1200.911499 
	C140.123413,1208.603638 126.024117,1216.324097 111.925514,1224.045654 
	C97.955215,1231.697144 84.023552,1239.420288 69.984444,1246.943237 
	C68.297554,1247.847168 65.559013,1248.628174 64.130981,1247.884888 
	C52.500095,1241.830811 41.097916,1235.339966 29.560432,1229.103516 
	C20.086979,1223.982666 10.523554,1219.028198 1.000003,1214.000000 
	C1.000000,1202.312378 1.000000,1190.624878 1.375133,1178.461426 
	C2.242883,1177.912720 2.806060,1177.970459 3.217946,1177.748047 
	C22.628897,1167.271606 42.036453,1156.788696 61.398640,1146.222534 
	C62.423489,1145.663330 63.915577,1143.867676 63.710808,1143.520752 
	C62.942127,1142.218384 61.721737,1140.982178 60.381893,1140.248169 
	C44.796108,1131.709595 29.185110,1123.215942 13.514208,1114.834839 
	C9.461742,1112.667480 5.177675,1110.933228 0.999998,1109.000000 
	C1.000000,1091.312378 1.000000,1073.624878 0.999999,1055.468628 
z"/>
<path fill="#4A0814" opacity="1.000000" stroke="none" 
	d="
M284.468536,317.905396 
	C284.482330,317.002350 284.755310,315.873230 285.467651,315.384857 
	C295.102142,308.779022 304.866943,302.361359 314.443848,295.674194 
	C318.235443,293.026672 321.563416,289.725494 325.241150,286.902588 
	C334.033264,280.154083 342.777039,273.330292 351.786285,266.880493 
	C360.535767,260.616638 369.718018,254.957901 378.477295,248.707092 
	C387.102753,242.551804 395.367462,235.893600 403.913879,229.624359 
	C415.926910,220.812195 428.061493,212.165878 440.128906,203.427643 
	C446.023682,199.159164 451.867645,194.820526 457.763641,190.553741 
	C468.199799,183.001282 478.708954,175.548691 489.093445,167.926086 
	C500.267365,159.723999 511.237610,151.242157 522.477051,143.132233 
	C531.070496,136.931549 539.958557,131.140015 548.682495,125.118591 
	C550.450745,123.898087 552.032959,122.411545 553.765808,121.135628 
	C562.258362,114.882378 570.766479,108.650124 579.281128,102.426857 
	C593.126892,92.307137 607.012146,82.241341 620.824829,72.076721 
	C635.905518,60.978939 650.843323,49.685574 665.990967,38.680485 
	C679.661621,28.748362 693.591064,19.172489 707.265259,9.244984 
	C710.132812,7.163085 712.383606,4.231658 714.959351,1.345841 
	C716.982666,1.000000 718.965393,1.000000 721.000000,1.000000 
	C721.000000,15.687527 721.000000,30.375105 720.632751,45.537422 
	C713.669800,50.348560 706.914673,54.464058 700.519836,59.078796 
	C693.006836,64.500359 685.924927,70.517136 678.444580,75.986465 
	C665.632446,85.354179 652.608582,94.431816 639.762451,103.753708 
	C628.230469,112.121986 616.783875,120.609268 605.363159,129.129257 
	C595.695862,136.341232 586.234009,143.833191 576.469604,150.909225 
	C567.256165,157.585953 557.688904,163.772705 548.425415,170.382523 
	C541.969177,174.989243 535.857483,180.077713 529.419678,184.711639 
	C522.430298,189.742554 515.115662,194.324326 508.165985,199.407059 
	C494.401428,209.473846 480.894135,219.893829 467.083313,229.895523 
	C455.844025,238.034912 444.187988,245.598862 432.950195,253.740280 
	C418.488129,264.217590 404.301453,275.074158 389.915588,285.657898 
	C379.634277,293.221924 369.136353,300.493164 358.908722,308.127655 
	C355.023193,311.027985 351.623383,314.579010 348.002197,317.833496 
	C326.978790,317.881409 305.955383,317.929321 284.468536,317.905396 
z"/>
<path fill="#A3293E" opacity="1.000000" stroke="none" 
	d="
M1.000000,155.000000 
	C1.000000,103.728249 1.000000,52.456493 1.000000,1.000000 
	C71.020782,1.000000 141.041733,1.000000 211.490204,1.353706 
	C210.693512,3.203321 209.721603,5.049636 208.206009,6.140790 
	C193.475632,16.745886 178.594711,27.142044 163.874985,37.761719 
	C148.189087,49.078457 132.667786,60.623131 117.005936,71.973495 
	C103.878075,81.487450 90.621254,90.823311 77.477051,100.314903 
	C64.994057,109.329041 52.519226,118.356987 40.161564,127.541344 
	C31.038706,134.321564 22.222383,141.517120 13.039676,148.212448 
	C9.342362,150.908234 5.031582,152.762665 1.000000,155.000000 
z"/>
<path fill="#7B1A2B" opacity="1.000000" stroke="none" 
	d="
M459.531372,1.000006 
	C458.717743,2.639710 457.721619,4.666356 456.108795,5.859019 
	C440.649170,17.291296 425.121307,28.632401 409.540955,39.899944 
	C395.316956,50.186569 380.928467,60.246700 366.750885,70.596245 
	C352.459015,81.029182 338.431946,91.825485 324.114349,102.222298 
	C310.319366,112.239609 296.213562,121.828636 282.408325,131.832138 
	C270.741180,140.286316 259.385498,149.169342 247.754044,157.673996 
	C231.359573,169.661255 214.821442,181.451828 198.375931,193.369553 
	C185.902985,202.408417 173.476532,211.511459 161.033478,220.591522 
	C146.703201,231.048767 132.409363,241.556274 118.042175,251.962524 
	C96.171722,267.803436 74.227036,283.541901 52.375690,299.409027 
	C48.425629,302.277313 44.772652,305.554749 40.915886,309.017120 
	C30.277140,304.490173 22.105495,296.770264 15.283553,286.933838 
	C20.179874,282.575439 24.893803,278.693481 29.838661,275.132141 
	C41.916637,266.433441 54.137398,257.933197 66.231598,249.256760 
	C75.504265,242.604507 84.634262,235.753540 93.897606,229.088089 
	C101.141029,223.876083 108.612358,218.975204 115.768394,213.648560 
	C128.773285,203.968323 141.502884,193.916306 154.563400,184.313293 
	C168.036789,174.406723 181.819641,164.922211 195.369400,155.118011 
	C206.379715,147.151291 217.169632,138.879395 228.201752,130.943649 
	C235.720291,125.535324 243.648010,120.691078 251.108475,115.207794 
	C263.918335,105.792839 276.384033,95.908684 289.218048,86.527756 
	C305.110382,74.911385 321.302917,63.706409 337.234589,52.143032 
	C357.588959,37.369595 377.853851,22.471493 398.030365,7.456447 
	C400.127228,5.895998 401.364105,3.179899 403.000000,1.000008 
	C421.687561,1.000000 440.375122,1.000000 459.531372,1.000006 
z"/>
<path fill="#811C2E" opacity="1.000000" stroke="none" 
	d="
M402.531372,1.000008 
	C401.364105,3.179899 400.127228,5.895998 398.030365,7.456447 
	C377.853851,22.471493 357.588959,37.369595 337.234589,52.143032 
	C321.302917,63.706409 305.110382,74.911385 289.218048,86.527756 
	C276.384033,95.908684 263.918335,105.792839 251.108475,115.207794 
	C243.648010,120.691078 235.720291,125.535324 228.201752,130.943649 
	C217.169632,138.879395 206.379715,147.151291 195.369400,155.118011 
	C181.819641,164.922211 168.036789,174.406723 154.563400,184.313293 
	C141.502884,193.916306 128.773285,203.968323 115.768394,213.648560 
	C108.612358,218.975204 101.141029,223.876083 93.897606,229.088089 
	C84.634262,235.753540 75.504265,242.604507 66.231598,249.256760 
	C54.137398,257.933197 41.916637,266.433441 29.838661,275.132141 
	C24.893803,278.693481 20.179874,282.575439 15.205570,286.601196 
	C7.320308,277.411896 3.748283,266.218750 1.330285,254.206818 
	C1.000000,253.555557 1.000000,253.111099 1.365069,252.327286 
	C2.511826,251.755005 3.435396,251.715164 4.054067,251.260452 
	C14.317339,243.717300 24.528864,236.103821 34.779022,228.542740 
	C50.904888,216.647415 67.027153,204.746948 83.197250,192.911942 
	C93.235100,185.565186 103.384682,178.371246 113.435570,171.042160 
	C122.243149,164.619659 130.947906,158.056046 139.763000,151.644028 
	C148.055801,145.611938 156.469360,139.745865 164.762863,133.714737 
	C171.858032,128.555069 178.791809,123.172318 185.916962,118.055305 
	C195.457855,111.203392 205.207458,104.639877 214.689728,97.709358 
	C221.375626,92.822701 227.634583,87.352356 234.314987,82.457649 
	C249.535568,71.305603 264.872162,60.311127 280.209534,49.319481 
	C299.594147,35.427372 319.070343,21.662397 338.379608,7.666769 
	C340.663788,6.011151 342.146027,3.249145 344.000000,1.000006 
	C363.354218,1.000000 382.708466,1.000000 402.531372,1.000008 
z"/>
<path fill="#EFEFEF" opacity="1.000000" stroke="none" 
	d="
M0.999997,862.468628 
	C4.505044,860.567505 8.181435,859.449707 11.486478,857.650024 
	C28.979965,848.123840 46.353081,838.376343 63.870510,828.895142 
	C65.101364,828.228943 67.414139,828.603027 68.792725,829.320984 
	C79.234573,834.759644 89.584373,840.376160 99.933029,845.992249 
	C118.705368,856.179504 137.417252,866.479004 156.236191,876.579163 
	C164.193207,880.849670 164.648376,881.496765 164.010452,890.494690 
	C163.518143,897.438293 163.281372,904.401367 163.009247,911.358948 
	C162.314606,929.118774 161.610214,946.878662 161.044052,964.642761 
	C160.940979,967.876953 159.641541,969.253479 156.500656,968.994568 
	C144.832474,968.033020 133.217896,968.885010 122.384453,961.593811 
	C112.289436,954.799622 100.384903,950.736023 89.449013,945.134460 
	C82.233917,941.438721 75.408058,936.985107 68.208893,933.254944 
	C66.656113,932.450439 64.000336,932.733459 62.285748,933.493164 
	C58.352028,935.235962 54.494511,937.303162 50.946808,939.735596 
	C41.242718,946.389099 30.845055,948.436157 19.217052,946.398804 
	C13.602547,945.415039 7.698994,946.080994 1.463156,946.000000 
	C1.000000,918.312439 1.000000,890.624878 0.999997,862.468628 
z"/>
<path fill="#8D2133" opacity="1.000000" stroke="none" 
	d="
M343.531342,1.000006 
	C342.146027,3.249145 340.663788,6.011151 338.379608,7.666769 
	C319.070343,21.662397 299.594147,35.427372 280.209534,49.319481 
	C264.872162,60.311127 249.535568,71.305603 234.314987,82.457649 
	C227.634583,87.352356 221.375626,92.822701 214.689728,97.709358 
	C205.207458,104.639877 195.457855,111.203392 185.916962,118.055305 
	C178.791809,123.172318 171.858032,128.555069 164.762863,133.714737 
	C156.469360,139.745865 148.055801,145.611938 139.763000,151.644028 
	C130.947906,158.056046 122.243149,164.619659 113.435570,171.042160 
	C103.384682,178.371246 93.235100,185.565186 83.197250,192.911942 
	C67.027153,204.746948 50.904888,216.647415 34.779022,228.542740 
	C24.528864,236.103821 14.317339,243.717300 4.054067,251.260452 
	C3.435396,251.715164 2.511826,251.755005 1.365069,251.993958 
	C1.000000,236.645767 1.000000,221.291550 1.368629,205.462463 
	C8.202538,200.754318 14.778711,196.679474 21.107401,192.250961 
	C30.877417,185.414413 40.526329,178.401566 50.139229,171.344467 
	C64.548355,160.766327 78.813782,149.991592 93.269508,139.478104 
	C104.227867,131.508209 115.474098,123.934181 126.433731,115.965996 
	C137.546722,107.886322 148.404129,99.455803 159.486725,91.333458 
	C169.638611,83.893234 179.972092,76.701317 190.170578,69.323997 
	C203.862411,59.419670 217.454254,49.376686 231.175995,39.514240 
	C245.575516,29.164637 260.138794,19.041941 274.483459,8.617702 
	C277.330627,6.548648 279.511749,3.562979 282.000000,1.000000 
	C302.354218,1.000000 322.708466,1.000000 343.531342,1.000006 
z"/>
<path fill="#460612" opacity="1.000000" stroke="none" 
	d="
M348.465576,317.907104 
	C351.623383,314.579010 355.023193,311.027985 358.908722,308.127655 
	C369.136353,300.493164 379.634277,293.221924 389.915588,285.657898 
	C404.301453,275.074158 418.488129,264.217590 432.950195,253.740280 
	C444.187988,245.598862 455.844025,238.034912 467.083313,229.895523 
	C480.894135,219.893829 494.401428,209.473846 508.165985,199.407059 
	C515.115662,194.324326 522.430298,189.742554 529.419678,184.711639 
	C535.857483,180.077713 541.969177,174.989243 548.425415,170.382523 
	C557.688904,163.772705 567.256165,157.585953 576.469604,150.909225 
	C586.234009,143.833191 595.695862,136.341232 605.363159,129.129257 
	C616.783875,120.609268 628.230469,112.121986 639.762451,103.753708 
	C652.608582,94.431816 665.632446,85.354179 678.444580,75.986465 
	C685.924927,70.517136 693.006836,64.500359 700.519836,59.078796 
	C706.914673,54.464058 713.669800,50.348560 720.632751,46.006081 
	C721.000000,58.020893 721.000000,70.041786 720.648560,82.573669 
	C708.430786,91.648361 696.550964,100.193481 684.703308,108.782936 
	C677.870728,113.736481 671.117615,118.799606 664.278809,123.744324 
	C656.679077,129.239151 648.991943,134.613358 641.401611,140.120911 
	C636.443054,143.718857 631.635071,147.524307 626.679382,151.126358 
	C610.613770,162.803589 594.499329,174.413651 578.428345,186.083542 
	C571.740967,190.939575 565.144409,195.920822 558.455750,200.775055 
	C548.033020,208.339203 537.518311,215.777405 527.137390,223.398087 
	C520.873718,227.996262 514.947327,233.065002 508.581757,237.510361 
	C501.600342,242.385727 494.033569,246.440704 487.177704,251.474045 
	C476.011841,259.671600 465.312683,268.502411 454.219940,276.803131 
	C449.346191,280.450165 443.826508,283.226074 438.885986,286.793396 
	C429.505249,293.566772 420.235107,300.503204 411.114349,307.622162 
	C407.160980,310.707855 403.691620,314.413605 400.002411,317.837708 
	C382.977936,317.885406 365.953461,317.933075 348.465576,317.907104 
z"/>
<path fill="#922336" opacity="1.000000" stroke="none" 
	d="
M281.531342,1.000000 
	C279.511749,3.562979 277.330627,6.548648 274.483459,8.617702 
	C260.138794,19.041941 245.575516,29.164637 231.175995,39.514240 
	C217.454254,49.376686 203.862411,59.419670 190.170578,69.323997 
	C179.972092,76.701317 169.638611,83.893234 159.486725,91.333458 
	C148.404129,99.455803 137.546722,107.886322 126.433731,115.965996 
	C115.474098,123.934181 104.227867,131.508209 93.269508,139.478104 
	C78.813782,149.991592 64.548355,160.766327 50.139229,171.344467 
	C40.526329,178.401566 30.877417,185.414413 21.107401,192.250961 
	C14.778711,196.679474 8.202538,200.754318 1.368629,204.993805 
	C1.000000,188.645767 1.000000,172.291550 1.000000,155.468658 
	C5.031582,152.762665 9.342362,150.908234 13.039676,148.212448 
	C22.222383,141.517120 31.038706,134.321564 40.161564,127.541344 
	C52.519226,118.356987 64.994057,109.329041 77.477051,100.314903 
	C90.621254,90.823311 103.878075,81.487450 117.005936,71.973495 
	C132.667786,60.623131 148.189087,49.078457 163.874985,37.761719 
	C178.594711,27.142044 193.475632,16.745886 208.206009,6.140790 
	C209.721603,5.049636 210.693512,3.203321 211.958862,1.353706 
	C235.020889,1.000000 258.041779,1.000000 281.531342,1.000000 
z"/>
<path fill="#400510" opacity="1.000000" stroke="none" 
	d="
M400.465637,317.912292 
	C403.691620,314.413605 407.160980,310.707855 411.114349,307.622162 
	C420.235107,300.503204 429.505249,293.566772 438.885986,286.793396 
	C443.826508,283.226074 449.346191,280.450165 454.219940,276.803131 
	C465.312683,268.502411 476.011841,259.671600 487.177704,251.474045 
	C494.033569,246.440704 501.600342,242.385727 508.581757,237.510361 
	C514.947327,233.065002 520.873718,227.996262 527.137390,223.398087 
	C537.518311,215.777405 548.033020,208.339203 558.455750,200.775055 
	C565.144409,195.920822 571.740967,190.939575 578.428345,186.083542 
	C594.499329,174.413651 610.613770,162.803589 626.679382,151.126358 
	C631.635071,147.524307 636.443054,143.718857 641.401611,140.120911 
	C648.991943,134.613358 656.679077,129.239151 664.278809,123.744324 
	C671.117615,118.799606 677.870728,113.736481 684.703308,108.782936 
	C696.550964,100.193481 708.430786,91.648361 720.648560,83.042328 
	C721.000000,96.354225 721.000000,109.708458 721.000000,123.531334 
	C718.514526,124.985779 715.790283,125.602295 713.588013,127.026131 
	C706.784729,131.424545 700.031616,135.930313 693.529114,140.758102 
	C678.704712,151.764374 664.172058,163.166229 649.273865,174.069824 
	C635.285950,184.307251 620.849304,193.931534 606.859253,204.166183 
	C596.871704,211.472748 587.309082,219.359100 577.522949,226.943054 
	C576.098206,228.047180 574.451599,228.859940 572.966003,229.891586 
	C570.189148,231.819977 567.426270,233.771500 564.717407,235.793533 
	C563.657776,236.584518 562.886353,237.806152 561.768311,238.467590 
	C543.845886,249.070099 527.661682,262.113617 510.986420,274.471313 
	C503.400940,280.092773 495.590485,285.410614 488.002625,291.028931 
	C476.326050,299.674683 464.753326,308.460663 453.070435,317.509949 
	C435.645844,317.884094 418.287354,317.935486 400.465637,317.912292 
z"/>
<path fill="#E9E9E9" opacity="1.000000" stroke="none" 
	d="
M612.922485,318.497650 
	C619.018250,318.120300 625.043152,318.072662 631.583069,318.429535 
	C634.692444,320.782562 637.286743,322.731049 640.603943,325.222595 
	C634.471802,328.587555 636.778259,330.531342 639.164062,332.510773 
	C640.825073,333.888885 642.432617,335.331573 644.064026,336.745422 
	C643.882263,337.214355 643.700439,337.683319 643.518616,338.152252 
	C640.655334,338.569031 637.791992,338.985840 634.588257,339.452179 
	C635.061340,342.864685 634.168518,344.757965 630.041687,343.326141 
	C628.676025,342.852325 626.616211,343.348114 625.251160,344.092590 
	C620.756531,346.543854 616.541809,346.585083 613.850220,343.891449 
	C610.033997,345.658630 607.330933,346.910339 604.618652,348.166290 
	C604.972717,349.396057 605.393066,350.856232 605.604126,351.589539 
	C597.211670,353.554504 589.284790,355.410461 580.593140,357.445465 
	C582.996765,361.782623 587.729919,366.226593 578.887573,367.981354 
	C583.614075,371.420959 587.502441,374.859131 591.921692,377.358521 
	C608.815613,386.913330 625.853394,396.216034 642.932983,405.435883 
	C644.283508,406.164886 646.681763,406.149139 648.060547,405.441620 
	C659.588257,399.526184 670.892334,393.166962 682.511536,387.444366 
	C684.960327,386.238281 689.221008,385.886902 691.274536,387.233795 
	C697.332947,391.207489 702.577881,396.396149 708.386108,400.785217 
	C712.379578,403.802917 716.780945,406.280823 721.000000,409.000000 
	C721.000000,430.687561 721.000000,452.375122 721.000000,474.531342 
	C715.820190,471.037567 710.564636,467.169342 705.483276,463.084503 
	C700.976929,459.461914 696.772644,455.461609 692.242554,451.870941 
	C683.606873,445.026245 674.735413,438.477325 666.148743,431.573151 
	C658.985779,425.813721 652.073853,419.740845 645.083923,413.767944 
	C642.454651,411.521179 637.456116,412.436035 633.156860,415.252380 
	C627.772888,418.779297 622.096985,421.875458 616.453552,424.987885 
	C607.794983,429.763214 599.138733,434.555695 590.323120,439.028809 
	C584.448364,442.009735 578.210205,444.269012 572.296204,447.179504 
	C566.491211,450.036346 560.903320,453.332123 555.192078,456.382782 
	C553.489990,457.291962 551.693420,458.024323 549.280518,459.143707 
	C549.161682,456.805176 549.010925,455.213928 549.010254,453.622589 
	C548.996399,422.142334 549.070923,390.661682 548.909729,359.182251 
	C548.889648,355.255768 550.259949,353.356903 553.667969,351.547119 
	C573.030090,341.264984 592.237244,330.691010 611.482056,320.188812 
	C612.024597,319.892731 612.398804,319.288116 612.922485,318.497650 
z"/>
<path fill="#E3E3E3" opacity="1.000000" stroke="none" 
	d="
M721.000000,408.531342 
	C716.780945,406.280823 712.379578,403.802917 708.386108,400.785217 
	C702.577881,396.396149 697.332947,391.207489 691.274536,387.233795 
	C689.221008,385.886902 684.960327,386.238281 682.511536,387.444366 
	C670.892334,393.166962 659.588257,399.526184 648.060547,405.441620 
	C646.681763,406.149139 644.283508,406.164886 642.932983,405.435883 
	C625.853394,396.216034 608.815613,386.913330 591.921692,377.358521 
	C587.502441,374.859131 583.614075,371.420959 578.887573,367.981354 
	C587.729919,366.226593 582.996765,361.782623 580.593140,357.445465 
	C589.284790,355.410461 597.211670,353.554504 605.604126,351.589539 
	C605.393066,350.856232 604.972717,349.396057 604.618652,348.166290 
	C607.330933,346.910339 610.033997,345.658630 613.850220,343.891449 
	C616.541809,346.585083 620.756531,346.543854 625.251160,344.092590 
	C626.616211,343.348114 628.676025,342.852325 630.041687,343.326141 
	C634.168518,344.757965 635.061340,342.864685 634.588257,339.452179 
	C637.791992,338.985840 640.655334,338.569031 643.518616,338.152252 
	C643.700439,337.683319 643.882263,337.214355 644.064026,336.745422 
	C642.432617,335.331573 640.825073,333.888885 639.164062,332.510773 
	C636.778259,330.531342 634.471802,328.587555 640.603943,325.222595 
	C637.286743,322.731049 634.692444,320.782562 632.046021,318.501617 
	C644.315369,317.825043 656.747314,318.700623 669.493347,314.968964 
	C677.338562,318.977173 684.398376,322.938904 691.553955,326.719482 
	C701.331116,331.885193 711.181152,336.913055 721.000000,342.000000 
	C721.000000,364.020905 721.000000,386.041779 721.000000,408.531342 
z"/>
<path fill="#EFEFEF" opacity="1.000000" stroke="none" 
	d="
M260.468658,1251.000000 
	C261.232574,1249.524414 262.228058,1247.708984 263.749390,1246.647095 
	C266.527771,1244.707520 269.617401,1243.213989 272.788025,1241.267334 
	C279.295319,1237.684692 285.625549,1234.431519 291.880768,1231.040039 
	C302.073730,1225.513550 312.217590,1219.896484 322.691101,1214.158813 
	C331.185577,1209.652588 339.505951,1205.537598 347.518005,1200.890869 
	C355.209778,1196.429932 355.720703,1196.617798 363.334076,1201.610229 
	C369.379272,1205.574341 376.205841,1208.327881 382.569275,1211.830078 
	C392.455200,1217.271240 402.156494,1223.051880 412.096893,1228.389160 
	C421.137634,1233.243530 430.391449,1237.701294 439.554840,1242.327148 
	C440.893036,1243.002686 442.506256,1243.364868 443.556915,1244.340820 
	C449.942413,1250.272339 455.672089,1247.776855 462.201141,1244.044678 
	C480.223785,1233.741943 498.599365,1224.057861 516.806213,1214.075928 
	C525.099670,1209.529053 533.307434,1204.826294 541.591064,1200.261230 
	C543.875000,1199.002441 546.291748,1197.984619 549.786072,1196.310913 
	C550.145081,1214.915161 550.595642,1232.500854 549.000000,1250.545898 
	C452.979095,1251.000000 356.958221,1251.000000 260.468658,1251.000000 
z"/>
<path fill="#E3E3E3" opacity="1.000000" stroke="none" 
	d="
M1.000003,1214.468628 
	C10.523554,1219.028198 20.086979,1223.982666 29.560432,1229.103516 
	C41.097916,1235.339966 52.500095,1241.830811 64.130981,1247.884888 
	C65.559013,1248.628174 68.297554,1247.847168 69.984444,1246.943237 
	C84.023552,1239.420288 97.955215,1231.697144 111.925514,1224.045654 
	C126.024117,1216.324097 140.123413,1208.603638 154.238190,1200.911499 
	C156.976852,1199.419189 159.788025,1198.059814 162.784531,1197.291992 
	C163.002197,1215.629883 163.001099,1233.314941 163.000000,1251.000000 
	C109.118950,1251.000000 55.237896,1251.000000 1.000000,1251.000000 
	C1.000000,1238.981445 1.000000,1226.959351 1.000003,1214.468628 
z"/>
<path fill="#EFEFEF" opacity="1.000000" stroke="none" 
	d="
M163.468658,1251.000000 
	C163.001099,1233.314941 163.002197,1215.629883 163.001648,1197.477295 
	C171.525345,1201.458008 180.103378,1205.808594 188.564026,1210.376587 
	C202.016525,1217.640015 215.377487,1225.072510 228.802750,1232.386597 
	C237.710205,1237.239258 246.692307,1241.956055 255.562134,1246.875854 
	C256.902924,1247.619629 257.813843,1249.138428 258.961792,1250.649414 
	C227.312439,1251.000000 195.624878,1251.000000 163.468658,1251.000000 
z"/>
<path fill="#E3E3E3" opacity="1.000000" stroke="none" 
	d="
M0.999998,1109.468628 
	C5.177675,1110.933228 9.461742,1112.667480 13.514208,1114.834839 
	C29.185110,1123.215942 44.796108,1131.709595 60.381893,1140.248169 
	C61.721737,1140.982178 62.942127,1142.218384 63.710808,1143.520752 
	C63.915577,1143.867676 62.423489,1145.663330 61.398640,1146.222534 
	C42.036453,1156.788696 22.628897,1167.271606 3.217946,1177.748047 
	C2.806060,1177.970459 2.242883,1177.912720 1.375133,1177.992798 
	C1.000000,1155.312378 1.000000,1132.624878 0.999998,1109.468628 
z"/>
<path fill="#E9E9E9" opacity="1.000000" stroke="none" 
	d="
M721.000000,341.531342 
	C711.181152,336.913055 701.331116,331.885193 691.553955,326.719482 
	C684.398376,322.938904 677.338562,318.977173 669.876099,314.963318 
	C681.240906,310.278839 691.957336,304.196381 700.690918,294.912994 
	C711.262634,283.675690 717.497009,270.350952 720.646606,255.147980 
	C721.000000,283.687561 721.000000,312.375122 721.000000,341.531342 
z"/>
<path fill="#E9E9E9" opacity="1.000000" stroke="none" 
	d="
M487.048676,318.507019 
	C506.689362,318.117554 526.384705,318.066742 546.543274,318.094971 
	C547.006470,328.867859 547.006470,339.561798 547.006470,351.481293 
	C543.495483,350.060822 539.806335,348.960266 536.496155,347.162231 
	C520.911621,338.696960 505.422058,330.056580 489.932617,321.417664 
	C488.848572,320.813080 488.040009,319.714569 487.048676,318.507019 
z"/>
<path fill="#E3E3E3" opacity="1.000000" stroke="none" 
	d="
M438.043640,1136.006348 
	C423.280914,1127.962036 408.883667,1120.015747 394.406464,1112.217773 
	C382.416687,1105.759766 370.228760,1099.659180 358.399963,1092.923706 
	C356.585815,1091.890747 355.630005,1088.348145 355.382996,1085.856567 
	C355.151520,1083.521973 356.640045,1081.071899 356.928375,1078.620361 
	C357.725861,1071.840576 361.912506,1069.203003 366.714233,1073.886475 
	C372.789734,1079.812134 377.163727,1077.365967 382.995514,1074.305664 
	C391.644684,1069.766968 400.702148,1065.964478 409.762085,1062.282227 
	C411.842102,1061.436768 414.646667,1062.274048 417.101288,1062.509155 
	C417.870850,1062.583008 418.586945,1063.552368 419.326599,1063.551270 
	C432.890076,1063.530151 440.170349,1075.478516 451.160614,1080.473511 
	C455.488586,1082.440674 459.015808,1085.755615 464.232117,1085.044434 
	C465.004791,1084.939087 465.932770,1085.141113 466.637817,1085.498779 
	C474.295288,1089.382935 481.658722,1094.024536 489.638489,1097.041382 
	C496.497925,1099.634888 503.226532,1101.923340 508.878326,1106.839722 
	C511.366058,1109.003784 511.669525,1110.435059 508.792511,1112.089111 
	C497.881226,1118.362061 486.980225,1124.654053 476.009949,1130.822632 
	C469.353302,1134.565674 462.659180,1138.264893 455.796661,1141.603149 
	C454.038879,1142.458130 451.330292,1142.515991 449.492889,1141.809814 
	C445.634064,1140.326782 442.063446,1138.093750 438.043640,1136.006348 
z"/>
<path fill="#E3E3E3" opacity="1.000000" stroke="none" 
	d="
M274.561035,992.321533 
	C280.441742,994.048218 286.056122,995.529602 291.707642,996.852478 
	C295.269501,997.686157 298.902618,998.211670 302.474487,999.007019 
	C305.487030,999.677795 308.465149,1000.509827 311.443451,1001.325500 
	C313.153259,1001.793884 314.833130,1002.371643 318.062408,1003.379456 
	C315.315582,1006.020996 313.625977,1008.446533 311.305878,1009.747925 
	C295.385193,1018.678162 279.278748,1027.277466 263.371643,1036.231323 
	C260.493286,1037.851562 258.342468,1037.852661 255.577164,1036.333374 
	C236.080856,1025.622437 216.524292,1015.021240 196.989090,1004.381104 
	C186.824463,998.844727 176.666748,993.295532 166.500748,987.761658 
	C162.269440,985.458252 162.528320,983.769592 164.488968,979.498535 
	C166.880264,974.289490 169.842392,973.325500 175.004028,974.785645 
	C177.160355,975.395691 179.968063,974.500732 182.260849,973.679443 
	C188.794708,971.338867 195.243851,968.752136 201.669861,966.124146 
	C204.786484,964.849609 207.024124,964.790405 210.170563,967.167236 
	C216.733109,972.124634 223.772339,976.567200 232.511276,977.239624 
	C234.744308,977.411499 236.816711,979.413391 239.006393,980.485596 
	C240.854462,981.390564 242.958664,983.143188 244.612320,982.816101 
	C249.496353,981.850037 253.458374,983.086182 256.769989,986.431641 
	C260.808380,990.511292 266.248657,989.668213 271.077118,990.974976 
	C272.168274,991.270203 273.233307,991.661926 274.561035,992.321533 
z"/>
<path fill="#EFEFEF" opacity="1.000000" stroke="none" 
	d="
M573.403625,1212.107422 
	C574.473572,1211.947510 575.669250,1211.835693 576.539062,1212.315063 
	C584.800964,1216.868896 593.015625,1221.508789 601.213562,1226.177124 
	C601.827209,1226.526733 602.206848,1227.287109 602.695312,1227.856445 
	C602.541016,1228.355103 602.386780,1228.853760 602.232544,1229.352539 
	C598.391479,1228.606934 593.854431,1228.903320 590.854309,1226.899048 
	C584.598572,1222.720093 579.155212,1217.325073 573.403625,1212.107422 
z"/>
</svg>