<?xml version="1.0" encoding="UTF-8"?>
<!DOCTYPE svg PUBLIC "-//W3C//DTD SVG 1.1//EN" "http://www.w3.org/Graphics/SVG/1.1/DTD/svg11.dtd">
<svg xmlns="http://www.w3.org/2000/svg" version="1.1" width="512px" height="512px" style="shape-rendering:geometricPrecision; text-rendering:geometricPrecision; image-rendering:optimizeQuality; fill-rule:evenodd; clip-rule:evenodd" xmlns:xlink="http://www.w3.org/1999/xlink">
<g><path style="opacity:0.997" fill="#e14c4b" d="M 233.5,-0.5 C 248.167,-0.5 262.833,-0.5 277.5,-0.5C 329.378,4.61239 375.711,23.2791 416.5,55.5C 472.375,131.127 485.542,213.794 456,303.5C 424.708,382.126 368.875,434.626 288.5,461C 219.18,480.354 152.847,473.02 89.5,439C 77.938,431.728 66.6047,424.228 55.5,416.5C 23.2791,375.711 4.61239,329.378 -0.5,277.5C -0.5,262.833 -0.5,248.167 -0.5,233.5C 11.9821,133.195 63.9821,61.6947 155.5,19C 180.687,8.70332 206.687,2.20332 233.5,-0.5 Z"/></g>
<g><path style="opacity:0.993" fill="#d1403f" d="M 416.5,55.5 C 472.811,101.443 504.477,160.777 511.5,233.5C 511.5,248.167 511.5,262.833 511.5,277.5C 499.018,377.805 447.018,449.305 355.5,492C 330.313,502.297 304.313,508.797 277.5,511.5C 262.833,511.5 248.167,511.5 233.5,511.5C 160.777,504.477 101.443,472.811 55.5,416.5C 66.6047,424.228 77.938,431.728 89.5,439C 152.847,473.02 219.18,480.354 288.5,461C 368.875,434.626 424.708,382.126 456,303.5C 485.542,213.794 472.375,131.127 416.5,55.5 Z"/></g>
<g><path style="opacity:1" fill="#fefdfd" d="M 150.5,131.5 C 159.068,130.523 166.735,132.69 173.5,138C 200.68,165.347 228.014,192.514 255.5,219.5C 284.014,191.152 312.681,162.986 341.5,135C 354.314,128.72 365.48,130.887 375,141.5C 381.441,152.638 380.775,163.304 373,173.5C 345.653,200.68 318.486,228.014 291.5,255.5C 319.848,284.014 348.014,312.681 376,341.5C 382.28,354.314 380.113,365.48 369.5,375C 360.335,380.542 351.001,380.876 341.5,376C 312.681,348.014 284.014,319.848 255.5,291.5C 228.014,318.486 200.68,345.653 173.5,373C 159.996,382.591 147.496,381.424 136,369.5C 130.458,360.335 130.124,351.001 135,341.5C 162.986,312.681 191.152,284.014 219.5,255.5C 192.514,228.014 165.347,200.68 138,173.5C 126.525,154.762 130.692,140.762 150.5,131.5 Z"/></g>
</svg>
