<?xml version="1.0" encoding="UTF-8"?>
<!DOCTYPE svg PUBLIC "-//W3C//DTD SVG 1.1//EN" "http://www.w3.org/Graphics/SVG/1.1/DTD/svg11.dtd">
<svg xmlns="http://www.w3.org/2000/svg" version="1.1" width="64px" height="64px" style="shape-rendering:geometricPrecision; text-rendering:geometricPrecision; image-rendering:optimizeQuality; fill-rule:evenodd; clip-rule:evenodd" xmlns:xlink="http://www.w3.org/1999/xlink">
<g><path style="opacity:0.961" fill="#ff8800" d="M 23.5,-0.5 C 28.8333,-0.5 34.1667,-0.5 39.5,-0.5C 51.8333,3.16667 59.8333,11.1667 63.5,23.5C 63.5,28.8333 63.5,34.1667 63.5,39.5C 59.8333,51.8333 51.8333,59.8333 39.5,63.5C 34.1667,63.5 28.8333,63.5 23.5,63.5C 11.1667,59.8333 3.16667,51.8333 -0.5,39.5C -0.5,34.1667 -0.5,28.8333 -0.5,23.5C 3.16667,11.1667 11.1667,3.16667 23.5,-0.5 Z M 36.5,15.5 C 33.1667,15.5 29.8333,15.5 26.5,15.5C 29.8333,12.8333 33.1667,12.8333 36.5,15.5 Z M 21.5,19.5 C 21.3404,21.153 20.6737,22.4863 19.5,23.5C 19.2291,21.6203 19.8958,20.287 21.5,19.5 Z M 41.5,19.5 C 43.1042,20.287 43.7709,21.6203 43.5,23.5C 42.3263,22.4863 41.6596,21.153 41.5,19.5 Z M 34.5,26.5 C 32.5,19.8333 30.5,19.8333 28.5,26.5C 26.8057,23.361 27.8057,21.361 31.5,20.5C 35.1943,21.361 36.1943,23.361 34.5,26.5 Z M 21.5,35.5 C 22.9063,35.9731 23.573,36.9731 23.5,38.5C 22.0937,38.0269 21.427,37.0269 21.5,35.5 Z M 41.5,35.5 C 41.573,37.0269 40.9063,38.0269 39.5,38.5C 39.427,36.9731 40.0937,35.9731 41.5,35.5 Z M 25.5,41.5 C 27.2624,42.2623 28.2624,43.5956 28.5,45.5C 26.7376,44.7377 25.7376,43.4044 25.5,41.5 Z M 37.5,41.5 C 37.2624,43.4044 36.2624,44.7377 34.5,45.5C 34.7376,43.5956 35.7376,42.2623 37.5,41.5 Z"/></g>
<g><path style="opacity:0.898" fill="#ff8800" d="M 26.5,15.5 C 29.8333,15.5 33.1667,15.5 36.5,15.5C 36.8417,16.3382 37.5084,16.6716 38.5,16.5C 38.5,17.1667 38.8333,17.5 39.5,17.5C 39.5,18.1667 39.8333,18.5 40.5,18.5C 40.5,19.1667 40.8333,19.5 41.5,19.5C 41.6596,21.153 42.3263,22.4863 43.5,23.5C 43.5,25.8333 43.5,28.1667 43.5,30.5C 42.596,31.209 42.2627,32.209 42.5,33.5C 41.6618,33.8417 41.3284,34.5084 41.5,35.5C 40.0937,35.9731 39.427,36.9731 39.5,38.5C 38.6618,38.8417 38.3284,39.5084 38.5,40.5C 37.8333,40.5 37.5,40.8333 37.5,41.5C 35.7376,42.2623 34.7376,43.5956 34.5,45.5C 33.8333,45.5 33.5,45.8333 33.5,46.5C 32.8333,46.5 32.5,46.8333 32.5,47.5C 31.8333,47.5 31.1667,47.5 30.5,47.5C 30.5,46.8333 30.1667,46.5 29.5,46.5C 29.5,45.8333 29.1667,45.5 28.5,45.5C 28.2624,43.5956 27.2624,42.2623 25.5,41.5C 25.5,40.8333 25.1667,40.5 24.5,40.5C 24.6716,39.5084 24.3382,38.8417 23.5,38.5C 23.573,36.9731 22.9063,35.9731 21.5,35.5C 21.6716,34.5084 21.3382,33.8417 20.5,33.5C 20.7373,32.209 20.404,31.209 19.5,30.5C 19.5,28.1667 19.5,25.8333 19.5,23.5C 20.6737,22.4863 21.3404,21.153 21.5,19.5C 22.1667,19.5 22.5,19.1667 22.5,18.5C 23.1667,18.5 23.5,18.1667 23.5,17.5C 24.1667,17.5 24.5,17.1667 24.5,16.5C 25.4916,16.6716 26.1583,16.3382 26.5,15.5 Z M 34.5,26.5 C 32.5,19.8333 30.5,19.8333 28.5,26.5C 26.8057,23.361 27.8057,21.361 31.5,20.5C 35.1943,21.361 36.1943,23.361 34.5,26.5 Z"/></g>
<g><path style="opacity:0.686" fill="#ff8a00" d="M 34.5,26.5 C 33.8333,26.5 33.5,26.8333 33.5,27.5C 32.1667,27.5 30.8333,27.5 29.5,27.5C 29.5,26.8333 29.1667,26.5 28.5,26.5C 30.5,19.8333 32.5,19.8333 34.5,26.5 Z"/></g>
</svg>
