<?xml version="1.0" encoding="UTF-8"?>
<!DOCTYPE svg PUBLIC "-//W3C//DTD SVG 1.1//EN" "http://www.w3.org/Graphics/SVG/1.1/DTD/svg11.dtd">
<svg xmlns="http://www.w3.org/2000/svg" version="1.1" width="72px" height="72px" style="shape-rendering:geometricPrecision; text-rendering:geometricPrecision; image-rendering:optimizeQuality; fill-rule:evenodd; clip-rule:evenodd" xmlns:xlink="http://www.w3.org/1999/xlink">
<g><path style="opacity:1" fill="#2b2b2b" d="M 63.5,1.5 C 64.1174,1.61071 64.6174,1.94404 65,2.5C 65.6667,24.1667 65.6667,45.8333 65,67.5C 64.5,68 64,68.5 63.5,69C 44.9954,69.8288 26.662,69.6621 8.5,68.5C 8.32842,67.5084 8.66175,66.8417 9.5,66.5C 13.5,66.5 17.5,66.5 21.5,66.5C 21.5,45.5 21.5,24.5 21.5,3.5C 17.6877,2.67618 13.6877,2.17618 9.5,2C 27.4969,1.50006 45.4969,1.33339 63.5,1.5 Z M 24.5,3.5 C 37.08,3.17786 49.58,3.51119 62,4.5C 62.5,25.164 62.6666,45.8306 62.5,66.5C 49.8333,66.5 37.1667,66.5 24.5,66.5C 24.5,45.5 24.5,24.5 24.5,3.5 Z M 42.5,14.5 C 46.8267,15.4804 48.3267,18.1471 47,22.5C 42.8571,25.6712 40.3571,24.6712 39.5,19.5C 39.3227,17.0321 40.3227,15.3654 42.5,14.5 Z M 40.5,31.5 C 43.7209,31.9819 47.0542,31.9819 50.5,31.5C 51.1667,32.8333 52.1667,33.8333 53.5,34.5C 53.5,35.5 53.5,36.5 53.5,37.5C 46.8333,37.5 40.1667,37.5 33.5,37.5C 33.373,32.6269 35.7064,30.6269 40.5,31.5 Z"/></g>
<g><path style="opacity:0.999" fill="#272727" d="M 7.5,3.5 C 8.45115,4.91866 8.78448,6.58533 8.5,8.5C 9.83333,8.5 11.1667,8.5 12.5,8.5C 13.0431,8.55999 13.3764,8.89333 13.5,9.5C 10.4391,10.8095 9.10577,13.1429 9.5,16.5C 10.2625,17.2679 11.2625,17.7679 12.5,18C 11.2625,18.2321 10.2625,18.7321 9.5,19.5C 9.10577,22.8571 10.4391,25.1905 13.5,26.5C 13.3764,27.1067 13.0431,27.44 12.5,27.5C 11.1667,27.5 9.83333,27.5 8.5,27.5C 8.5,29.8333 8.5,32.1667 8.5,34.5C 9.83333,34.5 11.1667,34.5 12.5,34.5C 13.0431,34.56 13.3764,34.8933 13.5,35.5C 12.3112,36.4287 10.9778,36.762 9.5,36.5C 9.5,38.5 9.5,40.5 9.5,42.5C 10.9778,42.238 12.3112,42.5713 13.5,43.5C 13.3764,44.1067 13.0431,44.44 12.5,44.5C 11.1667,44.5 9.83333,44.5 8.5,44.5C 8.5,46.8333 8.5,49.1667 8.5,51.5C 9.83333,51.5 11.1667,51.5 12.5,51.5C 13.0431,51.56 13.3764,51.8933 13.5,52.5C 10.4391,53.8095 9.10577,56.1429 9.5,59.5C 10.2625,60.2679 11.2625,60.7679 12.5,61C 11.2625,61.2321 10.2625,61.7321 9.5,62.5C 9.5,63.8333 9.5,65.1667 9.5,66.5C 8.66175,66.8417 8.32842,67.5084 8.5,68.5C 7.83333,68.5 7.5,68.1667 7.5,67.5C 7.5,65.5 7.5,63.5 7.5,61.5C 3.5,61.1667 3.5,60.8333 7.5,60.5C 7.5,58.1667 7.5,55.8333 7.5,53.5C 6.5,53.5 5.5,53.5 4.5,53.5C 4.82124,51.9519 5.82124,51.2852 7.5,51.5C 7.5,49.1667 7.5,46.8333 7.5,44.5C 3.5,44.1667 3.5,43.8333 7.5,43.5C 7.80155,40.9407 7.46822,38.6074 6.5,36.5C 5.83333,36.5 5.16667,36.5 4.5,36.5C 4.82124,34.9519 5.82124,34.2852 7.5,34.5C 7.5,32.1667 7.5,29.8333 7.5,27.5C 5.82124,27.7148 4.82124,27.0481 4.5,25.5C 4.83333,25.5 5.16667,25.5 5.5,25.5C 7.34351,23.7211 8.01017,21.3878 7.5,18.5C 3.5,18.1667 3.5,17.8333 7.5,17.5C 7.5,15.1667 7.5,12.8333 7.5,10.5C 6.5,10.5 5.5,10.5 4.5,10.5C 4.82124,8.95186 5.82124,8.28519 7.5,8.5C 7.5,6.83333 7.5,5.16667 7.5,3.5 Z"/></g>
<g><path style="opacity:0.875" fill="#7a7a7a" d="M 63.5,1.5 C 45.4969,1.33339 27.4969,1.50006 9.5,2C 13.6877,2.17618 17.6877,2.67618 21.5,3.5C 17.8183,3.3347 14.1516,3.50137 10.5,4C 9.66337,5.01127 9.33003,6.17793 9.5,7.5C 10.791,7.26269 11.791,7.59603 12.5,8.5C 11.1667,8.5 9.83333,8.5 8.5,8.5C 8.78448,6.58533 8.45115,4.91866 7.5,3.5C 7.5,3.16667 7.5,2.83333 7.5,2.5C 7.61071,1.88258 7.94404,1.38258 8.5,1C 27.0046,0.171234 45.338,0.337901 63.5,1.5 Z"/></g>
<g><path style="opacity:0.259" fill="#bdbdbd" d="M 23.5,3.5 C 23.8333,3.5 24.1667,3.5 24.5,3.5C 24.5,24.5 24.5,45.5 24.5,66.5C 37.1667,66.5 49.8333,66.5 62.5,66.5C 49.6774,67.4955 36.6774,67.8288 23.5,67.5C 23.5,46.1667 23.5,24.8333 23.5,3.5 Z"/></g>
<g><path style="opacity:0.579" fill="#676767" d="M 23.5,3.5 C 36.5688,2.17019 49.7354,2.17019 63,3.5C 63.8293,24.6707 63.6627,45.6707 62.5,66.5C 62.6666,45.8306 62.5,25.164 62,4.5C 49.58,3.51119 37.08,3.17786 24.5,3.5C 24.1667,3.5 23.8333,3.5 23.5,3.5 Z"/></g>
<g><path style="opacity:0.255" fill="#bfbfbf" d="M 7.5,2.5 C 7.5,2.83333 7.5,3.16667 7.5,3.5C 7.5,5.16667 7.5,6.83333 7.5,8.5C 5.82124,8.28519 4.82124,8.95186 4.5,10.5C 3.59603,9.79105 3.26269,8.79105 3.5,7.5C 4.5,7.5 5.5,7.5 6.5,7.5C 6.21552,5.58533 6.54885,3.91866 7.5,2.5 Z"/></g>
<g><path style="opacity:0.455" fill="#a4a4a4" d="M 4.5,10.5 C 5.5,10.5 6.5,10.5 7.5,10.5C 7.5,12.8333 7.5,15.1667 7.5,17.5C 3.5,17.8333 3.5,18.1667 7.5,18.5C 8.01017,21.3878 7.34351,23.7211 5.5,25.5C 6.34141,23.6208 6.67474,21.6208 6.5,19.5C 5.5,19.5 4.5,19.5 3.5,19.5C 3.5,18.5 3.5,17.5 3.5,16.5C 4.5,16.5 5.5,16.5 6.5,16.5C 6.74127,14.1137 6.0746,12.1137 4.5,10.5 Z"/></g>
<g><path style="opacity:0.129" fill="#b8b8b8" d="M 9.5,16.5 C 10.8333,16.5 12.1667,16.5 13.5,16.5C 13.5,17.5 13.5,18.5 13.5,19.5C 12.1667,19.5 10.8333,19.5 9.5,19.5C 10.2625,18.7321 11.2625,18.2321 12.5,18C 11.2625,17.7679 10.2625,17.2679 9.5,16.5 Z"/></g>
<g><path style="opacity:0.996" fill="#4f4f4f" d="M 46.5,27.5 C 44.5,27.5 42.5,27.5 40.5,27.5C 35.1882,23.7086 34.3549,19.0419 38,13.5C 42.5518,10.5424 46.5518,11.2091 50,15.5C 51.4066,20.3573 50.24,24.3573 46.5,27.5 Z M 42.5,14.5 C 40.3227,15.3654 39.3227,17.0321 39.5,19.5C 40.3571,24.6712 42.8571,25.6712 47,22.5C 48.3267,18.1471 46.8267,15.4804 42.5,14.5 Z"/></g>
<g><path style="opacity:0.712" fill="#747474" d="M 12.5,27.5 C 11.791,28.404 10.791,28.7373 9.5,28.5C 9.5,30.1667 9.5,31.8333 9.5,33.5C 10.791,33.2627 11.791,33.596 12.5,34.5C 11.1667,34.5 9.83333,34.5 8.5,34.5C 8.5,32.1667 8.5,29.8333 8.5,27.5C 9.83333,27.5 11.1667,27.5 12.5,27.5 Z"/></g>
<g><path style="opacity:0.263" fill="#b6b6b6" d="M 4.5,25.5 C 4.82124,27.0481 5.82124,27.7148 7.5,27.5C 7.5,29.8333 7.5,32.1667 7.5,34.5C 5.82124,34.2852 4.82124,34.9519 4.5,36.5C 3.59603,35.791 3.26269,34.791 3.5,33.5C 4.5,33.5 5.5,33.5 6.5,33.5C 6.5,31.8333 6.5,30.1667 6.5,28.5C 5.5,28.5 4.5,28.5 3.5,28.5C 3.26269,27.209 3.59603,26.209 4.5,25.5 Z"/></g>
<g><path style="opacity:0.996" fill="#4e4e4e" d="M 40.5,27.5 C 42.5,28.8333 44.5,28.8333 46.5,27.5C 48.7028,27.6036 50.7028,28.2702 52.5,29.5C 52.5,30.8333 51.8333,31.5 50.5,31.5C 47.0542,31.9819 43.7209,31.9819 40.5,31.5C 39.0484,30.6981 37.3817,30.1981 35.5,30C 36.056,29.6174 36.3893,29.1174 36.5,28.5C 37.7079,27.7659 39.0413,27.4326 40.5,27.5 Z"/></g>
<g><path style="opacity:0.831" fill="#6b6b6b" d="M 52.5,29.5 C 54.2624,30.2623 55.2624,31.5956 55.5,33.5C 54.0755,31.9689 53.4088,32.3023 53.5,34.5C 52.1667,33.8333 51.1667,32.8333 50.5,31.5C 51.8333,31.5 52.5,30.8333 52.5,29.5 Z"/></g>
<g><path style="opacity:1" fill="#0a0a0a" d="M 55.5,33.5 C 55.5,35.5 55.5,37.5 55.5,39.5C 47.5,39.5 39.5,39.5 31.5,39.5C 31.3379,37.4727 31.5045,35.4727 32,33.5C 32.4935,35.1341 32.6602,36.8008 32.5,38.5C 39.6866,38.8245 46.6866,38.4912 53.5,37.5C 53.5,36.5 53.5,35.5 53.5,34.5C 53.4088,32.3023 54.0755,31.9689 55.5,33.5 Z"/></g>
<g><path style="opacity:0.529" fill="#727272" d="M 36.5,28.5 C 36.3893,29.1174 36.056,29.6174 35.5,30C 37.3817,30.1981 39.0484,30.6981 40.5,31.5C 35.7064,30.6269 33.373,32.6269 33.5,37.5C 40.1667,37.5 46.8333,37.5 53.5,37.5C 46.6866,38.4912 39.6866,38.8245 32.5,38.5C 32.6602,36.8008 32.4935,35.1341 32,33.5C 31.5045,35.4727 31.3379,37.4727 31.5,39.5C 31.1667,39.5 30.8333,39.5 30.5,39.5C 29.1461,33.8831 31.1461,30.2164 36.5,28.5 Z"/></g>
<g><path style="opacity:0.423" fill="#979797" d="M 55.5,33.5 C 56.4682,35.6074 56.8016,37.9407 56.5,40.5C 47.6506,40.8264 38.9839,40.493 30.5,39.5C 30.8333,39.5 31.1667,39.5 31.5,39.5C 39.5,39.5 47.5,39.5 55.5,39.5C 55.5,37.5 55.5,35.5 55.5,33.5 Z"/></g>
<g><path style="opacity:0.259" fill="#a6a6a6" d="M 6.5,36.5 C 7.46822,38.6074 7.80155,40.9407 7.5,43.5C 3.5,43.8333 3.5,44.1667 7.5,44.5C 7.5,46.8333 7.5,49.1667 7.5,51.5C 5.82124,51.2852 4.82124,51.9519 4.5,53.5C 3.59603,52.791 3.26269,51.791 3.5,50.5C 4.5,50.5 5.5,50.5 6.5,50.5C 6.5,48.8333 6.5,47.1667 6.5,45.5C 5.5,45.5 4.5,45.5 3.5,45.5C 3.5,44.5 3.5,43.5 3.5,42.5C 4.5,42.5 5.5,42.5 6.5,42.5C 6.5,40.5 6.5,38.5 6.5,36.5 Z"/></g>
<g><path style="opacity:0.712" fill="#6d6d6d" d="M 12.5,44.5 C 11.791,45.404 10.791,45.7373 9.5,45.5C 9.5,47.1667 9.5,48.8333 9.5,50.5C 10.791,50.2627 11.791,50.596 12.5,51.5C 11.1667,51.5 9.83333,51.5 8.5,51.5C 8.5,49.1667 8.5,46.8333 8.5,44.5C 9.83333,44.5 11.1667,44.5 12.5,44.5 Z"/></g>
<g><path style="opacity:0.639" fill="#5e5e5e" d="M 26.5,46.5 C 37.5,46.5 48.5,46.5 59.5,46.5C 59.5,47.5 59.5,48.5 59.5,49.5C 48.8281,49.6665 38.1615,49.4998 27.5,49C 26.7476,48.3292 26.4142,47.4959 26.5,46.5 Z"/></g>
<g><path style="opacity:0.168" fill="#d0d0d0" d="M 27.5,55.5 C 37.9869,54.5056 48.6536,54.1722 59.5,54.5C 59.7373,55.791 59.404,56.791 58.5,57.5C 48.5541,55.5247 38.2208,54.8581 27.5,55.5 Z"/></g>
<g><path style="opacity:0.808" fill="#272727" d="M 27.5,55.5 C 38.2208,54.8581 48.5541,55.5247 58.5,57.5C 47.8126,57.832 37.1459,57.4987 26.5,56.5C 26.6236,55.8933 26.9569,55.56 27.5,55.5 Z"/></g>
<g><path style="opacity:0.455" fill="#a4a4a4" d="M 4.5,53.5 C 5.5,53.5 6.5,53.5 7.5,53.5C 7.5,55.8333 7.5,58.1667 7.5,60.5C 3.5,60.8333 3.5,61.1667 7.5,61.5C 7.5,63.5 7.5,65.5 7.5,67.5C 6.54885,66.0813 6.21552,64.4147 6.5,62.5C 5.5,62.5 4.5,62.5 3.5,62.5C 3.5,61.5 3.5,60.5 3.5,59.5C 4.5,59.5 5.5,59.5 6.5,59.5C 6.74127,57.1137 6.0746,55.1137 4.5,53.5 Z"/></g>
<g><path style="opacity:0.133" fill="#b8b8b8" d="M 9.5,59.5 C 10.8333,59.5 12.1667,59.5 13.5,59.5C 13.5,60.5 13.5,61.5 13.5,62.5C 12.1667,62.5 10.8333,62.5 9.5,62.5C 10.2625,61.7321 11.2625,61.2321 12.5,61C 11.2625,60.7679 10.2625,60.2679 9.5,59.5 Z"/></g>
</svg>
