<?xml version="1.0" encoding="UTF-8"?>
<!DOCTYPE svg PUBLIC "-//W3C//DTD SVG 1.1//EN" "http://www.w3.org/Graphics/SVG/1.1/DTD/svg11.dtd">
<svg xmlns="http://www.w3.org/2000/svg" version="1.1" width="512px" height="512px" style="shape-rendering:geometricPrecision; text-rendering:geometricPrecision; image-rendering:optimizeQuality; fill-rule:evenodd; clip-rule:evenodd" xmlns:xlink="http://www.w3.org/1999/xlink">
<g><path style="opacity:0.937" fill="#000000" d="M 243.5,-0.5 C 251.167,-0.5 258.833,-0.5 266.5,-0.5C 296.014,5.84424 315.181,23.5109 324,52.5C 325.984,65.0775 326.984,77.7442 327,90.5C 336.667,111.491 330.667,125.825 309,133.5C 306.432,146.402 300.099,157.068 290,165.5C 289.501,169.821 289.334,174.154 289.5,178.5C 314.602,187.256 339.269,197.089 363.5,208C 375.769,216.946 383.103,228.946 385.5,244C 384.008,250.418 380.008,252.751 373.5,251C 372.667,250.167 371.833,249.333 371,248.5C 368.457,236.564 362.29,227.064 352.5,220C 339.279,214.538 325.946,209.371 312.5,204.5C 311.833,204.833 311.167,205.167 310.5,205.5C 304.922,216.99 299.089,228.323 293,239.5C 287.997,243.952 282.497,244.619 276.5,241.5C 275.667,242.5 274.833,243.5 274,244.5C 275.99,261.764 277.824,279.097 279.5,296.5C 294.833,296.5 310.167,296.5 325.5,296.5C 325.333,284.162 325.5,271.829 326,259.5C 328.367,253.733 332.534,252.066 338.5,254.5C 339.333,255.5 340.167,256.5 341,257.5C 341.5,270.496 341.667,283.496 341.5,296.5C 350.833,296.5 360.167,296.5 369.5,296.5C 369.334,290.158 369.5,283.825 370,277.5C 372.274,271.408 376.441,269.574 382.5,272C 383.701,272.903 384.535,274.069 385,275.5C 385.667,284.833 385.667,294.167 385,303.5C 383.5,307.667 380.667,310.5 376.5,312C 295.833,312.667 215.167,312.667 134.5,312C 130.333,310.5 127.5,307.667 126,303.5C 125.333,282.833 125.333,262.167 126,241.5C 129.458,223.373 139.624,210.54 156.5,203C 178.086,194.528 199.752,186.362 221.5,178.5C 221.666,174.486 221.499,170.486 221,166.5C 209.963,157.779 202.963,146.446 200,132.5C 182.83,127.499 175.83,116.165 179,98.5C 180.08,96.0038 181.414,93.6705 183,91.5C 183.162,79.4637 183.829,67.4637 185,55.5C 193.34,24.9897 212.84,6.32306 243.5,-0.5 Z M 244.5,15.5 C 273.008,12.6647 293.508,23.998 306,49.5C 309.857,59.5006 311.19,69.8339 310,80.5C 309.556,77.3892 308.223,74.7225 306,72.5C 300.8,67.6347 295.967,62.4681 291.5,57C 286.349,54.0952 281.015,53.7619 275.5,56C 254.74,68.8578 232.074,74.8578 207.5,74C 204.063,75.1049 201.563,77.2716 200,80.5C 197.738,46.9565 212.572,25.2899 244.5,15.5 Z M 280.5,71.5 C 285.366,74.8526 289.866,78.8526 294,83.5C 294.885,99.5357 294.552,115.536 293,131.5C 283.3,157.6 265.133,166.433 238.5,158C 225.238,151.651 217.738,141.151 216,126.5C 215.5,114.171 215.333,101.838 215.5,89.5C 239.074,89.8601 260.74,83.8601 280.5,71.5 Z M 310.5,97.5 C 315.119,100.634 316.619,104.968 315,110.5C 314.363,112.303 313.197,113.636 311.5,114.5C 310.505,108.872 310.171,103.206 310.5,97.5 Z M 197.5,98.5 C 198.812,100.743 199.478,103.41 199.5,106.5C 199.049,116.669 197.049,116.669 193.5,106.5C 194.32,103.528 195.653,100.861 197.5,98.5 Z M 236.5,174.5 C 248.667,178.48 260.834,178.48 273,174.5C 273.79,177.634 273.457,180.634 272,183.5C 266.49,189.874 260.99,196.207 255.5,202.5C 249.175,195.338 243.008,188.005 237,180.5C 236.505,178.527 236.338,176.527 236.5,174.5 Z M 224.5,193.5 C 226.716,194.203 228.549,195.536 230,197.5C 234.31,203.311 238.81,208.977 243.5,214.5C 238.756,218.288 233.923,221.955 229,225.5C 224.5,216.5 220,207.5 215.5,198.5C 218.479,196.633 221.479,194.967 224.5,193.5 Z M 284.5,193.5 C 288.429,194.588 292.096,196.254 295.5,198.5C 291,207.5 286.5,216.5 282,225.5C 277.038,221.943 272.205,218.277 267.5,214.5C 272.935,207.286 278.602,200.286 284.5,193.5 Z M 198.5,203.5 C 205.226,215.279 211.726,227.279 218,239.5C 223.003,243.952 228.503,244.619 234.5,241.5C 235.5,242.833 236.5,244.167 237.5,245.5C 234.927,262.419 232.927,279.419 231.5,296.5C 216.167,296.5 200.833,296.5 185.5,296.5C 185.667,284.162 185.5,271.829 185,259.5C 182.633,253.733 178.466,252.066 172.5,254.5C 171.667,255.5 170.833,256.5 170,257.5C 169.5,270.496 169.333,283.496 169.5,296.5C 160.167,296.5 150.833,296.5 141.5,296.5C 141.333,278.83 141.5,261.164 142,243.5C 144.669,232.649 150.836,224.482 160.5,219C 173.369,214.057 186.036,208.89 198.5,203.5 Z M 254.5,226.5 C 257.66,227.583 260.327,229.416 262.5,232C 262.241,233.261 261.574,234.261 260.5,235C 255.469,236.305 251.135,235.305 247.5,232C 250.02,230.303 252.353,228.47 254.5,226.5 Z M 252.5,251.5 C 254.5,251.5 256.5,251.5 258.5,251.5C 260.249,266.491 261.915,281.491 263.5,296.5C 258.167,296.5 252.833,296.5 247.5,296.5C 249.085,281.491 250.751,266.491 252.5,251.5 Z"/></g>
<g><path style="opacity:0.925" fill="#000000" d="M 214.5,325.5 C 223.778,324.376 227.278,328.376 225,337.5C 203.119,371.43 181.619,405.597 160.5,440C 172.708,454.796 174.208,470.629 165,487.5C 150.453,504.398 133.287,507.564 113.5,497C 96.8204,482.431 93.6537,465.264 104,445.5C 115.534,432.101 129.868,427.101 147,430.5C 168.333,396.5 189.667,362.5 211,328.5C 212.145,327.364 213.312,326.364 214.5,325.5 Z M 128.5,446.5 C 143.754,444.756 152.754,451.423 155.5,466.5C 152.545,482.302 143.212,488.802 127.5,486C 115.216,479.93 111.383,470.43 116,457.5C 119.148,452.509 123.314,448.843 128.5,446.5 Z"/></g>
<g><path style="opacity:0.931" fill="#000000" d="M 263.5,511.5 C 258.167,511.5 252.833,511.5 247.5,511.5C 224.046,503.267 215.212,486.934 221,462.5C 225.533,450.469 234.033,442.802 246.5,439.5C 247.333,403.171 247.833,366.838 248,330.5C 250.435,325.776 254.269,324.276 259.5,326C 261.049,327.214 262.215,328.714 263,330.5C 263.167,366.838 263.667,403.171 264.5,439.5C 281.656,445.332 290.989,457.332 292.5,475.5C 290.852,494.132 281.185,506.132 263.5,511.5 Z M 251.5,454.5 C 265.992,454.238 274.325,461.238 276.5,475.5C 273.797,490.701 264.797,497.201 249.5,495C 237.429,490.024 232.929,481.19 236,468.5C 239.049,461.407 244.215,456.74 251.5,454.5 Z"/></g>
<g><path style="opacity:0.922" fill="#000000" d="M 289.5,325.5 C 292.93,325.107 296.096,325.773 299,327.5C 320.667,361.833 342.333,396.167 364,430.5C 381.132,427.101 395.466,432.101 407,445.5C 417.263,464.675 414.43,481.509 398.5,496C 389.323,498.492 385.489,494.992 387,485.5C 399.995,474.082 400.495,462.249 388.5,450C 370.984,442.333 359.984,447.833 355.5,466.5C 356.228,470.302 357.394,473.969 359,477.5C 364.707,481.488 367.04,486.821 366,493.5C 363.588,496.792 360.421,497.959 356.5,497C 340.893,485.175 336.393,470.008 343,451.5C 344.841,447.817 347.174,444.484 350,441.5C 350.667,440.5 350.667,439.5 350,438.5C 328.917,404.664 307.583,370.998 286,337.5C 284.593,332.556 285.759,328.556 289.5,325.5 Z"/></g>
</svg>
