<?xml version="1.0" encoding="UTF-8"?>
<!DOCTYPE svg PUBLIC "-//W3C//DTD SVG 1.1//EN" "http://www.w3.org/Graphics/SVG/1.1/DTD/svg11.dtd">
<svg xmlns="http://www.w3.org/2000/svg" version="1.1" width="64px" height="64px" style="shape-rendering:geometricPrecision; text-rendering:geometricPrecision; image-rendering:optimizeQuality; fill-rule:evenodd; clip-rule:evenodd" xmlns:xlink="http://www.w3.org/1999/xlink">
<g><path style="opacity:0.958" fill="#f79595" d="M 32.5,-0.5 C 33.8333,-0.5 35.1667,-0.5 36.5,-0.5C 37.355,0.530694 38.0217,1.69736 38.5,3C 37.1439,4.56708 36.4772,6.40041 36.5,8.5C 38.8268,8.66462 40.9935,9.33129 43,10.5C 43.9025,9.29857 45.0692,8.46524 46.5,8C 44.9372,5.52369 45.6038,4.02369 48.5,3.5C 52.11,4.4436 53.7767,6.77693 53.5,10.5C 50.1468,10.555 48.6468,12.2217 49,15.5C 50.3402,16.8678 51.6736,18.2011 53,19.5C 56.7307,15.1421 59.564,15.6421 61.5,21C 61.2409,22.2613 60.5742,23.2613 59.5,24C 57.925,23.621 56.425,23.7877 55,24.5C 54.3333,26.8333 54.3333,29.1667 55,31.5C 56.3333,32.1667 57.6667,32.8333 59,33.5C 60.049,31.8934 61.549,31.2267 63.5,31.5C 63.5,34.1667 63.5,36.8333 63.5,39.5C 60.7534,40.9749 58.5867,40.3082 57,37.5C 53.2108,37.9447 51.8775,39.9447 53,43.5C 55.4904,43.9893 57.3237,45.3227 58.5,47.5C 57.7303,49.2718 56.3969,50.2718 54.5,50.5C 52.4807,49.5196 50.6474,48.1862 49,46.5C 47.786,48.0488 46.286,49.2155 44.5,50C 43.4829,51.0495 43.3162,52.2161 44,53.5C 48.8004,56.3841 48.6337,58.8841 43.5,61C 39.6797,61.7948 38.3464,60.4615 39.5,57C 39.2409,55.7387 38.5742,54.7387 37.5,54C 35.5273,53.5045 33.5273,53.3379 31.5,53.5C 27.485,50.4836 24.1517,46.8169 21.5,42.5C 21.7709,40.6203 21.1042,39.287 19.5,38.5C 18.5701,34.6002 18.2367,30.6002 18.5,26.5C 26.4191,29.9476 30.2525,27.2809 30,18.5C 27.8646,16.7215 25.3646,16.0548 22.5,16.5C 22.0618,16.5654 21.7284,16.3988 21.5,16C 23.7208,12.958 26.0542,10.1246 28.5,7.5C 32.7751,7.41555 33.4418,5.91555 30.5,3C 30.9783,1.69736 31.645,0.530694 32.5,-0.5 Z"/></g>
<g><path style="opacity:1" fill="#f37e7d" d="M 21.5,-0.5 C 22.1667,-0.5 22.8333,-0.5 23.5,-0.5C 23.8311,2.86557 24.9978,5.86557 27,8.5C 27.3826,7.94404 27.8826,7.61071 28.5,7.5C 26.0542,10.1246 23.7208,12.958 21.5,16C 21.7284,16.3988 22.0618,16.5654 22.5,16.5C 18.3792,18.739 17.0458,22.0723 18.5,26.5C 18.2367,30.6002 18.5701,34.6002 19.5,38.5C 16.9236,38.7218 16.0902,40.0551 17,42.5C 18.4902,43.7279 19.9902,43.7279 21.5,42.5C 24.1517,46.8169 27.485,50.4836 31.5,53.5C 29.712,53.2148 28.0453,53.5481 26.5,54.5C 25.5934,57.4212 25.2601,60.4212 25.5,63.5C 24.1667,63.5 22.8333,63.5 21.5,63.5C 18.46,62.2658 17.1267,59.9324 17.5,56.5C 18.5,56.5 19.5,56.5 20.5,56.5C 20.7989,54.396 20.4656,52.396 19.5,50.5C 17.8333,49.1667 16.1667,47.8333 14.5,46.5C 11.915,47.7352 9.74829,49.4019 8,51.5C 4.92768,50.5527 3.92768,48.5527 5,45.5C 7.53176,44.9941 9.69842,43.8274 11.5,42C 10.4067,39.5567 9.40668,37.0567 8.5,34.5C 7.83333,34.1667 7.16667,33.8333 6.5,33.5C 4.42288,34.9371 2.08955,35.6038 -0.5,35.5C -0.5,32.5 -0.5,29.5 -0.5,26.5C 1.82733,26.2471 3.82733,26.9137 5.5,28.5C 6.7481,27.9598 7.91476,27.2931 9,26.5C 9.37474,23.9999 10.2081,21.6666 11.5,19.5C 9.23408,18.2837 7.23408,16.7837 5.5,15C 6.52005,12.1415 8.52005,10.6415 11.5,10.5C 11.147,12.6348 11.9803,13.9681 14,14.5C 16.1561,13.0149 18.3228,11.5149 20.5,10C 19.2809,7.67616 17.9476,5.5095 16.5,3.5C 17.6616,1.46156 19.3283,0.12823 21.5,-0.5 Z"/></g>
<g><path style="opacity:1" fill="#ee6363" d="M 22.5,16.5 C 25.3646,16.0548 27.8646,16.7215 30,18.5C 30.2525,27.2809 26.4191,29.9476 18.5,26.5C 17.0458,22.0723 18.3792,18.739 22.5,16.5 Z"/></g>
<g><path style="opacity:1" fill="#ef6767" d="M 40.5,16.5 C 44.0131,17.0282 45.0131,18.8615 43.5,22C 38.2894,22.5464 37.2894,20.713 40.5,16.5 Z"/></g>
<g><path style="opacity:1" fill="#f8adad" d="M 42.5,31.5 C 48.0047,34.1712 47.6713,35.8378 41.5,36.5C 41.366,34.7085 41.6993,33.0418 42.5,31.5 Z"/></g>
<g><path style="opacity:1" fill="#ee6464" d="M 28.5,32.5 C 33.4928,32.997 34.4928,35.1637 31.5,39C 26.3608,38.886 25.3608,36.7193 28.5,32.5 Z"/></g>
<g><path style="opacity:1" fill="#ee6363" d="M 19.5,38.5 C 21.1042,39.287 21.7709,40.6203 21.5,42.5C 19.9902,43.7279 18.4902,43.7279 17,42.5C 16.0902,40.0551 16.9236,38.7218 19.5,38.5 Z"/></g>
<g><path style="opacity:1" fill="#f8afaf" d="M 32.5,44.5 C 33.8333,44.5 35.1667,44.5 36.5,44.5C 36.5,45.8333 36.5,47.1667 36.5,48.5C 35.1667,48.5 33.8333,48.5 32.5,48.5C 32.5,47.1667 32.5,45.8333 32.5,44.5 Z"/></g>
</svg>
