<?xml version="1.0" encoding="UTF-8"?>
<!DOCTYPE svg PUBLIC "-//W3C//DTD SVG 1.1//EN" "http://www.w3.org/Graphics/SVG/1.1/DTD/svg11.dtd">
<svg xmlns="http://www.w3.org/2000/svg" version="1.1" width="64px" height="64px" style="shape-rendering:geometricPrecision; text-rendering:geometricPrecision; image-rendering:optimizeQuality; fill-rule:evenodd; clip-rule:evenodd" xmlns:xlink="http://www.w3.org/1999/xlink">
<g><path style="opacity:0.825" fill="#020003" d="M 14.5,-0.5 C 20.5,-0.5 26.5,-0.5 32.5,-0.5C 37.3473,0.517611 41.8473,2.51761 46,5.5C 47.507,11.3639 47.6737,17.1972 46.5,23C 54.5225,25.1973 60.1892,30.0306 63.5,37.5C 63.5,41.5 63.5,45.5 63.5,49.5C 61.0703,56.3856 56.4036,61.0522 49.5,63.5C 46.1667,63.5 42.8333,63.5 39.5,63.5C 35.8774,61.9321 32.3774,59.9321 29,57.5C 18.0719,59.352 8.2386,57.0187 -0.5,50.5C -0.5,35.8333 -0.5,21.1667 -0.5,6.5C 3.90166,2.81402 8.90166,0.48069 14.5,-0.5 Z M 19.5,3.5 C 24.5364,3.58776 29.5364,4.08776 34.5,5C 37.4138,5.13342 39.7471,6.30009 41.5,8.5C 38.7247,11.0445 35.3914,12.5445 31.5,13C 22.5448,14.2335 13.8781,13.2335 5.5,10C 4.28882,9.10723 4.28882,8.2739 5.5,7.5C 10.1112,5.52458 14.7779,4.19125 19.5,3.5 Z M 3.5,16.5 C 16.4757,21.8178 29.4757,21.8178 42.5,16.5C 43.4831,20.0292 42.1497,22.5292 38.5,24C 26.6184,28.5778 15.1184,27.7445 4,21.5C 3.50649,19.8659 3.33982,18.1992 3.5,16.5 Z M 3.5,29.5 C 10.821,32.5329 18.4877,34.1996 26.5,34.5C 25.2886,39.8325 21.9553,41.6658 16.5,40C 12.512,39.4242 8.84538,38.0909 5.5,36C 3.77099,34.2111 3.10433,32.0444 3.5,29.5 Z M 41.5,29.5 C 50.1747,29.2448 55.6747,33.2448 58,41.5C 57.6847,53.4735 51.518,58.6402 39.5,57C 30.6376,52.341 28.1376,45.5077 32,36.5C 34.529,33.1151 37.6956,30.7818 41.5,29.5 Z M 3.5,42.5 C 9.60628,45.5718 16.1063,47.2385 23,47.5C 24.7134,48.9544 25.8801,50.7877 26.5,53C 18.4998,54.5599 11.1665,53.0599 4.5,48.5C 3.65178,46.5914 3.31845,44.5914 3.5,42.5 Z"/></g>
<g><path style="opacity:0.82" fill="#030004" d="M 40.5,34.5 C 43.1667,34.5 45.8333,34.5 48.5,34.5C 48.5,37.5 48.5,40.5 48.5,43.5C 49.5,43.5 50.5,43.5 51.5,43.5C 50.3303,47.5119 47.8303,50.5119 44,52.5C 40.1697,50.5119 37.6697,47.5119 36.5,43.5C 37.5,43.5 38.5,43.5 39.5,43.5C 39.2641,40.3915 39.5975,37.3915 40.5,34.5 Z"/></g>
</svg>
