<?xml version="1.0" encoding="UTF-8"?>
<!DOCTYPE svg PUBLIC "-//W3C//DTD SVG 1.1//EN" "http://www.w3.org/Graphics/SVG/1.1/DTD/svg11.dtd">
<svg xmlns="http://www.w3.org/2000/svg" version="1.1" width="64px" height="64px" style="shape-rendering:geometricPrecision; text-rendering:geometricPrecision; image-rendering:optimizeQuality; fill-rule:evenodd; clip-rule:evenodd" xmlns:xlink="http://www.w3.org/1999/xlink">
<g><path style="opacity:0.767" fill="#000000" d="M 0.5,-0.5 C 21.1667,-0.5 41.8333,-0.5 62.5,-0.5C 62.5,0.166667 62.8333,0.5 63.5,0.5C 63.5,1.5 63.5,2.5 63.5,3.5C 55.7761,13.9249 48.2761,24.5916 41,35.5C 40.6667,43.1667 40.3333,50.8333 40,58.5C 36.3637,60.0699 32.8637,61.7366 29.5,63.5C 27.5,63.5 25.5,63.5 23.5,63.5C 22.6932,54.2437 22.1932,44.9104 22,35.5C 14.7239,24.5916 7.22392,13.9249 -0.5,3.5C -0.5,2.83333 -0.5,2.16667 -0.5,1.5C 0.338246,1.15829 0.67158,0.491622 0.5,-0.5 Z M 5.5,4.5 C 22.6618,3.33817 39.9951,3.1715 57.5,4C 50.2769,13.5575 43.4436,23.3908 37,33.5C 36.8313,40.8559 36.3313,48.1892 35.5,55.5C 32.6066,56.7404 29.7733,58.0737 27,59.5C 26.6667,50.8333 26.3333,42.1667 26,33.5C 19.6922,23.3757 12.8589,13.709 5.5,4.5 Z"/></g>
</svg>
