<?xml version="1.0" encoding="UTF-8"?>
<!DOCTYPE svg PUBLIC "-//W3C//DTD SVG 1.1//EN" "http://www.w3.org/Graphics/SVG/1.1/DTD/svg11.dtd">
<svg xmlns="http://www.w3.org/2000/svg" version="1.1" width="300px" height="41px" style="shape-rendering:geometricPrecision; text-rendering:geometricPrecision; image-rendering:optimizeQuality; fill-rule:evenodd; clip-rule:evenodd" xmlns:xlink="http://www.w3.org/1999/xlink">
<g><path style="opacity:1" fill="#7ec1e6" d="M 32.5,-0.5 C 37.8333,-0.5 43.1667,-0.5 48.5,-0.5C 51.8005,0.284188 55.1339,1.28419 58.5,2.5C 57.791,3.40397 56.791,3.73731 55.5,3.5C 54.8333,3.5 54.1667,3.5 53.5,3.5C 47.8333,2.16667 42.1667,2.16667 36.5,3.5C 34.7085,3.36596 33.0418,3.69929 31.5,4.5C 31.4142,3.5041 31.7476,2.67076 32.5,2C 30.5273,1.50454 28.5273,1.33788 26.5,1.5C 28.5,0.833333 30.5,0.166667 32.5,-0.5 Z"/></g>
<g><path style="opacity:0.375" fill="#808b92" d="M 53.5,3.5 C 49.1667,3.5 44.8333,3.5 40.5,3.5C 39.5084,3.32842 38.8417,3.66175 38.5,4.5C 37.8333,4.5 37.1667,4.5 36.5,4.5C 36.5,4.16667 36.5,3.83333 36.5,3.5C 42.1667,2.16667 47.8333,2.16667 53.5,3.5 Z"/></g>
<g><path style="opacity:0.486" fill="#b5d1d9" d="M 58.5,2.5 C 61.237,3.03103 63.9036,3.86436 66.5,5C 67.4506,5.71752 67.6172,6.55085 67,7.5C 63.1711,5.83618 59.3377,4.50284 55.5,3.5C 56.791,3.73731 57.791,3.40397 58.5,2.5 Z"/></g>
<g><path style="opacity:0.417" fill="#fefffe" d="M 127.5,12.5 C 130.17,12.4184 130.17,13.5851 127.5,16C 123.525,16.987 119.859,16.487 116.5,14.5C 116.209,15.6491 115.376,16.3158 114,16.5C 113.167,16.1667 112.333,15.8333 111.5,15.5C 112.585,12.227 112.752,8.89364 112,5.5C 111.309,7.89118 110.309,7.89118 109,5.5C 108.248,8.89364 108.415,12.227 109.5,15.5C 107.833,16.8333 106.167,16.8333 104.5,15.5C 106.457,12.432 106.957,9.09867 106,5.5C 103.253,8.50993 101.753,12.1766 101.5,16.5C 99.8076,14.6414 98.3076,12.6414 97,10.5C 96.3486,12.235 96.5153,13.9017 97.5,15.5C 96.8333,15.8333 96.1667,16.1667 95.5,16.5C 90.7204,16.4718 85.8871,16.4718 81,16.5C 75.6232,14.0328 74.4566,10.1994 77.5,5C 78.6086,4.36229 79.7753,3.86229 81,3.5C 85.6743,3.50479 90.5076,3.67145 95.5,4C 97.6166,5.73092 99.1166,7.89759 100,10.5C 100.687,8.43249 100.52,6.43249 99.5,4.5C 105.137,3.33676 110.804,3.17009 116.5,4C 120.037,5.8265 120.371,8.15983 117.5,11C 118.155,12.4866 119.155,13.6533 120.5,14.5C 121.757,11.1565 121.757,7.82312 120.5,4.5C 123.086,3.51998 125.753,3.18665 128.5,3.5C 128.037,6.48237 127.704,9.48237 127.5,12.5 Z M 85.5,12.5 C 79.5147,15.1872 77.5147,13.1872 79.5,6.5C 80.365,5.41728 81.365,5.25061 82.5,6C 84.4567,7.74558 85.4567,9.91225 85.5,12.5 Z M 84.5,6.5 C 85.0768,5.22671 85.7435,5.22671 86.5,6.5C 86.0302,7.46295 85.3635,7.46295 84.5,6.5 Z M 88.5,5.5 C 91.9571,5.66721 92.2904,6.66721 89.5,8.5C 88.6143,7.67504 88.281,6.67504 88.5,5.5 Z M 93.5,5.5 C 94.6378,8.30354 94.8045,11.3035 94,14.5C 92.1825,11.5839 92.0158,8.58391 93.5,5.5 Z M 114.5,5.5 C 116.852,6.54258 117.019,7.87591 115,9.5C 114.51,8.20677 114.343,6.87344 114.5,5.5 Z M 123.5,5.5 C 124.5,5.5 125.5,5.5 126.5,5.5C 126.5,6.5 126.5,7.5 126.5,8.5C 125.5,8.5 124.5,8.5 123.5,8.5C 123.5,7.5 123.5,6.5 123.5,5.5 Z M 88.5,10.5 C 91.3881,11.5395 91.7214,12.8729 89.5,14.5C 88.5713,13.3112 88.238,11.9778 88.5,10.5 Z M 127.5,12.5 C 126.713,14.1042 125.38,14.7709 123.5,14.5C 123.238,13.0222 123.571,11.6888 124.5,10.5C 125.265,11.6119 126.265,12.2786 127.5,12.5 Z M 116.5,14.5 C 114.775,14.1575 114.275,13.1575 115,11.5C 116.039,12.2438 116.539,13.2438 116.5,14.5 Z"/></g>
<g><path style="opacity:0.435" fill="#fefffe" d="M 139.5,7.5 C 139.167,7.5 138.833,7.5 138.5,7.5C 138.66,9.19919 138.494,10.8659 138,12.5C 137.333,11.8333 136.667,11.1667 136,10.5C 135.349,12.235 135.515,13.9017 136.5,15.5C 134.833,16.8333 133.167,16.8333 131.5,15.5C 134.167,11.8333 134.167,8.16667 131.5,4.5C 134.086,3.51998 136.753,3.18665 139.5,3.5C 139.5,4.83333 139.5,6.16667 139.5,7.5 Z M 138.5,7.5 C 136.014,8.77743 135.347,8.11077 136.5,5.5C 137.522,5.85549 138.189,6.52216 138.5,7.5 Z"/></g>
<g><path style="opacity:0.476" fill="#fefffe" d="M 139.5,7.5 C 142.163,2.71186 145.329,2.37852 149,6.5C 150.971,12.8277 148.805,15.9943 142.5,16C 140.07,13.6954 139.07,10.8621 139.5,7.5 Z M 143.5,5.5 C 145.95,5.87426 146.95,7.37426 146.5,10C 146.691,11.9729 146.024,13.4729 144.5,14.5C 142.215,11.8222 141.882,8.82222 143.5,5.5 Z"/></g>
<g><path style="opacity:0.479" fill="#fefffe" d="M 154.5,14.5 C 154.209,15.6491 153.376,16.3158 152,16.5C 151.167,16.1667 150.333,15.8333 149.5,15.5C 150.833,11.8333 150.833,8.16667 149.5,4.5C 152.188,3.20259 154.688,3.53593 157,5.5C 157.825,7.7008 157.325,9.53413 155.5,11C 156.305,12.9717 157.639,14.4717 159.5,15.5C 157.603,16.6518 155.936,16.3185 154.5,14.5 Z M 152.5,5.5 C 154.852,6.54258 155.019,7.87591 153,9.5C 152.51,8.20677 152.343,6.87344 152.5,5.5 Z M 154.5,14.5 C 152.775,14.1575 152.275,13.1575 153,11.5C 154.039,12.2438 154.539,13.2438 154.5,14.5 Z"/></g>
<g><path style="opacity:0.448" fill="#fefffe" d="M 190.5,5.5 C 191.734,8.46481 191.734,11.4648 190.5,14.5C 187.249,17.2793 184.249,16.946 181.5,13.5C 177.771,17.771 174.605,17.4376 172,12.5C 170.244,16.6502 167.41,17.4835 163.5,15C 160.9,11.872 160.9,8.70532 163.5,5.5C 165.851,3.77111 168.518,3.10445 171.5,3.5C 171.343,4.87344 171.51,6.20677 172,7.5C 174.605,2.56238 177.771,2.22904 181.5,6.5C 184.249,3.05404 187.249,2.72071 190.5,5.5 Z M 165.5,5.5 C 169.513,5.51963 170.18,6.85297 167.5,9.5C 168.681,11.198 168.681,12.8647 167.5,14.5C 164.297,12.1633 163.631,9.16335 165.5,5.5 Z M 175.5,5.5 C 177.95,5.87426 178.95,7.37426 178.5,10C 178.691,11.9729 178.024,13.4729 176.5,14.5C 174.215,11.8222 173.882,8.82222 175.5,5.5 Z M 185.5,5.5 C 187.95,5.87426 188.95,7.37426 188.5,10C 188.691,11.9729 188.024,13.4729 186.5,14.5C 184.215,11.8222 183.882,8.82222 185.5,5.5 Z"/></g>
<g><path style="opacity:0.474" fill="#fefffe" d="M 190.5,14.5 C 191.765,13.4855 192.431,11.9855 192.5,10C 192.431,8.01448 191.765,6.51448 190.5,5.5C 193.409,3.00429 196.576,3.00429 200,5.5C 202.942,11.953 200.942,15.6197 194,16.5C 192.319,16.3917 191.152,15.7251 190.5,14.5 Z M 194.5,5.5 C 197.05,5.88444 198.383,7.38444 198.5,10C 198.505,12.1628 197.505,13.6628 195.5,14.5C 194.516,11.5719 194.183,8.57186 194.5,5.5 Z"/></g>
<g><path style="opacity:0.473" fill="#fefffe" d="M 223.5,5.5 C 225.452,9.93738 224.452,13.4374 220.5,16C 216.911,16.0923 214.744,14.2589 214,10.5C 213.093,17.2231 210.093,18.2231 205,13.5C 203.543,6.32035 206.21,2.98702 213,3.5C 213.333,5.16667 213.667,6.83333 214,8.5C 216.04,3.36984 219.207,2.36984 223.5,5.5 Z M 208.5,5.5 C 212.08,5.97036 212.747,7.30369 210.5,9.5C 211.309,11.0709 211.643,12.7376 211.5,14.5C 210.178,14.67 209.011,14.3366 208,13.5C 207.278,10.7395 207.445,8.07283 208.5,5.5 Z M 218.5,5.5 C 220.95,5.87426 221.95,7.37426 221.5,10C 221.691,11.9729 221.024,13.4729 219.5,14.5C 217.215,11.8222 216.882,8.82222 218.5,5.5 Z"/></g>
<g><path style="opacity:0.401" fill="#fefffe" d="M 281.5,5.5 C 280.235,6.51448 279.569,8.01448 279.5,10C 280.021,12.3414 280.021,14.5081 279.5,16.5C 277.507,14.3345 275.673,12.0011 274,9.5C 273.313,11.5675 273.48,13.5675 274.5,15.5C 271.833,16.8333 269.167,16.8333 266.5,15.5C 267.879,14.1374 267.713,13.1374 266,12.5C 263.756,12.8667 263.256,13.8667 264.5,15.5C 262.5,16.8333 260.5,16.8333 258.5,15.5C 255.367,9.26324 254.367,9.26324 255.5,15.5C 250.937,17.5417 247.771,16.2083 246,11.5C 245.405,12.8989 245.572,14.2322 246.5,15.5C 242.167,16.8333 237.833,16.8333 233.5,15.5C 234.585,12.227 234.752,8.89364 234,5.5C 232.595,9.21657 231.095,12.8832 229.5,16.5C 227.726,12.6112 225.726,8.94457 223.5,5.5C 223.791,4.35089 224.624,3.68423 226,3.5C 228.241,3.68013 228.741,4.51347 227.5,6C 228.833,10.6667 230.167,10.6667 231.5,6C 231.043,5.58605 230.709,5.08605 230.5,4.5C 236.137,3.33676 241.804,3.17009 247.5,4C 250.827,5.79079 251.16,7.95746 248.5,10.5C 250.799,15.8344 252.132,15.6677 252.5,10C 252.309,7.95011 251.642,6.11678 250.5,4.5C 251,4.16667 251.5,3.83333 252,3.5C 254.685,5.17484 256.685,7.50817 258,10.5C 258.687,8.43249 258.52,6.43249 257.5,4.5C 258.833,3.16667 260.167,3.16667 261.5,4.5C 260.415,7.77303 260.248,11.1064 261,14.5C 262.409,10.6837 264.076,7.01705 266,3.5C 267.667,7.16667 269.333,10.8333 271,14.5C 271.752,11.1064 271.585,7.77303 270.5,4.5C 271.365,3.41728 272.365,3.25061 273.5,4C 274.667,5.83333 275.833,7.66667 277,9.5C 277.651,7.76499 277.485,6.09833 276.5,4.5C 277.333,4.16667 278.167,3.83333 279,3.5C 280.376,3.68423 281.209,4.35089 281.5,5.5 Z M 237.5,5.5 C 240.674,5.95221 241.007,6.95221 238.5,8.5C 237.614,7.67504 237.281,6.67504 237.5,5.5 Z M 242.5,5.5 C 243.638,8.30354 243.805,11.3035 243,14.5C 241.182,11.5839 241.016,8.58391 242.5,5.5 Z M 245.5,5.5 C 247.852,6.54258 248.019,7.87591 246,9.5C 245.51,8.20677 245.343,6.87344 245.5,5.5 Z M 237.5,10.5 C 240.388,11.5395 240.721,12.8729 238.5,14.5C 237.571,13.3112 237.238,11.9778 237.5,10.5 Z"/></g>
<g><path style="opacity:0.391" fill="#fefffe" d="M 296.5,7.5 C 296.5,9.16667 296.5,10.8333 296.5,12.5C 298.758,12.7751 299.092,13.7751 297.5,15.5C 296.167,15.8333 294.833,16.1667 293.5,16.5C 291.667,16.4146 290.334,15.7479 289.5,14.5C 286.365,17.3472 283.532,17.0139 281,13.5C 280.398,10.7795 280.565,8.11279 281.5,5.5C 282.594,4.41833 283.927,3.75166 285.5,3.5C 289.339,3.75803 293.339,3.75803 297.5,3.5C 297.768,5.09903 297.434,6.43236 296.5,7.5 Z M 289.5,14.5 C 289.631,13.6236 289.298,12.9569 288.5,12.5C 287.18,14.2701 285.68,14.6034 284,13.5C 283.333,11.1667 283.333,8.83333 284,6.5C 285.011,5.66337 286.178,5.33003 287.5,5.5C 288.053,9.45573 288.886,9.45573 290,5.5C 290.805,8.69646 290.638,11.6965 289.5,14.5 Z M 296.5,7.5 C 294.014,8.77743 293.347,8.11077 294.5,5.5C 295.522,5.85549 296.189,6.52216 296.5,7.5 Z M 296.5,12.5 C 295.347,14.9302 294.347,14.9302 293.5,12.5C 293.833,11.8333 294.167,11.1667 294.5,10.5C 295.182,11.2427 295.849,11.9094 296.5,12.5 Z"/></g>
<g><path style="opacity:0.171" fill="#e0f4fb" d="M 38.5,4.5 C 38.8417,3.66175 39.5084,3.32842 40.5,3.5C 44.8333,4.16667 49.1667,4.83333 53.5,5.5C 49.8333,5.5 46.1667,5.5 42.5,5.5C 41.5,5.5 40.5,5.5 39.5,5.5C 39.5,4.83333 39.1667,4.5 38.5,4.5 Z"/></g>
<g><path style="opacity:1" fill="#20a1db" d="M 26.5,1.5 C 28.5273,1.33788 30.5273,1.50454 32.5,2C 31.7476,2.67076 31.4142,3.5041 31.5,4.5C 26.7156,6.0579 22.3822,8.39123 18.5,11.5C 18.2786,8.72116 18.612,6.05449 19.5,3.5C 21.5145,2.07619 23.8478,1.40953 26.5,1.5 Z"/></g>
<g><path style="opacity:0.302" fill="#d9e9f0" d="M 54.5,5.5 C 55.8333,5.5 57.1667,5.5 58.5,5.5C 58.5,6.5 58.5,7.5 58.5,8.5C 54.8333,8.5 51.1667,8.5 47.5,8.5C 46.8333,8.5 46.1667,8.5 45.5,8.5C 45.5,7.83333 45.1667,7.5 44.5,7.5C 45.5676,6.56552 46.901,6.23219 48.5,6.5C 50.1667,7.83333 51.8333,7.83333 53.5,6.5C 54.1667,6.5 54.5,6.16667 54.5,5.5 Z"/></g>
<g><path style="opacity:0.6" fill="#8e9ca5" d="M 47.5,8.5 C 51.1667,8.5 54.8333,8.5 58.5,8.5C 60.7049,8.84594 60.8716,9.5126 59,10.5C 55.1848,9.43851 51.3514,9.43851 47.5,10.5C 47.5,9.83333 47.5,9.16667 47.5,8.5 Z"/></g>
<g><path style="opacity:1" fill="#3d9cc5" d="M 40.5,8.5 C 40.8333,8.5 41.1667,8.5 41.5,8.5C 42.8333,8.5 44.1667,8.5 45.5,8.5C 46.1667,8.5 46.8333,8.5 47.5,8.5C 47.5,9.16667 47.5,9.83333 47.5,10.5C 46.609,11.1098 45.609,11.4431 44.5,11.5C 44.44,10.9569 44.1067,10.6236 43.5,10.5C 41.6396,11.2599 39.973,12.2599 38.5,13.5C 38.5271,11.8007 39.1938,10.4674 40.5,9.5C 40.5,9.16667 40.5,8.83333 40.5,8.5 Z"/></g>
<g><path style="opacity:0.741" fill="#404446" d="M 44.5,11.5 C 39.9628,13.3673 37.2961,16.7007 36.5,21.5C 35.2626,21.5677 35.096,19.901 36,16.5C 36.3768,15.0577 37.2101,14.0577 38.5,13.5C 39.973,12.2599 41.6396,11.2599 43.5,10.5C 44.1067,10.6236 44.44,10.9569 44.5,11.5 Z"/></g>
<g><path style="opacity:0.824" fill="#48565d" d="M 42.5,5.5 C 46.1667,5.5 49.8333,5.5 53.5,5.5C 53.8333,5.5 54.1667,5.5 54.5,5.5C 54.5,6.16667 54.1667,6.5 53.5,6.5C 51.8333,6.5 50.1667,6.5 48.5,6.5C 46.901,6.23219 45.5676,6.56552 44.5,7.5C 43.209,7.26269 42.209,7.59603 41.5,8.5C 41.1667,8.5 40.8333,8.5 40.5,8.5C 39.8333,8.5 39.1667,8.5 38.5,8.5C 37.8333,8.5 37.5,8.83333 37.5,9.5C 37.1667,9.5 36.8333,9.5 36.5,9.5C 35.8333,9.5 35.5,9.83333 35.5,10.5C 35.1667,10.5 34.8333,10.5 34.5,10.5C 33.8333,10.5 33.5,10.8333 33.5,11.5C 32.8333,11.5 32.5,11.8333 32.5,12.5C 31.8333,12.5 31.5,12.8333 31.5,13.5C 30.8333,13.5 30.5,13.8333 30.5,14.5C 29.8333,14.5 29.5,14.8333 29.5,15.5C 28.8333,15.5 28.5,15.8333 28.5,16.5C 27.8333,16.5 27.5,16.8333 27.5,17.5C 27.2053,19.7354 27.5386,21.7354 28.5,23.5C 28.5,23.8333 28.5,24.1667 28.5,24.5C 28.5,25.1667 28.8333,25.5 29.5,25.5C 29.5,26.1667 29.8333,26.5 30.5,26.5C 30.5,26.8333 30.5,27.1667 30.5,27.5C 25.0106,23.8771 24.1773,19.2104 28,13.5C 32.397,9.8881 37.2303,7.22143 42.5,5.5 Z"/></g>
<g><path style="opacity:0.999" fill="#69c6d1" d="M 19.5,3.5 C 18.612,6.05449 18.2786,8.72116 18.5,11.5C 13.8828,16.439 13.3828,21.7723 17,27.5C 17.3988,27.2716 17.5654,26.9382 17.5,26.5C 17.8333,26.5 18.1667,26.5 18.5,26.5C 18.1077,24.8211 17.6077,23.1545 17,21.5C 16.5357,22.0944 16.369,22.7611 16.5,23.5C 15.1667,21.5 15.1667,19.5 16.5,17.5C 17.1103,19.8503 17.4437,19.517 17.5,16.5C 18.8333,16.1667 18.8333,15.8333 17.5,15.5C 17.5,14.8333 17.8333,14.5 18.5,14.5C 19.1667,14.5 19.5,14.1667 19.5,13.5C 20.1667,13.5 20.5,13.1667 20.5,12.5C 21.1667,12.5 21.5,12.1667 21.5,11.5C 22.1667,11.5 22.5,11.1667 22.5,10.5C 22.5,9.83333 22.8333,9.5 23.5,9.5C 23.8333,10.8333 24.1667,10.8333 24.5,9.5C 25.4916,9.67158 26.1583,9.33825 26.5,8.5C 27.4916,8.67158 28.1583,8.33825 28.5,7.5C 29.4916,7.67158 30.1583,7.33825 30.5,6.5C 30.5,5.83333 30.8333,5.5 31.5,5.5C 33.0484,6.734 33.7151,6.734 33.5,5.5C 33.8417,4.66175 34.5084,4.32842 35.5,4.5C 36.5676,5.43448 37.901,5.76781 39.5,5.5C 40.5,5.5 41.5,5.5 42.5,5.5C 37.2303,7.22143 32.397,9.8881 28,13.5C 24.1773,19.2104 25.0106,23.8771 30.5,27.5C 31.8333,27.1667 31.8333,26.8333 30.5,26.5C 29.8333,26.5 29.5,26.1667 29.5,25.5C 28.8333,25.5 28.5,25.1667 28.5,24.5C 29.8333,24.1667 29.8333,23.8333 28.5,23.5C 28.7947,21.2646 28.4614,19.2646 27.5,17.5C 27.5,16.8333 27.8333,16.5 28.5,16.5C 29.1667,16.5 29.5,16.1667 29.5,15.5C 30.1667,15.5 30.5,15.1667 30.5,14.5C 31.1667,14.5 31.5,14.1667 31.5,13.5C 32.1667,13.5 32.5,13.1667 32.5,12.5C 33.1667,12.5 33.5,12.1667 33.5,11.5C 33.5,10.8333 33.8333,10.5 34.5,10.5C 34.8333,11.8333 35.1667,11.8333 35.5,10.5C 35.5,9.83333 35.8333,9.5 36.5,9.5C 36.8333,10.8333 37.1667,10.8333 37.5,9.5C 37.5,8.83333 37.8333,8.5 38.5,8.5C 38.8417,9.33825 39.5084,9.67158 40.5,9.5C 39.1938,10.4674 38.5271,11.8007 38.5,13.5C 37.2101,14.0577 36.3768,15.0577 36,16.5C 35.096,19.901 35.2626,21.5677 36.5,21.5C 39.0195,25.6783 42.6861,28.345 47.5,29.5C 51.6344,30.4849 55.9677,30.8182 60.5,30.5C 55.0247,31.4889 49.358,31.8222 43.5,31.5C 39.5,31.8333 39.5,32.1667 43.5,32.5C 44.1667,32.5 44.8333,32.5 45.5,32.5C 46.5676,33.4345 47.901,33.7678 49.5,33.5C 52.5,33.5 55.5,33.5 58.5,33.5C 52.0812,35.2007 45.4146,35.8674 38.5,35.5C 33.1667,35.8333 33.1667,36.1667 38.5,36.5C 43.8437,36.334 49.1771,36.5006 54.5,37C 46.5471,38.2227 38.5471,38.7227 30.5,38.5C 18.5757,38.0498 9.74235,32.7165 4,22.5C 4.40989,12.5649 9.57655,6.23152 19.5,3.5 Z M 18.5,26.5 C 18.1667,26.5 17.8333,26.5 17.5,26.5C 16.8902,25.609 16.5569,24.609 16.5,23.5C 16.369,22.7611 16.5357,22.0944 17,21.5C 17.6077,23.1545 18.1077,24.8211 18.5,26.5 Z M 18.5,26.5 C 20.1667,27.5 21.5,28.8333 22.5,30.5C 20.1667,30.1667 18.8333,28.8333 18.5,26.5 Z M 22.5,30.5 C 24.0269,30.427 25.0269,31.0937 25.5,32.5C 23.9731,32.573 22.9731,31.9063 22.5,30.5 Z M 25.5,32.5 C 27.5529,32.4021 29.2196,33.0687 30.5,34.5C 28.4471,34.5979 26.7804,33.9313 25.5,32.5 Z"/></g>
<g><path style="opacity:0.78" fill="#383e41" d="M 36.5,3.5 C 36.5,3.83333 36.5,4.16667 36.5,4.5C 36.1667,4.5 35.8333,4.5 35.5,4.5C 34.5084,4.32842 33.8417,4.66175 33.5,5.5C 32.8333,5.5 32.1667,5.5 31.5,5.5C 30.8333,5.5 30.5,5.83333 30.5,6.5C 29.5084,6.32842 28.8417,6.66175 28.5,7.5C 27.5084,7.32842 26.8417,7.66175 26.5,8.5C 25.5084,8.32842 24.8417,8.66175 24.5,9.5C 24.1667,9.5 23.8333,9.5 23.5,9.5C 22.8333,9.5 22.5,9.83333 22.5,10.5C 21.8333,10.5 21.5,10.8333 21.5,11.5C 20.8333,11.5 20.5,11.8333 20.5,12.5C 19.8333,12.5 19.5,12.8333 19.5,13.5C 18.8333,13.5 18.5,13.8333 18.5,14.5C 17.8333,14.5 17.5,14.8333 17.5,15.5C 17.5,15.8333 17.5,16.1667 17.5,16.5C 16.8333,16.5 16.5,16.8333 16.5,17.5C 15.1667,19.5 15.1667,21.5 16.5,23.5C 16.5569,24.609 16.8902,25.609 17.5,26.5C 17.5654,26.9382 17.3988,27.2716 17,27.5C 13.3828,21.7723 13.8828,16.439 18.5,11.5C 22.3822,8.39123 26.7156,6.0579 31.5,4.5C 33.0418,3.69929 34.7085,3.36596 36.5,3.5 Z"/></g>
<g><path style="opacity:0.282" fill="#e6f2f3" d="M 61.5,17.5 C 58.9407,17.1984 56.6074,17.5318 54.5,18.5C 53.791,19.404 52.791,19.7373 51.5,19.5C 52.5929,17.4439 54.4262,16.4439 57,16.5C 58.7067,16.5085 60.2067,16.8418 61.5,17.5 Z"/></g>
<g><path style="opacity:1" fill="#add4e0" d="M 54.5,18.5 C 56.6074,17.5318 58.9407,17.1984 61.5,17.5C 137.335,17.1674 213.002,17.5007 288.5,18.5C 217.833,18.5 147.167,18.5 76.5,18.5C 74.1667,18.5 71.8333,18.5 69.5,18.5C 70.9082,22.2588 70.7416,25.9255 69,29.5C 68.6667,28.8333 68.3333,28.1667 68,27.5C 66.8904,29.0368 65.3904,29.7035 63.5,29.5C 66.4957,28.0263 67.9957,25.693 68,22.5C 64.1602,19.2447 59.6602,17.9114 54.5,18.5 Z"/></g>
<g><path style="opacity:0.033" fill="#ffe6bf" d="M 76.5,19.5 C 76.5,19.1667 76.5,18.8333 76.5,18.5C 147.167,18.5 217.833,18.5 288.5,18.5C 291.898,18.1796 295.232,18.513 298.5,19.5C 281.333,19.8333 264.167,20.1667 247,20.5C 190.169,19.7885 133.335,19.4552 76.5,19.5 Z"/></g>
<g><path style="opacity:1" fill="#fcb84d" d="M 54.5,18.5 C 59.6602,17.9114 64.1602,19.2447 68,22.5C 67.9957,25.693 66.4957,28.0263 63.5,29.5C 59.1186,29.6282 54.7853,29.2949 50.5,28.5C 47.0451,27.8716 45.8785,25.8716 47,22.5C 48.129,20.8588 49.629,19.8588 51.5,19.5C 52.791,19.7373 53.791,19.404 54.5,18.5 Z"/></g>
<g><path style="opacity:0.448" fill="#fefffe" d="M 76.5,21.5 C 77.7498,21.5774 78.5831,22.244 79,23.5C 79.9653,21.7397 81.132,21.4063 82.5,22.5C 81.8333,23.8333 81.1667,25.1667 80.5,26.5C 81.8897,28.1694 82.2231,29.8361 81.5,31.5C 80.5224,31.0233 79.6891,30.3567 79,29.5C 78.6924,30.3081 78.1924,30.9747 77.5,31.5C 76.513,28.2317 76.1796,24.8984 76.5,21.5 Z"/></g>
<g><path style="opacity:0.452" fill="#fefffe" d="M 108.5,21.5 C 109.777,22.6936 110.444,24.3603 110.5,26.5C 110.167,28.1667 109.833,29.8333 109.5,31.5C 108.513,28.2317 108.18,24.8984 108.5,21.5 Z"/></g>
<g><path style="opacity:0.509" fill="#fefffe" d="M 125.5,21.5 C 126.777,22.6936 127.444,24.3603 127.5,26.5C 127.333,28.1667 127.167,29.8333 127,31.5C 125.887,30.2889 124.72,30.2889 123.5,31.5C 121.728,30.7303 120.728,29.3969 120.5,27.5C 121.565,24.8652 123.232,22.8652 125.5,21.5 Z M 122.5,26.5 C 123.675,26.281 124.675,26.6143 125.5,27.5C 123.948,28.7979 122.948,28.4646 122.5,26.5 Z"/></g>
<g><path style="opacity:0.373" fill="#fefffe" d="M 164.5,21.5 C 166.167,21.5 167.833,21.5 169.5,21.5C 169.64,23.1238 168.973,24.2904 167.5,25C 169.028,27.518 168.694,29.6847 166.5,31.5C 165.555,28.2121 164.888,24.8788 164.5,21.5 Z"/></g>
<g><path style="opacity:0.359" fill="#fefffe" d="M 186.5,21.5 C 191.751,23.0753 193.417,26.4087 191.5,31.5C 189.931,30.286 189.098,28.6193 189,26.5C 188.798,28.2556 188.298,29.9223 187.5,31.5C 186.914,31.2907 186.414,30.9574 186,30.5C 185.264,27.408 185.431,24.408 186.5,21.5 Z"/></g>
<g><path style="opacity:0.455" fill="#fefffe" d="M 209.5,21.5 C 210.777,22.6936 211.444,24.3603 211.5,26.5C 211.167,28.1667 210.833,29.8333 210.5,31.5C 209.513,28.2317 209.18,24.8984 209.5,21.5 Z"/></g>
<g><path style="opacity:0.494" fill="#fefffe" d="M 256.5,21.5 C 259.561,21.4443 261.728,22.7776 263,25.5C 265.91,22.6915 268.077,23.1915 269.5,27C 268.723,31.6417 266.556,32.4751 263,29.5C 262.667,28.5 262.333,27.5 262,26.5C 260.989,27.3366 259.822,27.67 258.5,27.5C 258.762,28.9778 258.429,30.3112 257.5,31.5C 256.513,28.2317 256.18,24.8984 256.5,21.5 Z"/></g>
<g><path style="opacity:0.45" fill="#fefffe" d="M 287.5,21.5 C 288.777,22.6936 289.444,24.3603 289.5,26.5C 289.167,28.1667 288.833,29.8333 288.5,31.5C 287.513,28.2317 287.18,24.8984 287.5,21.5 Z"/></g>
<g><path style="opacity:0.449" fill="#fefffe" d="M 83.5,23.5 C 89.3668,23.2056 91.0334,25.8723 88.5,31.5C 87.1667,24.8333 85.8333,24.8333 84.5,31.5C 83.52,28.9135 83.1866,26.2469 83.5,23.5 Z"/></g>
<g><path style="opacity:0.428" fill="#fefffe" d="M 98.5,25.5 C 98.6653,28.5036 97.3319,30.5036 94.5,31.5C 90.3912,29.8081 89.7246,27.3081 92.5,24C 94.8401,23.2516 96.8401,23.7516 98.5,25.5 Z M 93.5,26.5 C 95.337,26.6395 95.6704,27.3061 94.5,28.5C 93.7025,28.0431 93.3691,27.3764 93.5,26.5 Z"/></g>
<g><path style="opacity:0.455" fill="#fefffe" d="M 98.5,25.5 C 99.4577,22.8753 100.624,22.8753 102,25.5C 103,22.8333 104,22.8333 105,25.5C 105.743,23.3553 106.576,23.1886 107.5,25C 107.146,27.2644 106.146,29.0978 104.5,30.5C 103.808,29.9747 103.308,29.3081 103,28.5C 102.692,29.3081 102.192,29.9747 101.5,30.5C 100.304,28.8554 99.3037,27.1887 98.5,25.5 Z"/></g>
<g><path style="opacity:0.492" fill="#fefffe" d="M 114.5,23.5 C 118.487,23.6518 119.987,25.6518 119,29.5C 115.444,32.4751 113.277,31.6417 112.5,27C 112.862,25.5657 113.528,24.3991 114.5,23.5 Z"/></g>
<g><path style="opacity:0.426" fill="#fefffe" d="M 130.5,23.5 C 132.5,23.5 134.5,23.5 136.5,23.5C 136.663,25.8568 136.497,28.1902 136,30.5C 134.776,33.473 132.776,34.1397 130,32.5C 127.916,29.267 128.082,26.267 130.5,23.5 Z M 131.5,26.5 C 133.337,26.6395 133.67,27.3061 132.5,28.5C 131.702,28.0431 131.369,27.3764 131.5,26.5 Z"/></g>
<g><path style="opacity:0.494" fill="#fefffe" d="M 139.5,23.5 C 142.352,23.3524 144.019,24.6857 144.5,27.5C 142.167,32.8333 139.833,32.8333 137.5,27.5C 137.752,25.9271 138.418,24.5938 139.5,23.5 Z"/></g>
<g><path style="opacity:0.493" fill="#fefffe" d="M 171.5,23.5 C 174.352,23.3524 176.019,24.6857 176.5,27.5C 174.167,32.8333 171.833,32.8333 169.5,27.5C 169.752,25.9271 170.418,24.5938 171.5,23.5 Z"/></g>
<g><path style="opacity:0.428" fill="#fefffe" d="M 179.5,23.5 C 182.244,23.2003 183.911,24.367 184.5,27C 183.723,31.6417 181.556,32.4751 178,29.5C 177.252,27.1599 177.752,25.1599 179.5,23.5 Z M 179.5,27.5 C 180.601,26.4017 181.934,26.235 183.5,27C 182.318,28.7683 180.985,28.9349 179.5,27.5 Z"/></g>
<g><path style="opacity:0.393" fill="#fefffe" d="M 193.5,23.5 C 199.367,23.2056 201.033,25.8723 198.5,31.5C 197.702,29.9223 197.202,28.2556 197,26.5C 196.902,28.6193 196.069,30.286 194.5,31.5C 193.52,28.9135 193.187,26.2469 193.5,23.5 Z"/></g>
<g><path style="opacity:0.475" fill="#fefffe" d="M 203.5,23.5 C 207.487,23.6518 208.987,25.6518 208,29.5C 204.444,32.4751 202.277,31.6417 201.5,27C 201.862,25.5657 202.528,24.3991 203.5,23.5 Z M 203.5,26.5 C 206.797,26.3287 207.131,26.9954 204.5,28.5C 203.702,28.0431 203.369,27.3764 203.5,26.5 Z"/></g>
<g><path style="opacity:0.45" fill="#fefffe" d="M 215.5,23.5 C 219.487,23.6518 220.987,25.6518 220,29.5C 216.709,32.4366 214.542,31.7699 213.5,27.5C 213.803,25.8857 214.47,24.5523 215.5,23.5 Z M 215.5,26.5 C 217.337,26.6395 217.67,27.3061 216.5,28.5C 215.702,28.0431 215.369,27.3764 215.5,26.5 Z"/></g>
<g><path style="opacity:0.494" fill="#fefffe" d="M 223.5,23.5 C 225.167,23.5 226.833,23.5 228.5,23.5C 228.664,26.1873 228.497,28.854 228,31.5C 225.88,34.0801 223.713,34.0801 221.5,31.5C 222.166,30.1687 222.166,28.6687 221.5,27C 221.862,25.5657 222.528,24.3991 223.5,23.5 Z M 223.5,26.5 C 224.675,26.281 225.675,26.6143 226.5,27.5C 224.948,28.7979 223.948,28.4646 223.5,26.5 Z"/></g>
<g><path style="opacity:0.412" fill="#fefffe" d="M 229.5,23.5 C 231.411,23.5743 232.578,24.5743 233,26.5C 233.508,24.0958 234.675,23.4291 236.5,24.5C 235.489,28.0801 233.655,31.0801 231,33.5C 230.316,32.2161 230.483,31.0495 231.5,30C 230.331,27.9935 229.665,25.8268 229.5,23.5 Z"/></g>
<g><path style="opacity:0.462" fill="#fefffe" d="M 272.5,23.5 C 275.244,23.2003 276.911,24.367 277.5,27C 276.723,31.6417 274.556,32.4751 271,29.5C 270.252,27.1599 270.752,25.1599 272.5,23.5 Z M 273.5,26.5 C 275.337,26.6395 275.67,27.3061 274.5,28.5C 273.702,28.0431 273.369,27.3764 273.5,26.5 Z"/></g>
<g><path style="opacity:0.503" fill="#fefffe" d="M 279.5,23.5 C 284.983,22.8069 286.983,24.9735 285.5,30C 283.833,30.8333 282.167,31.6667 280.5,32.5C 279.516,29.5719 279.183,26.5719 279.5,23.5 Z M 281.5,26.5 C 284.797,26.3287 285.131,26.9954 282.5,28.5C 281.702,28.0431 281.369,27.3764 281.5,26.5 Z"/></g>
<g><path style="opacity:0.492" fill="#fefffe" d="M 293.5,23.5 C 297.487,23.6518 298.987,25.6518 298,29.5C 294.444,32.4751 292.277,31.6417 291.5,27C 291.862,25.5657 292.528,24.3991 293.5,23.5 Z"/></g>
<g><path style="opacity:1" fill="#fa9343" d="M 158.5,24.5 C 159.613,25.9464 159.78,27.6131 159,29.5C 157.708,30.7911 156.542,30.7911 155.5,29.5C 154.035,26.5233 155.035,24.8566 158.5,24.5 Z"/></g>
<g><path style="opacity:0.361" fill="#fec293" d="M 158.5,24.5 C 155.035,24.8566 154.035,26.5233 155.5,29.5C 154.351,29.2089 153.684,28.3756 153.5,27C 154.3,23.9303 155.967,23.097 158.5,24.5 Z"/></g>
<g><path style="opacity:0.922" fill="#fda460" d="M 246.5,23.5 C 251.493,23.997 252.493,26.1637 249.5,30C 244.382,29.8242 243.382,27.6576 246.5,23.5 Z"/></g>
<g><path style="opacity:0.039" fill="#d3ebe8" d="M 50.5,28.5 C 54.7853,29.2949 59.1186,29.6282 63.5,29.5C 62.791,30.404 61.791,30.7373 60.5,30.5C 55.9677,30.8182 51.6344,30.4849 47.5,29.5C 48.791,29.7373 49.791,29.404 50.5,28.5 Z"/></g>
<g><path style="opacity:0.941" fill="#637d80" d="M 76.5,18.5 C 76.5,18.8333 76.5,19.1667 76.5,19.5C 74.5714,19.2308 72.9047,19.7308 71.5,21C 73.3468,26.9797 71.3468,31.3131 65.5,34C 65.8333,34.3333 66.1667,34.6667 66.5,35C 54.6895,39.3944 42.6895,40.5611 30.5,38.5C 38.5471,38.7227 46.5471,38.2227 54.5,37C 49.1771,36.5006 43.8437,36.334 38.5,36.5C 38.5,36.1667 38.5,35.8333 38.5,35.5C 45.4146,35.8674 52.0812,35.2007 58.5,33.5C 60.6547,33.628 62.6547,33.128 64.5,32C 59.5601,32.3256 54.5601,32.4923 49.5,32.5C 48.1667,32.5 46.8333,32.5 45.5,32.5C 44.8333,32.5 44.1667,32.5 43.5,32.5C 43.5,32.1667 43.5,31.8333 43.5,31.5C 49.358,31.8222 55.0247,31.4889 60.5,30.5C 61.791,30.7373 62.791,30.404 63.5,29.5C 65.3904,29.7035 66.8904,29.0368 68,27.5C 68.3333,28.1667 68.6667,28.8333 69,29.5C 70.7416,25.9255 70.9082,22.2588 69.5,18.5C 71.8333,18.5 74.1667,18.5 76.5,18.5 Z"/></g>
<g><path style="opacity:0.061" fill="#c6dbdd" d="M 58.5,33.5 C 55.5,33.5 52.5,33.5 49.5,33.5C 49.5,33.1667 49.5,32.8333 49.5,32.5C 54.5601,32.4923 59.5601,32.3256 64.5,32C 62.6547,33.128 60.6547,33.628 58.5,33.5 Z"/></g>
</svg>
