<?xml version="1.0" encoding="UTF-8"?>
<!DOCTYPE svg PUBLIC "-//W3C//DTD SVG 1.1//EN" "http://www.w3.org/Graphics/SVG/1.1/DTD/svg11.dtd">
<svg xmlns="http://www.w3.org/2000/svg" version="1.1" width="64px" height="64px" style="shape-rendering:geometricPrecision; text-rendering:geometricPrecision; image-rendering:optimizeQuality; fill-rule:evenodd; clip-rule:evenodd" xmlns:xlink="http://www.w3.org/1999/xlink">
<g><path style="opacity:0.597" fill="#498c14" d="M 23.5,-0.5 C 28.8333,-0.5 34.1667,-0.5 39.5,-0.5C 55.9778,7.75997 60.4778,20.4266 53,37.5C 46.2009,45.7859 40.0342,54.4526 34.5,63.5C 32.5,63.5 30.5,63.5 28.5,63.5C 22.9658,54.4526 16.7991,45.7859 10,37.5C 2.90186,20.6239 7.40186,7.95725 23.5,-0.5 Z M 25.5,2.5 C 47.9873,2.1455 56.4873,12.8122 51,34.5C 44.7317,43.3839 38.2317,52.0506 31.5,60.5C 24.7683,52.0506 18.2683,43.3839 12,34.5C 6.94825,19.6202 11.4483,8.95351 25.5,2.5 Z M 38.5,32.5 C 41.0009,32.5109 41.1676,33.1776 39,34.5C 38.5357,33.9056 38.369,33.2389 38.5,32.5 Z"/></g>
<g><path style="opacity:0.473" fill="#498c14" d="M 23.5,9.5 C 28.5111,9.33407 33.5111,9.50074 38.5,10C 39.3366,11.0113 39.67,12.1779 39.5,13.5C 41.6648,13.1159 43.3315,13.7826 44.5,15.5C 42.9447,22.4444 43.278,29.2777 45.5,36C 45.0946,36.9454 44.428,37.6121 43.5,38C 35.1667,38.6667 26.8333,38.6667 18.5,38C 17.9781,37.4387 17.6448,36.772 17.5,36C 19.722,29.2777 20.0553,22.4444 18.5,15.5C 19.6685,13.7826 21.3352,13.1159 23.5,13.5C 23.5,12.1667 23.5,10.8333 23.5,9.5 Z M 38.5,32.5 C 38.369,33.2389 38.5357,33.9056 39,34.5C 41.1676,33.1776 41.0009,32.5109 38.5,32.5 Z"/></g>
</svg>
