<?xml version="1.0" encoding="UTF-8"?>
<!DOCTYPE svg PUBLIC "-//W3C//DTD SVG 1.1//EN" "http://www.w3.org/Graphics/SVG/1.1/DTD/svg11.dtd">
<svg xmlns="http://www.w3.org/2000/svg" version="1.1" width="64px" height="64px" style="shape-rendering:geometricPrecision; text-rendering:geometricPrecision; image-rendering:optimizeQuality; fill-rule:evenodd; clip-rule:evenodd" xmlns:xlink="http://www.w3.org/1999/xlink">
<g><path style="opacity:0.965" fill="#cc0502" d="M 23.5,-0.5 C 28.8333,-0.5 34.1667,-0.5 39.5,-0.5C 51.8333,3.16667 59.8333,11.1667 63.5,23.5C 63.5,28.8333 63.5,34.1667 63.5,39.5C 59.8333,51.8333 51.8333,59.8333 39.5,63.5C 34.1667,63.5 28.8333,63.5 23.5,63.5C 11.1667,59.8333 3.16667,51.8333 -0.5,39.5C -0.5,34.1667 -0.5,28.8333 -0.5,23.5C 3.16667,11.1667 11.1667,3.16667 23.5,-0.5 Z"/></g>
<g><path style="opacity:1" fill="#fdf3f3" d="M 24.5,10.5 C 35.1592,9.32718 39.3259,13.9938 37,24.5C 36.3102,27.196 34.8102,29.3626 32.5,31C 32.8333,31.3333 33.1667,31.6667 33.5,32C 35.4432,31.6948 37.4432,31.6948 39.5,32C 40.3992,33.2362 41.5659,34.0696 43,34.5C 49.0302,29.6627 52.3636,30.9961 53,38.5C 51.7638,39.3992 50.9304,40.5659 50.5,42C 55.4592,48.7003 53.7926,52.0336 45.5,52C 44.646,50.9783 43.646,50.1449 42.5,49.5C 38.9671,53.6184 35.6338,53.4517 32.5,49C 24.8117,48.8315 17.1451,48.3315 9.5,47.5C 11.6667,43.8333 13.8333,40.1667 16,36.5C 19.0887,35.0404 21.9221,33.207 24.5,31C 19.7618,25.8804 18.5951,20.0471 21,13.5C 22.1451,12.3636 23.3117,11.3636 24.5,10.5 Z"/></g>
<g><path style="opacity:1" fill="#cf1411" d="M 25.5,32.5 C 27.2884,31.3775 29.2884,31.2109 31.5,32C 29.6627,35.1019 27.6627,35.2686 25.5,32.5 Z"/></g>
<g><path style="opacity:1" fill="#cf180f" d="M 36.5,34.5 C 38.7742,35.597 40.9409,36.9304 43,38.5C 44.9626,37.3746 46.796,36.0413 48.5,34.5C 49.086,34.7093 49.586,35.0426 50,35.5C 49.4097,37.8143 48.243,39.9809 46.5,42C 47.6254,43.9626 48.9587,45.796 50.5,47.5C 49.6518,49.2828 48.3185,49.7828 46.5,49C 45.3147,47.647 43.9814,46.4803 42.5,45.5C 40.8333,46.8333 39.1667,48.1667 37.5,49.5C 35.8987,48.9653 35.3987,47.9653 36,46.5C 37.353,45.3147 38.5197,43.9814 39.5,42.5C 38.5197,41.0186 37.353,39.6853 36,38.5C 35.4209,37.0715 35.5876,35.7382 36.5,34.5 Z"/></g>
</svg>
