<?xml version="1.0" encoding="UTF-8"?>
<!DOCTYPE svg PUBLIC "-//W3C//DTD SVG 1.1//EN" "http://www.w3.org/Graphics/SVG/1.1/DTD/svg11.dtd">
<svg xmlns="http://www.w3.org/2000/svg" version="1.1" width="225px" height="225px" style="shape-rendering:geometricPrecision; text-rendering:geometricPrecision; image-rendering:optimizeQuality; fill-rule:evenodd; clip-rule:evenodd" xmlns:xlink="http://www.w3.org/1999/xlink">
<g><path style="opacity:1" fill="#f2f2f2" d="M -0.5,-0.5 C 71.5,-0.5 143.5,-0.5 215.5,-0.5C 215.5,-0.166667 215.5,0.166667 215.5,0.5C 145.499,0.333337 75.4992,0.500004 5.5,1C 2.97739,2.35968 0.977392,4.19301 -0.5,6.5C -0.5,4.16667 -0.5,1.83333 -0.5,-0.5 Z"/></g>
<g><path style="opacity:1" fill="#fefefe" d="M 215.5,0.5 C 215.5,0.166667 215.5,-0.166667 215.5,-0.5C 218.5,-0.5 221.5,-0.5 224.5,-0.5C 224.5,74.5 224.5,149.5 224.5,224.5C 221.5,224.5 218.5,224.5 215.5,224.5C 215.5,224.167 215.5,223.833 215.5,223.5C 219.854,222.644 222.354,219.977 223,215.5C 223.667,146.167 223.667,76.8333 223,7.5C 221.838,3.67903 219.338,1.3457 215.5,0.5 Z"/></g>
<g><path style="opacity:1" fill="#dbdbdb" d="M 215.5,0.5 C 219.338,1.3457 221.838,3.67903 223,7.5C 223.667,76.8333 223.667,146.167 223,215.5C 222.354,219.977 219.854,222.644 215.5,223.5C 145.499,223.667 75.4992,223.5 5.5,223C 2.40957,221.293 0.409574,218.793 -0.5,215.5C -0.5,145.833 -0.5,76.1667 -0.5,6.5C 0.977392,4.19301 2.97739,2.35968 5.5,1C 75.4992,0.500004 145.499,0.333337 215.5,0.5 Z"/></g>
<g><path style="opacity:1" fill="#606060" d="M 94.5,82.5 C 95.8333,82.5 97.1667,82.5 98.5,82.5C 98.5,88.5 98.5,94.5 98.5,100.5C 97.1667,100.5 95.8333,100.5 94.5,100.5C 94.5,94.5 94.5,88.5 94.5,82.5 Z"/></g>
<g><path style="opacity:1" fill="#575757" d="M 164.5,82.5 C 167.898,82.1796 171.232,82.513 174.5,83.5C 172.257,84.4742 169.924,84.8076 167.5,84.5C 167.5,86.1667 167.5,87.8333 167.5,89.5C 169.5,89.5 171.5,89.5 173.5,89.5C 173.5,90.5 173.5,91.5 173.5,92.5C 171.5,92.5 169.5,92.5 167.5,92.5C 167.5,94.1667 167.5,95.8333 167.5,97.5C 169.857,97.3367 172.19,97.5034 174.5,98C 174.957,98.414 175.291,98.914 175.5,99.5C 171.893,100.489 168.226,100.823 164.5,100.5C 164.5,94.5 164.5,88.5 164.5,82.5 Z"/></g>
<g><path style="opacity:1" fill="#5a5a5a" d="M 71.5,82.5 C 81.7887,80.3675 85.9554,84.3675 84,94.5C 83.6541,96.8477 82.4875,98.6811 80.5,100C 69.2354,102.364 65.0688,97.8636 68,86.5C 68.6897,84.6498 69.8564,83.3164 71.5,82.5 Z"/></g>
<g><path style="opacity:1" fill="#d3d3d3" d="M 74.5,84.5 C 76.9928,84.3291 78.8261,85.3291 80,87.5C 82.5079,94.9745 80.0079,98.1412 72.5,97C 69.4527,92.1182 70.1194,87.9515 74.5,84.5 Z"/></g>
<g><path style="opacity:1" fill="#5c5c5c" d="M 132.5,82.5 C 134.288,82.2148 135.955,82.5481 137.5,83.5C 139.697,88.7558 141.697,94.0891 143.5,99.5C 141.124,100.817 139.457,100.15 138.5,97.5C 135.914,96.52 133.247,96.1866 130.5,96.5C 130.5,97.8333 130.5,99.1667 130.5,100.5C 129.167,100.5 127.833,100.5 126.5,100.5C 128.3,94.4331 130.3,88.4331 132.5,82.5 Z"/></g>
<g><path style="opacity:1" fill="#d2d2d2" d="M 134.5,86.5 C 135.578,88.5394 136.578,90.706 137.5,93C 135.866,93.4935 134.199,93.6602 132.5,93.5C 132.767,91.0347 133.434,88.7014 134.5,86.5 Z"/></g>
<g><path style="opacity:1" fill="#595959" d="M 102.5,82.5 C 104.604,82.2011 106.604,82.5344 108.5,83.5C 110,87.1667 111.5,90.8333 113,94.5C 114.667,90.8333 116.333,87.1667 118,83.5C 119.699,82.5939 121.533,82.2606 123.5,82.5C 123.5,88.5 123.5,94.5 123.5,100.5C 122.5,100.5 121.5,100.5 120.5,100.5C 120.666,95.4889 120.499,90.4889 120,85.5C 118.136,90.0907 116.47,94.7574 115,99.5C 113.644,100.38 112.144,100.714 110.5,100.5C 106.44,82.2997 104.773,82.2997 105.5,100.5C 104.5,100.5 103.5,100.5 102.5,100.5C 102.5,94.5 102.5,88.5 102.5,82.5 Z"/></g>
<g><path style="opacity:1" fill="#595959" d="M 149.5,82.5 C 153.106,82.2108 156.606,82.5442 160,83.5C 160.749,84.635 160.583,85.635 159.5,86.5C 149.811,83.3573 146.644,86.6906 150,96.5C 152.041,97.4231 154.208,97.7564 156.5,97.5C 156.5,95.8333 156.5,94.1667 156.5,92.5C 155.022,92.762 153.689,92.4287 152.5,91.5C 155.086,90.52 157.753,90.1866 160.5,90.5C 160.784,93.7766 160.451,96.9433 159.5,100C 146.955,102.459 142.455,97.6254 146,85.5C 147.145,84.3636 148.312,83.3636 149.5,82.5 Z"/></g>
<g><path style="opacity:1" fill="#5c5c5c" d="M 53.5,88.5 C 53.2172,87.7109 52.7172,87.0442 52,86.5C 51.5008,91.1548 51.3342,95.8215 51.5,100.5C 50.5,100.5 49.5,100.5 48.5,100.5C 48.5,94.5 48.5,88.5 48.5,82.5C 50.1992,82.3398 51.8659,82.5065 53.5,83C 55.792,86.4162 57.9586,89.9162 60,93.5C 60.4986,89.8484 60.6653,86.1817 60.5,82.5C 61.5,82.5 62.5,82.5 63.5,82.5C 63.5,88.5 63.5,94.5 63.5,100.5C 61.8561,100.714 60.3561,100.38 59,99.5C 56.6284,96.0901 54.7951,92.4234 53.5,88.5 Z"/></g>
<g><path style="opacity:1" fill="#8e8e8e" d="M 53.5,88.5 C 52.8333,92.5 52.1667,96.5 51.5,100.5C 51.3342,95.8215 51.5008,91.1548 52,86.5C 52.7172,87.0442 53.2172,87.7109 53.5,88.5 Z"/></g>
<g><path style="opacity:1" fill="#5d5d5d" d="M 124.5,119.5 C 127.833,119.5 131.167,119.5 134.5,119.5C 134.5,120.5 134.5,121.5 134.5,122.5C 132.167,122.5 129.833,122.5 127.5,122.5C 127.5,124.167 127.5,125.833 127.5,127.5C 129.833,127.5 132.167,127.5 134.5,127.5C 134.5,128.5 134.5,129.5 134.5,130.5C 132.167,130.5 129.833,130.5 127.5,130.5C 127.5,132.167 127.5,133.833 127.5,135.5C 130.167,135.5 132.833,135.5 135.5,135.5C 135.5,136.5 135.5,137.5 135.5,138.5C 131.833,138.5 128.167,138.5 124.5,138.5C 124.5,132.167 124.5,125.833 124.5,119.5 Z"/></g>
<g><path style="opacity:1" fill="#5b5b5b" d="M 87.5,119.5 C 101.885,118.46 105.885,124.293 99.5,137C 95.6049,138.266 91.6049,138.766 87.5,138.5C 87.5,132.167 87.5,125.833 87.5,119.5 Z"/></g>
<g><path style="opacity:1" fill="#d4d4d4" d="M 91.5,122.5 C 96.3301,122.074 98.9968,124.241 99.5,129C 99.0562,133.946 96.3896,136.113 91.5,135.5C 91.5,131.167 91.5,126.833 91.5,122.5 Z"/></g>
<g><path style="opacity:1" fill="#606060" d="M 139.5,119.5 C 151.418,118.238 155.918,123.238 153,134.5C 152.167,135.333 151.333,136.167 150.5,137C 146.637,138.354 142.637,138.854 138.5,138.5C 138.209,132.077 138.542,125.744 139.5,119.5 Z"/></g>
<g><path style="opacity:1" fill="#d5d5d5" d="M 142.5,122.5 C 147.39,121.887 150.056,124.054 150.5,129C 150.056,133.946 147.39,136.113 142.5,135.5C 142.5,131.167 142.5,126.833 142.5,122.5 Z"/></g>
<g><path style="opacity:1" fill="#5c5c5c" d="M 106.5,119.5 C 120.18,118.806 124.18,124.473 118.5,136.5C 114.712,138.256 110.712,138.922 106.5,138.5C 106.5,132.167 106.5,125.833 106.5,119.5 Z"/></g>
<g><path style="opacity:1" fill="#d9d9d9" d="M 114.5,123.5 C 115.458,123.953 116.292,124.619 117,125.5C 119.034,131.794 116.867,135.128 110.5,135.5C 110.5,131.5 110.5,127.5 110.5,123.5C 111.833,123.5 113.167,123.5 114.5,123.5 Z"/></g>
<g><path style="opacity:1" fill="#aaaaaa" d="M 114.5,123.5 C 113.167,123.5 111.833,123.5 110.5,123.5C 110.5,127.5 110.5,131.5 110.5,135.5C 109.515,131.366 109.182,127.032 109.5,122.5C 111.415,122.216 113.081,122.549 114.5,123.5 Z"/></g>
<g><path style="opacity:1" fill="#5e5e5e" d="M 74.5,119.5 C 76.1439,119.286 77.6439,119.62 79,120.5C 81.5459,126.303 83.3792,132.303 84.5,138.5C 81.5,138.833 80.1667,137.5 80.5,134.5C 77.8127,134.336 75.146,134.503 72.5,135C 71.6634,136.011 71.33,137.178 71.5,138.5C 70.0222,138.762 68.6888,138.429 67.5,137.5C 69.8414,131.471 72.1747,125.471 74.5,119.5 Z"/></g>
<g><path style="opacity:1" fill="#cbcbcb" d="M 75.5,123.5 C 77.2671,125.792 78.2671,128.458 78.5,131.5C 76.712,131.785 75.0453,131.452 73.5,130.5C 74.5771,128.271 75.2437,125.937 75.5,123.5 Z"/></g>
<g><path style="opacity:1" fill="#f2f2f2" d="M -0.5,215.5 C 0.409574,218.793 2.40957,221.293 5.5,223C 75.4992,223.5 145.499,223.667 215.5,223.5C 215.5,223.833 215.5,224.167 215.5,224.5C 143.5,224.5 71.5,224.5 -0.5,224.5C -0.5,221.5 -0.5,218.5 -0.5,215.5 Z"/></g>
</svg>
