<?xml version="1.0" encoding="UTF-8"?>
<!DOCTYPE svg PUBLIC "-//W3C//DTD SVG 1.1//EN" "http://www.w3.org/Graphics/SVG/1.1/DTD/svg11.dtd">
<svg xmlns="http://www.w3.org/2000/svg" version="1.1" width="64px" height="64px" style="shape-rendering:geometricPrecision; text-rendering:geometricPrecision; image-rendering:optimizeQuality; fill-rule:evenodd; clip-rule:evenodd" xmlns:xlink="http://www.w3.org/1999/xlink">
<g><path style="opacity:0.965" fill="#0b8181" d="M 23.5,-0.5 C 28.8333,-0.5 34.1667,-0.5 39.5,-0.5C 51.8333,3.16667 59.8333,11.1667 63.5,23.5C 63.5,28.8333 63.5,34.1667 63.5,39.5C 59.8333,51.8333 51.8333,59.8333 39.5,63.5C 34.1667,63.5 28.8333,63.5 23.5,63.5C 11.1667,59.8333 3.16667,51.8333 -0.5,39.5C -0.5,34.1667 -0.5,28.8333 -0.5,23.5C 3.16667,11.1667 11.1667,3.16667 23.5,-0.5 Z"/></g>
<g><path style="opacity:1" fill="#e7f3f3" d="M 41.5,10.5 C 42.4731,12.9479 42.8064,15.6146 42.5,18.5C 43.8221,18.33 44.9887,18.6634 46,19.5C 46.53,23.5828 47.3633,27.5828 48.5,31.5C 47.5,31.5 46.5,31.5 45.5,31.5C 45.2502,27.8979 44.2502,24.5646 42.5,21.5C 41.65,23.9038 40.65,26.2372 39.5,28.5C 38.6338,22.3555 39.3005,16.3555 41.5,10.5 Z"/></g>
<g><path style="opacity:1" fill="#ebf5f4" d="M 9.5,18.5 C 10.4959,18.4142 11.3292,18.7476 12,19.5C 14.1346,27.0092 14.9679,34.6759 14.5,42.5C 18.5138,42.3345 22.5138,42.5012 26.5,43C 28.0093,46.6693 26.6759,48.1693 22.5,47.5C 22.4802,49.143 23.1468,50.4763 24.5,51.5C 22.2573,52.4742 19.924,52.8076 17.5,52.5C 17.4802,50.857 18.1468,49.5237 19.5,48.5C 17.5352,47.7078 15.5352,47.0412 13.5,46.5C 12.8076,45.9747 12.3076,45.3081 12,44.5C 11.917,35.7323 11.0836,27.0656 9.5,18.5 Z"/></g>
<g><path style="opacity:1" fill="#f6fafa" d="M 18.5,11.5 C 24.2445,12.9792 24.9112,15.8125 20.5,20C 22.229,21.7889 22.8957,23.9556 22.5,26.5C 24.5273,26.3379 26.5273,26.5045 28.5,27C 29.3802,28.3561 29.7135,29.8561 29.5,31.5C 25.5633,31.7935 21.73,31.4601 18,30.5C 17.2114,26.9085 17.3781,23.4085 18.5,20C 14.6054,17.178 14.6054,14.3446 18.5,11.5 Z"/></g>
<g><path style="opacity:1" fill="#6db6b6" d="M 31.5,34.5 C 26.8333,34.5 22.1667,34.5 17.5,34.5C 17.5,35.5 17.5,36.5 17.5,37.5C 16.5655,36.4324 16.2322,35.099 16.5,33.5C 21.6946,33.1795 26.6946,33.5128 31.5,34.5 Z"/></g>
<g><path style="opacity:1" fill="#f9fcfc" d="M 31.5,34.5 C 33.1132,34.9443 34.2798,35.9443 35,37.5C 35.4993,42.4889 35.6659,47.4889 35.5,52.5C 33.8333,52.5 32.1667,52.5 30.5,52.5C 30.5,48.1667 30.5,43.8333 30.5,39.5C 26.4862,39.6655 22.4862,39.4988 18.5,39C 17.944,38.6174 17.6107,38.1174 17.5,37.5C 17.5,36.5 17.5,35.5 17.5,34.5C 22.1667,34.5 26.8333,34.5 31.5,34.5 Z"/></g>
<g><path style="opacity:1" fill="#ebf5f5" d="M 36.5,35.5 C 42.0129,34.1843 47.6796,34.1843 53.5,35.5C 51.9547,36.4519 50.288,36.7852 48.5,36.5C 48.8282,41.8746 48.4948,47.2079 47.5,52.5C 46.914,52.2907 46.414,51.9574 46,51.5C 45.5007,46.5111 45.3341,41.5111 45.5,36.5C 42.3915,36.7359 39.3915,36.4025 36.5,35.5 Z"/></g>
</svg>
