<?xml version="1.0" encoding="UTF-8"?>
<!DOCTYPE svg PUBLIC "-//W3C//DTD SVG 1.1//EN" "http://www.w3.org/Graphics/SVG/1.1/DTD/svg11.dtd">
<svg xmlns="http://www.w3.org/2000/svg" version="1.1" width="64px" height="64px" style="shape-rendering:geometricPrecision; text-rendering:geometricPrecision; image-rendering:optimizeQuality; fill-rule:evenodd; clip-rule:evenodd" xmlns:xlink="http://www.w3.org/1999/xlink">
<g><path style="opacity:0.931" fill="#000000" d="M 26.5,-0.5 C 29.8333,-0.5 33.1667,-0.5 36.5,-0.5C 38.8123,1.63604 41.3123,3.63604 44,5.5C 45.7197,9.29413 45.8863,13.1275 44.5,17C 45.5156,17.5194 46.1822,18.3527 46.5,19.5C 44.9284,25.8121 41.9284,31.3121 37.5,36C 31.4151,38.7625 26.2485,37.5959 22,32.5C 19.6123,28.3925 17.779,24.0591 16.5,19.5C 16.8178,18.3527 17.4844,17.5194 18.5,17C 16.9216,9.31805 19.5883,3.48472 26.5,-0.5 Z"/></g>
<g><path style="opacity:0.91" fill="#000000" d="M 42.5,63.5 C 35.1667,63.5 27.8333,63.5 20.5,63.5C 15.4466,62.141 10.4466,60.3077 5.5,58C 4.36761,53.5868 4.20095,49.0868 5,44.5C 10.2281,41.1334 15.7281,38.1334 21.5,35.5C 23.951,40.6791 26.1177,46.0125 28,51.5C 29.4304,48.7353 29.2637,45.902 27.5,43C 28.812,39.5825 31.1453,38.7492 34.5,40.5C 35.7974,43.1878 35.4641,45.6878 33.5,48C 34.1905,49.0674 34.6905,50.2341 35,51.5C 36.8823,46.0125 39.049,40.6791 41.5,35.5C 47.2719,38.1334 52.7719,41.1334 58,44.5C 58.6667,48.8333 58.6667,53.1667 58,57.5C 52.9967,60.1966 47.83,62.1966 42.5,63.5 Z"/></g>
</svg>
