<?xml version="1.0" encoding="UTF-8"?>
<!DOCTYPE svg PUBLIC "-//W3C//DTD SVG 1.1//EN" "http://www.w3.org/Graphics/SVG/1.1/DTD/svg11.dtd">
<svg xmlns="http://www.w3.org/2000/svg" version="1.1" width="150px" height="150px" style="shape-rendering:geometricPrecision; text-rendering:geometricPrecision; image-rendering:optimizeQuality; fill-rule:evenodd; clip-rule:evenodd" xmlns:xlink="http://www.w3.org/1999/xlink">
<g><path style="opacity:1" fill="#fefefe" d="M 125.5,140.5 C 124.657,138.827 123.324,137.66 121.5,137C 91.5,136.333 61.5,136.333 31.5,137C 29.6763,137.66 28.343,138.827 27.5,140.5C 21.8333,140.5 16.1667,140.5 10.5,140.5C 10.5,96.1667 10.5,51.8333 10.5,7.5C 51.5,7.5 92.5,7.5 133.5,7.5C 133.5,51.8333 133.5,96.1667 133.5,140.5C 130.833,140.5 128.167,140.5 125.5,140.5 Z"/></g>
<g><path style="opacity:1" fill="#fcfbfb" d="M 114.5,79.5 C 114.5,80.1667 114.167,80.5 113.5,80.5C 101.784,79.8556 90.4507,80.5223 79.5,82.5C 78.8501,82.1961 78.1835,81.8627 77.5,81.5C 76.6858,83.7662 76.1858,86.0995 76,88.5C 75.83,78.658 75.33,68.9913 74.5,59.5C 60.8333,59.5 47.1667,59.5 33.5,59.5C 32.6739,64.3165 32.1739,69.3165 32,74.5C 31.5065,72.8659 31.3398,71.1992 31.5,69.5C 30.1667,69.5 28.8333,69.5 27.5,69.5C 27.6602,71.1992 27.4935,72.8659 27,74.5C 26.8272,68.6518 26.3272,62.9851 25.5,57.5C 25.5,55.5 25.5,53.5 25.5,51.5C 50.1689,51.6666 74.8356,51.5 99.5,51C 100.582,49.6703 101.249,48.1703 101.5,46.5C 101.666,38.16 101.5,29.8267 101,21.5C 100.617,20.944 100.117,20.6107 99.5,20.5C 74.6722,19.5023 49.6722,19.169 24.5,19.5C 24.2627,18.209 24.596,17.209 25.5,16.5C 25.369,17.2389 25.5357,17.9056 26,18.5C 26.786,15.4173 28.6193,13.2506 31.5,12C 61.1667,11.3333 90.8333,11.3333 120.5,12C 122.329,12.2735 123.829,13.1068 125,14.5C 126.607,23.0638 126.94,31.7305 126,40.5C 123.091,47.3243 119.424,53.6576 115,59.5C 103.228,60.1571 91.395,60.8238 79.5,61.5C 90.4849,62.3324 101.485,62.8324 112.5,63C 111.167,64.3333 109.833,65.6667 108.5,67C 98.8162,67.1679 89.1495,67.6679 79.5,68.5C 88.1475,69.3319 96.8142,69.8319 105.5,70C 104.5,71 103.5,72 102.5,73C 94.8406,73.4997 87.1739,73.6664 79.5,73.5C 79.5,74.5 79.5,75.5 79.5,76.5C 88.513,76.448 97.513,76.7814 106.5,77.5C 109.59,77.5217 112.257,78.1883 114.5,79.5 Z"/></g>
<g><path style="opacity:1" fill="#a71e22" d="M 21.5,20.5 C 23.2646,21.4614 25.2646,21.7947 27.5,21.5C 27.8172,30.4178 27.4839,39.2511 26.5,48C 39.4957,48.4999 52.4957,48.6666 65.5,48.5C 76.5,48.5 87.5,48.5 98.5,48.5C 74.3391,49.4976 50.0057,49.831 25.5,49.5C 25.1667,49.5 24.8333,49.5 24.5,49.5C 22.5,49.5 20.5,49.5 18.5,49.5C 18.5,40.1667 18.5,30.8333 18.5,21.5C 19.209,20.596 20.209,20.2627 21.5,20.5 Z"/></g>
<g><path style="opacity:1" fill="#c31f27" d="M 24.5,19.5 C 49.6722,19.169 74.6722,19.5023 99.5,20.5C 85.1313,20.135 74.1313,20.4683 66.5,21.5C 66.5079,24.5448 66.8413,27.5448 67.5,30.5C 64.3048,26.9128 60.3048,25.7462 55.5,27C 54.5308,31.7367 54.1975,36.57 54.5,41.5C 63.358,43.6039 67.6914,40.2706 67.5,31.5C 68.3019,32.9516 68.8019,34.6183 69,36.5C 69.4983,33.1832 69.665,29.8499 69.5,26.5C 73.0419,26.1872 76.3752,26.5206 79.5,27.5C 76.5,27.5 73.5,27.5 70.5,27.5C 70.5,32.1667 70.5,36.8333 70.5,41.5C 71.5,41.5 72.5,41.5 73.5,41.5C 73.8333,41.5 74.1667,41.5 74.5,41.5C 75.29,40.3915 75.79,39.0581 76,37.5C 76.4983,40.8168 76.665,44.1501 76.5,47.5C 72.6286,47.185 68.9619,47.5184 65.5,48.5C 52.4957,48.6666 39.4957,48.4999 26.5,48C 27.4839,39.2511 27.8172,30.4178 27.5,21.5C 25.2646,21.7947 23.2646,21.4614 21.5,20.5C 22.391,19.8902 23.391,19.5569 24.5,19.5 Z"/></g>
<g><path style="opacity:1" fill="#d6031a" d="M 99.5,20.5 C 100.117,20.6107 100.617,20.944 101,21.5C 101.5,29.8267 101.666,38.16 101.5,46.5C 100.5,47.1667 99.5,47.8333 98.5,48.5C 87.5,48.5 76.5,48.5 65.5,48.5C 68.9619,47.5184 72.6286,47.185 76.5,47.5C 76.665,44.1501 76.4983,40.8168 76,37.5C 75.79,39.0581 75.29,40.3915 74.5,41.5C 74.5,39.8333 74.5,38.1667 74.5,36.5C 76.1667,36.5 77.8333,36.5 79.5,36.5C 79.7373,35.209 79.404,34.209 78.5,33.5C 77.1667,33.5 75.8333,33.5 74.5,33.5C 74.5,32.5 74.5,31.5 74.5,30.5C 76.4147,30.7845 78.0813,30.4511 79.5,29.5C 79.5,28.8333 79.5,28.1667 79.5,27.5C 76.3752,26.5206 73.0419,26.1872 69.5,26.5C 69.665,29.8499 69.4983,33.1832 69,36.5C 68.8019,34.6183 68.3019,32.9516 67.5,31.5C 67.5,31.1667 67.5,30.8333 67.5,30.5C 66.8413,27.5448 66.5079,24.5448 66.5,21.5C 74.1313,20.4683 85.1313,20.135 99.5,20.5 Z"/></g>
<g><path style="opacity:1" fill="#7e0e12" d="M 18.5,21.5 C 18.5,30.8333 18.5,40.1667 18.5,49.5C 17.5416,49.9528 16.7083,50.6195 16,51.5C 15.5002,42.1726 15.3335,32.8393 15.5,23.5C 15.9731,22.0937 16.9731,21.427 18.5,21.5 Z"/></g>
<g><path style="opacity:1" fill="#fcf2f3" d="M 41.5,27.5 C 44.7766,27.2161 47.9433,27.5495 51,28.5C 52.7203,34.4771 50.5536,37.1438 44.5,36.5C 44.5,38.1667 44.5,39.8333 44.5,41.5C 43.5,41.5 42.5,41.5 41.5,41.5C 41.5,36.8333 41.5,32.1667 41.5,27.5 Z"/></g>
<g><path style="opacity:1" fill="#f9e4e6" d="M 67.5,30.5 C 67.5,30.8333 67.5,31.1667 67.5,31.5C 67.6914,40.2706 63.358,43.6039 54.5,41.5C 54.1975,36.57 54.5308,31.7367 55.5,27C 60.3048,25.7462 64.3048,26.9128 67.5,30.5 Z"/></g>
<g><path style="opacity:1" fill="#fdf7f7" d="M 79.5,27.5 C 79.5,28.1667 79.5,28.8333 79.5,29.5C 77.5,29.5 75.5,29.5 73.5,29.5C 73.2322,31.099 73.5655,32.4324 74.5,33.5C 75.8333,33.5 77.1667,33.5 78.5,33.5C 77.4479,35.256 75.7812,35.9227 73.5,35.5C 73.5,37.5 73.5,39.5 73.5,41.5C 72.5,41.5 71.5,41.5 70.5,41.5C 70.5,36.8333 70.5,32.1667 70.5,27.5C 73.5,27.5 76.5,27.5 79.5,27.5 Z"/></g>
<g><path style="opacity:1" fill="#e88c96" d="M 79.5,29.5 C 78.0813,30.4511 76.4147,30.7845 74.5,30.5C 74.5,31.5 74.5,32.5 74.5,33.5C 73.5655,32.4324 73.2322,31.099 73.5,29.5C 75.5,29.5 77.5,29.5 79.5,29.5 Z"/></g>
<g><path style="opacity:1" fill="#c61b24" d="M 58.5,29.5 C 65.1882,30.7484 66.1882,33.9151 61.5,39C 60.552,39.4828 59.552,39.6495 58.5,39.5C 58.5,36.1667 58.5,32.8333 58.5,29.5 Z"/></g>
<g><path style="opacity:1" fill="#d76c75" d="M 47.5,30.5 C 44.8333,31.5 44.8333,32.5 47.5,33.5C 46.791,34.404 45.791,34.7373 44.5,34.5C 44.5,32.8333 44.5,31.1667 44.5,29.5C 45.791,29.2627 46.791,29.596 47.5,30.5 Z"/></g>
<g><path style="opacity:1" fill="#b90812" d="M 47.5,30.5 C 48.8333,31.5 48.8333,32.5 47.5,33.5C 44.8333,32.5 44.8333,31.5 47.5,30.5 Z"/></g>
<g><path style="opacity:1" fill="#e57b86" d="M 78.5,33.5 C 79.404,34.209 79.7373,35.209 79.5,36.5C 77.8333,36.5 76.1667,36.5 74.5,36.5C 74.5,38.1667 74.5,39.8333 74.5,41.5C 74.1667,41.5 73.8333,41.5 73.5,41.5C 73.5,39.5 73.5,37.5 73.5,35.5C 75.7812,35.9227 77.4479,35.256 78.5,33.5 Z"/></g>
<g><path style="opacity:1" fill="#702a27" d="M 15.5,23.5 C 15.3335,32.8393 15.5002,42.1726 16,51.5C 16.7083,50.6195 17.5416,49.9528 18.5,49.5C 20.5,49.5 22.5,49.5 24.5,49.5C 24.5,51.8333 24.5,54.1667 24.5,56.5C 22.5,56.5 20.5,56.5 18.5,56.5C 16.9826,56.4894 15.8159,55.8228 15,54.5C 14.1748,43.9917 14.3415,33.6584 15.5,23.5 Z"/></g>
<g><path style="opacity:1" fill="#a8a199" d="M 101.5,46.5 C 101.249,48.1703 100.582,49.6703 99.5,51C 74.8356,51.5 50.1689,51.6666 25.5,51.5C 25.5,50.8333 25.5,50.1667 25.5,49.5C 50.0057,49.831 74.3391,49.4976 98.5,48.5C 99.5,47.8333 100.5,47.1667 101.5,46.5 Z"/></g>
<g><path style="opacity:1" fill="#9e6061" d="M 24.5,49.5 C 24.8333,49.5 25.1667,49.5 25.5,49.5C 25.5,50.1667 25.5,50.8333 25.5,51.5C 25.5,53.5 25.5,55.5 25.5,57.5C 25.1667,57.5 24.8333,57.5 24.5,57.5C 22.2646,57.7947 20.2646,57.4614 18.5,56.5C 20.5,56.5 22.5,56.5 24.5,56.5C 24.5,54.1667 24.5,51.8333 24.5,49.5 Z"/></g>
<g><path style="opacity:1" fill="#e7e5e5" d="M 126.5,128.5 C 126.5,114.5 126.5,100.5 126.5,86.5C 126.666,79.825 126.5,73.1583 126,66.5C 122.301,71.0272 118.468,75.3605 114.5,79.5C 112.257,78.1883 109.59,77.5217 106.5,77.5C 97.513,76.7814 88.513,76.448 79.5,76.5C 79.5,75.5 79.5,74.5 79.5,73.5C 87.1739,73.6664 94.8406,73.4997 102.5,73C 103.5,72 104.5,71 105.5,70C 96.8142,69.8319 88.1475,69.3319 79.5,68.5C 89.1495,67.6679 98.8162,67.1679 108.5,67C 109.833,65.6667 111.167,64.3333 112.5,63C 101.485,62.8324 90.4849,62.3324 79.5,61.5C 91.395,60.8238 103.228,60.1571 115,59.5C 119.424,53.6576 123.091,47.3243 126,40.5C 126.94,31.7305 126.607,23.0638 125,14.5C 123.829,13.1068 122.329,12.2735 120.5,12C 90.8333,11.3333 61.1667,11.3333 31.5,12C 28.6193,13.2506 26.786,15.4173 26,18.5C 25.5357,17.9056 25.369,17.2389 25.5,16.5C 26.2775,13.8878 27.9441,12.0545 30.5,11C 61.1667,10.3333 91.8333,10.3333 122.5,11C 123.931,11.4652 125.097,12.2986 126,13.5C 127.155,32.9129 127.655,52.4129 127.5,72C 127.5,91.003 127.167,109.836 126.5,128.5 Z"/></g>
<g><path style="opacity:1" fill="#f5f2f3" d="M 24.5,57.5 C 24.8333,57.5 25.1667,57.5 25.5,57.5C 26.3272,62.9851 26.8272,68.6518 27,74.5C 27.4935,72.8659 27.6602,71.1992 27.5,69.5C 28.8333,69.5 30.1667,69.5 31.5,69.5C 31.3398,71.1992 31.5065,72.8659 32,74.5C 32.1739,69.3165 32.6739,64.3165 33.5,59.5C 33.5,64.5 33.5,69.5 33.5,74.5C 33.5,79.1667 33.5,83.8333 33.5,88.5C 47.1667,88.5 60.8333,88.5 74.5,88.5C 74.5,83.8333 74.5,79.1667 74.5,74.5C 74.5,69.5 74.5,64.5 74.5,59.5C 75.33,68.9913 75.83,78.658 76,88.5C 76.1858,86.0995 76.6858,83.7662 77.5,81.5C 78.1835,81.8627 78.8501,82.1961 79.5,82.5C 89.8333,82.5 100.167,82.5 110.5,82.5C 101.683,90.9561 91.3497,96.9561 79.5,100.5C 68.5762,102.374 57.5762,102.874 46.5,102C 39.6878,100.959 33.0211,99.6261 26.5,98C 40.1736,105.496 49.1736,116.663 53.5,131.5C 53.5,132.5 53.5,133.5 53.5,134.5C 53.5,134.833 53.5,135.167 53.5,135.5C 45.8261,135.666 38.1594,135.5 30.5,135C 28,133.833 26.1667,132 25,129.5C 24.5,105.502 24.3334,81.5023 24.5,57.5 Z"/></g>
<g><path style="opacity:1" fill="#bebebf" d="M 74.5,74.5 C 74.5,79.1667 74.5,83.8333 74.5,88.5C 60.8333,88.5 47.1667,88.5 33.5,88.5C 33.5,83.8333 33.5,79.1667 33.5,74.5C 34.3019,73.0484 34.8019,71.3817 35,69.5C 47.6667,70.8333 60.3333,70.8333 73,69.5C 73.1981,71.3817 73.6981,73.0484 74.5,74.5 Z"/></g>
<g><path style="opacity:1" fill="#cccccc" d="M 33.5,59.5 C 47.1667,59.5 60.8333,59.5 74.5,59.5C 74.5,64.5 74.5,69.5 74.5,74.5C 73.6981,73.0484 73.1981,71.3817 73,69.5C 60.3333,70.8333 47.6667,70.8333 35,69.5C 34.8019,71.3817 34.3019,73.0484 33.5,74.5C 33.5,69.5 33.5,64.5 33.5,59.5 Z"/></g>
<g><path style="opacity:1" fill="#c8c7c7" d="M 113.5,80.5 C 113.027,81.9063 112.027,82.573 110.5,82.5C 100.167,82.5 89.8333,82.5 79.5,82.5C 90.4507,80.5223 101.784,79.8556 113.5,80.5 Z"/></g>
<g><path style="opacity:1" fill="#c70a1d" d="M 126.5,86.5 C 125.673,91.9851 125.173,97.6518 125,103.5C 109.899,101.851 94.7328,100.851 79.5,100.5C 91.3497,96.9561 101.683,90.9561 110.5,82.5C 112.027,82.573 113.027,81.9063 113.5,80.5C 114.167,80.5 114.5,80.1667 114.5,79.5C 118.468,75.3605 122.301,71.0272 126,66.5C 126.5,73.1583 126.666,79.825 126.5,86.5 Z"/></g>
<g><path style="opacity:1" fill="#bc0e1e" d="M 126.5,86.5 C 126.5,100.5 126.5,114.5 126.5,128.5C 126.068,129.71 125.401,130.71 124.5,131.5C 100.833,130.167 77.1667,130.167 53.5,131.5C 49.1736,116.663 40.1736,105.496 26.5,98C 33.0211,99.6261 39.6878,100.959 46.5,102C 57.5762,102.874 68.5762,102.374 79.5,100.5C 94.7328,100.851 109.899,101.851 125,103.5C 125.173,97.6518 125.673,91.9851 126.5,86.5 Z"/></g>
<g><path style="opacity:1" fill="#a6101b" d="M 124.5,131.5 C 124.167,132.167 123.833,132.833 123.5,133.5C 100.212,134.48 76.8785,134.813 53.5,134.5C 53.5,133.5 53.5,132.5 53.5,131.5C 77.1667,130.167 100.833,130.167 124.5,131.5 Z"/></g>
<g><path style="opacity:1" fill="#c8b4b4" d="M 123.5,133.5 C 123.389,134.117 123.056,134.617 122.5,135C 99.5024,135.5 76.5024,135.667 53.5,135.5C 53.5,135.167 53.5,134.833 53.5,134.5C 76.8785,134.813 100.212,134.48 123.5,133.5 Z"/></g>
<g><path style="opacity:1" fill="#ebe7e8" d="M 125.5,140.5 C 92.8333,140.5 60.1667,140.5 27.5,140.5C 28.343,138.827 29.6763,137.66 31.5,137C 61.5,136.333 91.5,136.333 121.5,137C 123.324,137.66 124.657,138.827 125.5,140.5 Z"/></g>
</svg>
