<?xml version="1.0" encoding="UTF-8"?>
<!DOCTYPE svg PUBLIC "-//W3C//DTD SVG 1.1//EN" "http://www.w3.org/Graphics/SVG/1.1/DTD/svg11.dtd">
<svg xmlns="http://www.w3.org/2000/svg" version="1.1" width="64px" height="64px" style="shape-rendering:geometricPrecision; text-rendering:geometricPrecision; image-rendering:optimizeQuality; fill-rule:evenodd; clip-rule:evenodd" xmlns:xlink="http://www.w3.org/1999/xlink">
<g><path style="opacity:0.813" fill="#000000" d="M 2.5,-0.5 C 15.8333,-0.5 29.1667,-0.5 42.5,-0.5C 43.5045,0.682751 44.3378,2.01608 45,3.5C 45.6667,10.1667 45.6667,16.8333 45,23.5C 44,24.8333 43,24.8333 42,23.5C 41.6667,17.1667 41.3333,10.8333 41,4.5C 40.5,4 40,3.5 39.5,3C 27.8333,2.33333 16.1667,2.33333 4.5,3C 4,3.5 3.5,4 3,4.5C 2.33333,19.8333 2.33333,35.1667 3,50.5C 3.75044,51.1258 4.58377,51.6258 5.5,52C 12.4921,52.4996 19.4921,52.6663 26.5,52.5C 26.5,53.5 26.5,54.5 26.5,55.5C 18.4931,55.6664 10.4931,55.4997 2.5,55C 1.30943,54.3021 0.309426,53.4687 -0.5,52.5C -0.5,35.8333 -0.5,19.1667 -0.5,2.5C 0.5,1.5 1.5,0.5 2.5,-0.5 Z M 21.5,10.5 C 25.6099,12.7458 25.2765,14.0792 20.5,14.5C 20.4326,13.0413 20.7659,11.7079 21.5,10.5 Z"/></g>
<g><path style="opacity:0.698" fill="#000000" d="M 18.5,7.5 C 27.4867,6.66502 29.8201,10.165 25.5,18C 16.8017,18.7726 14.4684,15.2726 18.5,7.5 Z M 21.5,10.5 C 20.7659,11.7079 20.4326,13.0413 20.5,14.5C 25.2765,14.0792 25.6099,12.7458 21.5,10.5 Z"/></g>
<g><path style="opacity:0.738" fill="#000000" d="M 14.5,20.5 C 19.5111,20.3341 24.5111,20.5007 29.5,21C 32.8705,23.6973 34.2038,27.1973 33.5,31.5C 32.1667,31.5 30.8333,31.5 29.5,31.5C 30.7254,25.7252 28.3921,23.0585 22.5,23.5C 16.7757,23.224 14.1091,25.8907 14.5,31.5C 13.5,31.5 12.5,31.5 11.5,31.5C 10.8075,27.2473 11.8075,23.5807 14.5,20.5 Z"/></g>
<g><path style="opacity:0.694" fill="#000000" d="M 63.5,40.5 C 63.5,44.5 63.5,48.5 63.5,52.5C 60.8333,57.1667 57.1667,60.8333 52.5,63.5C 48.5,63.5 44.5,63.5 40.5,63.5C 27.53,56.3414 25.03,46.3414 33,33.5C 45.8756,24.9866 56.0422,27.3199 63.5,40.5 Z M 45.5,31.5 C 48.7642,31.9862 51.7642,33.1529 54.5,35C 48,41.5 41.5,48 35,54.5C 29.8497,42.804 33.3497,35.1374 45.5,31.5 Z M 56.5,38.5 C 57.3764,38.3691 58.0431,38.7025 58.5,39.5C 62.0763,51.0051 57.9097,58.0051 46,60.5C 43.7395,60.1354 41.5728,59.4687 39.5,58.5C 38.479,57.9984 38.3123,57.3317 39,56.5C 45.0362,50.6314 50.8695,44.6314 56.5,38.5 Z"/></g>
<g><path style="opacity:0.844" fill="#000000" d="M 7.5,36.5 C 13.8333,36.5 20.1667,36.5 26.5,36.5C 26.5,37.5 26.5,38.5 26.5,39.5C 20.1667,39.5 13.8333,39.5 7.5,39.5C 7.5,38.5 7.5,37.5 7.5,36.5 Z"/></g>
<g><path style="opacity:0.854" fill="#000000" d="M 7.5,44.5 C 12.8333,44.5 18.1667,44.5 23.5,44.5C 23.5,45.5 23.5,46.5 23.5,47.5C 18.1667,47.5 12.8333,47.5 7.5,47.5C 7.5,46.5 7.5,45.5 7.5,44.5 Z"/></g>
</svg>
