<?xml version="1.0" encoding="UTF-8"?>
<!DOCTYPE svg PUBLIC "-//W3C//DTD SVG 1.1//EN" "http://www.w3.org/Graphics/SVG/1.1/DTD/svg11.dtd">
<svg xmlns="http://www.w3.org/2000/svg" version="1.1" width="512px" height="512px" style="shape-rendering:geometricPrecision; text-rendering:geometricPrecision; image-rendering:optimizeQuality; fill-rule:evenodd; clip-rule:evenodd" xmlns:xlink="http://www.w3.org/1999/xlink">
<g><path style="opacity:0.919" fill="#000000" d="M 228.5,50.5 C 246.503,50.3334 264.503,50.5001 282.5,51C 284.333,51.5 285.5,52.6667 286,54.5C 286.499,59.8229 286.666,65.1563 286.5,70.5C 330.501,70.3333 374.501,70.5 418.5,71C 420.667,71.8333 422.167,73.3333 423,75.5C 423.992,159.89 423.658,244.223 422,328.5C 420.509,330.004 418.676,330.837 416.5,331C 375.163,331.167 333.829,331.667 292.5,332.5C 313,371.5 333.5,410.5 354,449.5C 355.227,453.591 354.394,457.091 351.5,460C 333.167,460.667 314.833,460.667 296.5,460C 295.584,459.626 294.75,459.126 294,458.5C 281.421,434.341 268.588,410.341 255.5,386.5C 242.373,410.587 229.373,434.754 216.5,459C 197.59,460.641 178.59,460.974 159.5,460C 156.606,457.091 155.773,453.591 157,449.5C 177.5,410.5 198,371.5 218.5,332.5C 177.171,331.667 135.837,331.167 94.5,331C 90.7951,330.96 88.6284,329.127 88,325.5C 87.0057,241.419 87.339,157.419 89,73.5C 89.9025,72.2986 91.0692,71.4652 92.5,71C 136.499,70.5 180.499,70.3333 224.5,70.5C 224.334,65.1563 224.501,59.8229 225,54.5C 225.69,52.6498 226.856,51.3164 228.5,50.5 Z M 238.5,64.5 C 249.833,64.5 261.167,64.5 272.5,64.5C 272.5,66.5 272.5,68.5 272.5,70.5C 261.167,70.5 249.833,70.5 238.5,70.5C 238.5,68.5 238.5,66.5 238.5,64.5 Z M 102.5,85.5 C 204.5,85.5 306.5,85.5 408.5,85.5C 408.5,162.5 408.5,239.5 408.5,316.5C 306.5,316.5 204.5,316.5 102.5,316.5C 102.5,239.5 102.5,162.5 102.5,85.5 Z M 170.5,153.5 C 188.108,152.201 203.274,157.534 216,169.5C 229.092,189.148 225.926,205.814 206.5,219.5C 205.416,220.665 204.583,221.998 204,223.5C 203.5,234.161 203.333,244.828 203.5,255.5C 201.5,255.5 199.5,255.5 197.5,255.5C 197.666,249.491 197.499,243.491 197,237.5C 192.245,233.241 187.912,233.574 184,238.5C 183.501,244.157 183.334,249.824 183.5,255.5C 179.167,255.5 174.833,255.5 170.5,255.5C 170.666,249.824 170.499,244.157 170,238.5C 166.088,233.574 161.755,233.241 157,237.5C 156.501,243.491 156.334,249.491 156.5,255.5C 154.5,255.5 152.5,255.5 150.5,255.5C 150.667,244.828 150.5,234.161 150,223.5C 144.717,218.547 139.717,213.214 135,207.5C 126.589,192.633 128.423,179.133 140.5,167C 149.225,159.488 159.225,154.988 170.5,153.5 Z M 314.5,187.5 C 318.5,187.5 322.5,187.5 326.5,187.5C 326.5,221.5 326.5,255.5 326.5,289.5C 322.5,289.5 318.5,289.5 314.5,289.5C 314.5,255.5 314.5,221.5 314.5,187.5 Z M 286.5,228.5 C 290.833,228.5 295.167,228.5 299.5,228.5C 299.5,248.833 299.5,269.167 299.5,289.5C 295.167,289.5 290.833,289.5 286.5,289.5C 286.5,269.167 286.5,248.833 286.5,228.5 Z M 341.5,249.5 C 345.5,249.5 349.5,249.5 353.5,249.5C 353.5,262.833 353.5,276.167 353.5,289.5C 349.5,289.5 345.5,289.5 341.5,289.5C 341.5,276.167 341.5,262.833 341.5,249.5 Z M 244.5,331.5 C 254.855,331.168 265.188,331.501 275.5,332.5C 295.373,370.412 315.373,408.246 335.5,446C 324.923,446.819 314.423,446.652 304,445.5C 283.886,407.604 264.053,369.604 244.5,331.5 Z M 230.5,340.5 C 236.624,348.722 241.79,357.722 246,367.5C 246.552,370.419 245.885,373.086 244,375.5C 231.667,398.833 219.333,422.167 207,445.5C 196.577,446.652 186.077,446.819 175.5,446C 194.497,411.173 212.83,376.007 230.5,340.5 Z"/></g>
<g><path style="opacity:0.946" fill="#000000" d="M 268.5,98.5 C 300.835,98.3334 333.168,98.5 365.5,99C 369.749,103.801 369.416,108.134 364.5,112C 334.5,112.333 304.5,112.667 274.5,113C 263.833,121.667 253.167,130.333 242.5,139C 233.667,140.833 230.167,137.333 232,128.5C 244.065,118.258 256.232,108.258 268.5,98.5 Z"/></g>
<g><path style="opacity:0.897" fill="#000000" d="M 310.5,118.5 C 328.503,118.333 346.503,118.5 364.5,119C 368.212,121.513 369.378,125.013 368,129.5C 366.681,131.487 364.848,132.654 362.5,133C 345.833,133.667 329.167,133.667 312.5,133C 306.384,130.679 304.884,126.512 308,120.5C 308.995,119.934 309.828,119.267 310.5,118.5 Z"/></g>
<g><path style="opacity:0.93" fill="#000000" d="M 176.5,138.5 C 199.754,138.71 218.254,148.043 232,166.5C 243.999,190.495 239.832,211.162 219.5,228.5C 218.667,240.82 218.167,253.153 218,265.5C 216.833,266.667 215.667,267.833 214.5,269C 189.5,269.667 164.5,269.667 139.5,269C 138.333,267.833 137.167,266.667 136,265.5C 135.833,253.153 135.333,240.82 134.5,228.5C 117.027,214.242 111.527,196.242 118,174.5C 126.424,156.753 140.257,145.586 159.5,141C 165.303,140.109 170.97,139.275 176.5,138.5 Z M 170.5,153.5 C 159.225,154.988 149.225,159.488 140.5,167C 128.423,179.133 126.589,192.633 135,207.5C 139.717,213.214 144.717,218.547 150,223.5C 150.5,234.161 150.667,244.828 150.5,255.5C 152.5,255.5 154.5,255.5 156.5,255.5C 156.334,249.491 156.501,243.491 157,237.5C 161.755,233.241 166.088,233.574 170,238.5C 170.499,244.157 170.666,249.824 170.5,255.5C 174.833,255.5 179.167,255.5 183.5,255.5C 183.334,249.824 183.501,244.157 184,238.5C 187.912,233.574 192.245,233.241 197,237.5C 197.499,243.491 197.666,249.491 197.5,255.5C 199.5,255.5 201.5,255.5 203.5,255.5C 203.333,244.828 203.5,234.161 204,223.5C 204.583,221.998 205.416,220.665 206.5,219.5C 225.926,205.814 229.092,189.148 216,169.5C 203.274,157.534 188.108,152.201 170.5,153.5 Z"/></g>
<g><path style="opacity:0.899" fill="#000000" d="M 278.5,138.5 C 290.505,138.333 302.505,138.5 314.5,139C 320.059,140.458 321.892,143.958 320,149.5C 319.5,151.333 318.333,152.5 316.5,153C 303.167,153.667 289.833,153.667 276.5,153C 275.069,152.535 273.903,151.701 273,150.5C 271.036,144.532 272.869,140.532 278.5,138.5 Z"/></g>
<g><path style="opacity:0.888" fill="#000000" d="M 333.5,138.5 C 344.231,138.097 354.898,138.597 365.5,140C 368.349,142.559 369.183,145.726 368,149.5C 367.5,151.333 366.333,152.5 364.5,153C 353.167,153.667 341.833,153.667 330.5,153C 324.564,146.507 325.564,141.674 333.5,138.5 Z"/></g>
<g><path style="opacity:0.939" fill="#000000" d="M 302.5,173.5 C 314.171,173.333 325.838,173.5 337.5,174C 338.416,174.374 339.25,174.874 340,175.5C 341.463,195.099 341.963,214.766 341.5,234.5C 349.174,234.334 356.841,234.5 364.5,235C 365.667,236.167 366.833,237.333 368,238.5C 368.977,259.589 368.643,280.589 367,301.5C 366.25,302.126 365.416,302.626 364.5,303C 334.833,303.667 305.167,303.667 275.5,303C 274.667,302.167 273.833,301.333 273,300.5C 272.333,272.833 272.333,245.167 273,217.5C 273.833,216.667 274.667,215.833 275.5,215C 283.493,214.5 291.493,214.334 299.5,214.5C 299.333,202.162 299.5,189.829 300,177.5C 300.662,176.016 301.496,174.683 302.5,173.5 Z M 314.5,187.5 C 314.5,221.5 314.5,255.5 314.5,289.5C 318.5,289.5 322.5,289.5 326.5,289.5C 326.5,255.5 326.5,221.5 326.5,187.5C 322.5,187.5 318.5,187.5 314.5,187.5 Z M 286.5,228.5 C 286.5,248.833 286.5,269.167 286.5,289.5C 290.833,289.5 295.167,289.5 299.5,289.5C 299.5,269.167 299.5,248.833 299.5,228.5C 295.167,228.5 290.833,228.5 286.5,228.5 Z M 341.5,249.5 C 341.5,262.833 341.5,276.167 341.5,289.5C 345.5,289.5 349.5,289.5 353.5,289.5C 353.5,276.167 353.5,262.833 353.5,249.5C 349.5,249.5 345.5,249.5 341.5,249.5 Z"/></g>
<g><path style="opacity:0.918" fill="#000000" d="M 155.5,179.5 C 169.084,182 173.251,189.666 168,202.5C 160.333,210.5 152.667,210.5 145,202.5C 139.899,190.709 143.399,183.042 155.5,179.5 Z"/></g>
<g><path style="opacity:0.918" fill="#000000" d="M 196.5,179.5 C 210.084,182 214.251,189.666 209,202.5C 201.333,210.5 193.667,210.5 186,202.5C 180.899,190.709 184.399,183.042 196.5,179.5 Z"/></g>
<g><path style="opacity:0.895" fill="#000000" d="M 381.5,375.5 C 384.187,375.336 386.854,375.503 389.5,376C 391.641,377.308 393.641,378.808 395.5,380.5C 399.896,375.278 405.062,374.278 411,377.5C 413.681,383.532 412.181,388.365 406.5,392C 410.773,395.221 412.606,399.388 412,404.5C 411.535,405.931 410.701,407.097 409.5,408C 403.828,409.545 399.161,408.045 395.5,403.5C 391.036,408.699 385.869,409.699 380,406.5C 377.268,400.441 378.768,395.608 384.5,392C 377.925,387.38 376.925,381.88 381.5,375.5 Z"/></g>
<g><path style="opacity:0.862" fill="#000000" d="M 125.5,377.5 C 134.778,376.376 138.278,380.376 136,389.5C 131.998,393.122 127.665,393.456 123,390.5C 120.458,385.438 121.292,381.105 125.5,377.5 Z"/></g>
</svg>
