<?xml version="1.0" standalone="no"?>
<!DOCTYPE svg PUBLIC "-//W3C//DTD SVG 20010904//EN"
 "http://www.w3.org/TR/2001/REC-SVG-20010904/DTD/svg10.dtd">
<svg version="1.0" xmlns="http://www.w3.org/2000/svg"
 width="24.000000pt" height="24.000000pt" viewBox="0 0 24.000000 24.000000"
 preserveAspectRatio="xMidYMid meet">

<g transform="translate(0.000000,24.000000) scale(0.100000,-0.100000)"
fill="#000000" stroke="none">
<path d="M0 179 c0 -40 4 -58 11 -53 6 3 24 -6 40 -22 l29 -28 68 67 c53 53
70 65 80 55 9 -9 12 -6 12 15 l0 27 -120 0 -120 0 0 -61z"/>
<path d="M160 105 l-74 -75 -43 42 -43 42 0 -57 0 -57 120 0 120 0 0 90 c0 50
-1 90 -3 90 -1 0 -36 -34 -77 -75z"/>
</g>
</svg>
