<?xml version="1.0" standalone="no"?>
<!DOCTYPE svg PUBLIC "-//W3C//DTD SVG 20010904//EN"
 "http://www.w3.org/TR/2001/REC-SVG-20010904/DTD/svg10.dtd">
<svg version="1.0" xmlns="http://www.w3.org/2000/svg"
 width="720.000000pt" height="1250.000000pt" viewBox="0 0 720.000000 1250.000000"
 preserveAspectRatio="xMidYMid meet">

<g transform="translate(0.000000,1250.000000) scale(0.100000,-0.100000)"
fill="#000000" stroke="none">
<path d="M0 11485 l0 -1016 708 3 707 3 67 33 c36 18 81 49 99 69 71 82 102
203 76 299 -8 30 -196 382 -447 838 l-433 786 -388 0 -389 0 0 -1015z m187
979 c-3 -3 -12 -4 -19 -1 -8 3 -5 6 6 6 11 1 17 -2 13 -5z m100 0 c-3 -3 -12
-4 -19 -1 -8 3 -5 6 6 6 11 1 17 -2 13 -5z m100 0 c-3 -3 -12 -4 -19 -1 -8 3
-5 6 6 6 11 1 17 -2 13 -5z m100 0 c-3 -3 -12 -4 -19 -1 -8 3 -5 6 6 6 11 1
17 -2 13 -5z m100 0 c-3 -3 -12 -4 -19 -1 -8 3 -5 6 6 6 11 1 17 -2 13 -5z
m-400 -40 c-3 -3 -12 -4 -19 -1 -8 3 -5 6 6 6 11 1 17 -2 13 -5z m100 0 c-3
-3 -12 -4 -19 -1 -8 3 -5 6 6 6 11 1 17 -2 13 -5z m100 0 c-3 -3 -12 -4 -19
-1 -8 3 -5 6 6 6 11 1 17 -2 13 -5z m100 0 c-3 -3 -12 -4 -19 -1 -8 3 -5 6 6
6 11 1 17 -2 13 -5z m100 0 c-3 -3 -12 -4 -19 -1 -8 3 -5 6 6 6 11 1 17 -2 13
-5z m-400 -40 c-3 -3 -12 -4 -19 -1 -8 3 -5 6 6 6 11 1 17 -2 13 -5z m100 0
c-3 -3 -12 -4 -19 -1 -8 3 -5 6 6 6 11 1 17 -2 13 -5z m100 0 c-3 -3 -12 -4
-19 -1 -8 3 -5 6 6 6 11 1 17 -2 13 -5z m100 0 c-3 -3 -12 -4 -19 -1 -8 3 -5
6 6 6 11 1 17 -2 13 -5z m100 0 c-3 -3 -12 -4 -19 -1 -8 3 -5 6 6 6 11 1 17
-2 13 -5z m-400 -40 c-3 -3 -12 -4 -19 -1 -8 3 -5 6 6 6 11 1 17 -2 13 -5z
m100 0 c-3 -3 -12 -4 -19 -1 -8 3 -5 6 6 6 11 1 17 -2 13 -5z m100 0 c-3 -3
-12 -4 -19 -1 -8 3 -5 6 6 6 11 1 17 -2 13 -5z m100 0 c-3 -3 -12 -4 -19 -1
-8 3 -5 6 6 6 11 1 17 -2 13 -5z m100 0 c-3 -3 -12 -4 -19 -1 -8 3 -5 6 6 6
11 1 17 -2 13 -5z m-400 -40 c-3 -3 -12 -4 -19 -1 -8 3 -5 6 6 6 11 1 17 -2
13 -5z m100 0 c-3 -3 -12 -4 -19 -1 -8 3 -5 6 6 6 11 1 17 -2 13 -5z m100 0
c-3 -3 -12 -4 -19 -1 -8 3 -5 6 6 6 11 1 17 -2 13 -5z m100 0 c-3 -3 -12 -4
-19 -1 -8 3 -5 6 6 6 11 1 17 -2 13 -5z m100 0 c-3 -3 -12 -4 -19 -1 -8 3 -5
6 6 6 11 1 17 -2 13 -5z m-400 -40 c-3 -3 -12 -4 -19 -1 -8 3 -5 6 6 6 11 1
17 -2 13 -5z m100 0 c-3 -3 -12 -4 -19 -1 -8 3 -5 6 6 6 11 1 17 -2 13 -5z
m100 0 c-3 -3 -12 -4 -19 -1 -8 3 -5 6 6 6 11 1 17 -2 13 -5z m100 0 c-3 -3
-12 -4 -19 -1 -8 3 -5 6 6 6 11 1 17 -2 13 -5z m100 0 c-3 -3 -12 -4 -19 -1
-8 3 -5 6 6 6 11 1 17 -2 13 -5z m-400 -40 c-3 -3 -12 -4 -19 -1 -8 3 -5 6 6
6 11 1 17 -2 13 -5z m100 0 c-3 -3 -12 -4 -19 -1 -8 3 -5 6 6 6 11 1 17 -2 13
-5z m100 0 c-3 -3 -12 -4 -19 -1 -8 3 -5 6 6 6 11 1 17 -2 13 -5z m103 2 c0
-11 -19 -15 -25 -6 -3 5 1 10 9 10 9 0 16 -2 16 -4z m100 0 c0 -11 -19 -15
-25 -6 -3 5 1 10 9 10 9 0 16 -2 16 -4z m-400 -40 c0 -11 -19 -15 -25 -6 -3 5
1 10 9 10 9 0 16 -2 16 -4z m100 0 c0 -11 -19 -15 -25 -6 -3 5 1 10 9 10 9 0
16 -2 16 -4z m100 0 c0 -11 -19 -15 -25 -6 -3 5 1 10 9 10 9 0 16 -2 16 -4z
m100 0 c0 -11 -19 -15 -25 -6 -3 5 1 10 9 10 9 0 16 -2 16 -4z m100 0 c0 -11
-19 -15 -25 -6 -3 5 1 10 9 10 9 0 16 -2 16 -4z m-400 -40 c0 -11 -19 -15 -25
-6 -3 5 1 10 9 10 9 0 16 -2 16 -4z m100 0 c0 -11 -19 -15 -25 -6 -3 5 1 10 9
10 9 0 16 -2 16 -4z m100 0 c0 -11 -19 -15 -25 -6 -3 5 1 10 9 10 9 0 16 -2
16 -4z m100 0 c0 -11 -19 -15 -25 -6 -3 5 1 10 9 10 9 0 16 -2 16 -4z m100 0
c0 -11 -19 -15 -25 -6 -3 5 1 10 9 10 9 0 16 -2 16 -4z m-405 -46 c-3 -5 -10
-10 -16 -10 -5 0 -9 5 -9 10 0 6 7 10 16 10 8 0 12 -4 9 -10z m105 6 c0 -11
-19 -15 -25 -6 -3 5 1 10 9 10 9 0 16 -2 16 -4z m100 0 c0 -11 -19 -15 -25 -6
-3 5 1 10 9 10 9 0 16 -2 16 -4z m100 0 c0 -11 -19 -15 -25 -6 -3 5 1 10 9 10
9 0 16 -2 16 -4z m100 0 c0 -11 -19 -15 -25 -6 -3 5 1 10 9 10 9 0 16 -2 16
-4z m-405 -46 c-3 -5 -10 -10 -16 -10 -5 0 -9 5 -9 10 0 6 7 10 16 10 8 0 12
-4 9 -10z m100 0 c-3 -5 -10 -10 -16 -10 -5 0 -9 5 -9 10 0 6 7 10 16 10 8 0
12 -4 9 -10z m105 6 c0 -11 -19 -15 -25 -6 -3 5 1 10 9 10 9 0 16 -2 16 -4z
m100 0 c0 -11 -19 -15 -25 -6 -3 5 1 10 9 10 9 0 16 -2 16 -4z m100 0 c0 -11
-19 -15 -25 -6 -3 5 1 10 9 10 9 0 16 -2 16 -4z m-405 -46 c-3 -5 -10 -10 -16
-10 -5 0 -9 5 -9 10 0 6 7 10 16 10 8 0 12 -4 9 -10z m100 0 c-3 -5 -10 -10
-16 -10 -5 0 -9 5 -9 10 0 6 7 10 16 10 8 0 12 -4 9 -10z m100 0 c-3 -5 -10
-10 -16 -10 -5 0 -9 5 -9 10 0 6 7 10 16 10 8 0 12 -4 9 -10z m105 6 c0 -11
-19 -15 -25 -6 -3 5 1 10 9 10 9 0 16 -2 16 -4z m100 0 c0 -11 -19 -15 -25 -6
-3 5 1 10 9 10 9 0 16 -2 16 -4z m-405 -46 c-3 -5 -10 -10 -16 -10 -5 0 -9 5
-9 10 0 6 7 10 16 10 8 0 12 -4 9 -10z m100 0 c-3 -5 -10 -10 -16 -10 -5 0 -9
5 -9 10 0 6 7 10 16 10 8 0 12 -4 9 -10z m100 0 c-3 -5 -10 -10 -16 -10 -5 0
-9 5 -9 10 0 6 7 10 16 10 8 0 12 -4 9 -10z m100 0 c-3 -5 -10 -10 -16 -10 -5
0 -9 5 -9 10 0 6 7 10 16 10 8 0 12 -4 9 -10z m105 6 c0 -11 -19 -15 -25 -6
-3 5 1 10 9 10 9 0 16 -2 16 -4z m-405 -46 c-3 -5 -10 -10 -16 -10 -5 0 -9 5
-9 10 0 6 7 10 16 10 8 0 12 -4 9 -10z m100 0 c-3 -5 -10 -10 -16 -10 -5 0 -9
5 -9 10 0 6 7 10 16 10 8 0 12 -4 9 -10z m100 0 c-3 -5 -10 -10 -16 -10 -5 0
-9 5 -9 10 0 6 7 10 16 10 8 0 12 -4 9 -10z m100 0 c-3 -5 -10 -10 -16 -10 -5
0 -9 5 -9 10 0 6 7 10 16 10 8 0 12 -4 9 -10z m100 0 c-3 -5 -10 -10 -16 -10
-5 0 -9 5 -9 10 0 6 7 10 16 10 8 0 12 -4 9 -10z m-400 -40 c-3 -5 -10 -10
-16 -10 -5 0 -9 5 -9 10 0 6 7 10 16 10 8 0 12 -4 9 -10z m100 0 c-3 -5 -10
-10 -16 -10 -5 0 -9 5 -9 10 0 6 7 10 16 10 8 0 12 -4 9 -10z m100 0 c-3 -5
-10 -10 -16 -10 -5 0 -9 5 -9 10 0 6 7 10 16 10 8 0 12 -4 9 -10z m100 0 c-3
-5 -10 -10 -16 -10 -5 0 -9 5 -9 10 0 6 7 10 16 10 8 0 12 -4 9 -10z m100 0
c-3 -5 -10 -10 -16 -10 -5 0 -9 5 -9 10 0 6 7 10 16 10 8 0 12 -4 9 -10z
m-400 -40 c-3 -5 -10 -10 -16 -10 -5 0 -9 5 -9 10 0 6 7 10 16 10 8 0 12 -4 9
-10z m100 0 c-3 -5 -10 -10 -16 -10 -5 0 -9 5 -9 10 0 6 7 10 16 10 8 0 12 -4
9 -10z m100 0 c-3 -5 -10 -10 -16 -10 -5 0 -9 5 -9 10 0 6 7 10 16 10 8 0 12
-4 9 -10z m100 0 c-3 -5 -10 -10 -16 -10 -5 0 -9 5 -9 10 0 6 7 10 16 10 8 0
12 -4 9 -10z m100 0 c-3 -5 -10 -10 -16 -10 -5 0 -9 5 -9 10 0 6 7 10 16 10 8
0 12 -4 9 -10z m-400 -40 c-3 -5 -10 -10 -16 -10 -5 0 -9 5 -9 10 0 6 7 10 16
10 8 0 12 -4 9 -10z m100 0 c-3 -5 -10 -10 -16 -10 -5 0 -9 5 -9 10 0 6 7 10
16 10 8 0 12 -4 9 -10z m100 0 c-3 -5 -10 -10 -16 -10 -5 0 -9 5 -9 10 0 6 7
10 16 10 8 0 12 -4 9 -10z m100 0 c-3 -5 -10 -10 -16 -10 -5 0 -9 5 -9 10 0 6
7 10 16 10 8 0 12 -4 9 -10z m100 0 c-3 -5 -10 -10 -16 -10 -5 0 -9 5 -9 10 0
6 7 10 16 10 8 0 12 -4 9 -10z m-400 -40 c-3 -5 -10 -10 -16 -10 -5 0 -9 5 -9
10 0 6 7 10 16 10 8 0 12 -4 9 -10z m100 0 c-3 -5 -10 -10 -16 -10 -5 0 -9 5
-9 10 0 6 7 10 16 10 8 0 12 -4 9 -10z m100 0 c-3 -5 -10 -10 -16 -10 -5 0 -9
5 -9 10 0 6 7 10 16 10 8 0 12 -4 9 -10z m100 0 c-3 -5 -10 -10 -16 -10 -5 0
-9 5 -9 10 0 6 7 10 16 10 8 0 12 -4 9 -10z m100 0 c-3 -5 -10 -10 -16 -10 -5
0 -9 5 -9 10 0 6 7 10 16 10 8 0 12 -4 9 -10z m-400 -40 c-3 -5 -10 -10 -16
-10 -5 0 -9 5 -9 10 0 6 7 10 16 10 8 0 12 -4 9 -10z m100 0 c-3 -5 -10 -10
-16 -10 -5 0 -9 5 -9 10 0 6 7 10 16 10 8 0 12 -4 9 -10z m100 0 c-3 -5 -10
-10 -16 -10 -5 0 -9 5 -9 10 0 6 7 10 16 10 8 0 12 -4 9 -10z m100 0 c-3 -5
-10 -10 -16 -10 -5 0 -9 5 -9 10 0 6 7 10 16 10 8 0 12 -4 9 -10z m100 0 c-3
-5 -10 -10 -16 -10 -5 0 -9 5 -9 10 0 6 7 10 16 10 8 0 12 -4 9 -10z m-400
-40 c-3 -5 -10 -10 -16 -10 -5 0 -9 5 -9 10 0 6 7 10 16 10 8 0 12 -4 9 -10z
m100 0 c-3 -5 -10 -10 -16 -10 -5 0 -9 5 -9 10 0 6 7 10 16 10 8 0 12 -4 9
-10z m100 0 c-3 -5 -10 -10 -16 -10 -5 0 -9 5 -9 10 0 6 7 10 16 10 8 0 12 -4
9 -10z m100 0 c-3 -5 -10 -10 -16 -10 -5 0 -9 5 -9 10 0 6 7 10 16 10 8 0 12
-4 9 -10z m100 0 c-3 -5 -10 -10 -16 -10 -5 0 -9 5 -9 10 0 6 7 10 16 10 8 0
12 -4 9 -10z m-400 -40 c-3 -5 -10 -10 -16 -10 -5 0 -9 5 -9 10 0 6 7 10 16
10 8 0 12 -4 9 -10z m100 0 c-3 -5 -10 -10 -16 -10 -5 0 -9 5 -9 10 0 6 7 10
16 10 8 0 12 -4 9 -10z m100 0 c-3 -5 -10 -10 -16 -10 -5 0 -9 5 -9 10 0 6 7
10 16 10 8 0 12 -4 9 -10z m100 0 c-3 -5 -10 -10 -16 -10 -5 0 -9 5 -9 10 0 6
7 10 16 10 8 0 12 -4 9 -10z m100 0 c-3 -5 -10 -10 -16 -10 -5 0 -9 5 -9 10 0
6 7 10 16 10 8 0 12 -4 9 -10z m-400 -40 c-3 -5 -10 -10 -16 -10 -5 0 -9 5 -9
10 0 6 7 10 16 10 8 0 12 -4 9 -10z m100 0 c-3 -5 -10 -10 -16 -10 -5 0 -9 5
-9 10 0 6 7 10 16 10 8 0 12 -4 9 -10z m100 0 c-3 -5 -10 -10 -16 -10 -5 0 -9
5 -9 10 0 6 7 10 16 10 8 0 12 -4 9 -10z m100 0 c-3 -5 -10 -10 -16 -10 -5 0
-9 5 -9 10 0 6 7 10 16 10 8 0 12 -4 9 -10z m100 0 c-3 -5 -10 -10 -16 -10 -5
0 -9 5 -9 10 0 6 7 10 16 10 8 0 12 -4 9 -10z m-400 -40 c-3 -5 -10 -10 -16
-10 -5 0 -9 5 -9 10 0 6 7 10 16 10 8 0 12 -4 9 -10z m100 0 c-3 -5 -10 -10
-16 -10 -5 0 -9 5 -9 10 0 6 7 10 16 10 8 0 12 -4 9 -10z m100 0 c-3 -5 -10
-10 -16 -10 -5 0 -9 5 -9 10 0 6 7 10 16 10 8 0 12 -4 9 -10z m100 0 c-3 -5
-10 -10 -16 -10 -5 0 -9 5 -9 10 0 6 7 10 16 10 8 0 12 -4 9 -10z m100 0 c-3
-5 -10 -10 -16 -10 -5 0 -9 5 -9 10 0 6 7 10 16 10 8 0 12 -4 9 -10z m-400
-40 c-3 -5 -10 -10 -16 -10 -5 0 -9 5 -9 10 0 6 7 10 16 10 8 0 12 -4 9 -10z
m100 0 c-3 -5 -10 -10 -16 -10 -5 0 -9 5 -9 10 0 6 7 10 16 10 8 0 12 -4 9
-10z m100 0 c-3 -5 -10 -10 -16 -10 -5 0 -9 5 -9 10 0 6 7 10 16 10 8 0 12 -4
9 -10z m100 0 c-3 -5 -10 -10 -16 -10 -5 0 -9 5 -9 10 0 6 7 10 16 10 8 0 12
-4 9 -10z m100 0 c-3 -5 -10 -10 -16 -10 -5 0 -9 5 -9 10 0 6 7 10 16 10 8 0
12 -4 9 -10z m-400 -40 c-3 -5 -10 -10 -16 -10 -5 0 -9 5 -9 10 0 6 7 10 16
10 8 0 12 -4 9 -10z m100 0 c-3 -5 -10 -10 -16 -10 -5 0 -9 5 -9 10 0 6 7 10
16 10 8 0 12 -4 9 -10z m100 0 c-3 -5 -10 -10 -16 -10 -5 0 -9 5 -9 10 0 6 7
10 16 10 8 0 12 -4 9 -10z m100 0 c-3 -5 -10 -10 -16 -10 -5 0 -9 5 -9 10 0 6
7 10 16 10 8 0 12 -4 9 -10z m100 0 c-3 -5 -10 -10 -16 -10 -5 0 -9 5 -9 10 0
6 7 10 16 10 8 0 12 -4 9 -10z m-400 -40 c-3 -5 -10 -10 -16 -10 -5 0 -9 5 -9
10 0 6 7 10 16 10 8 0 12 -4 9 -10z m100 0 c-3 -5 -10 -10 -16 -10 -5 0 -9 5
-9 10 0 6 7 10 16 10 8 0 12 -4 9 -10z m100 0 c-3 -5 -10 -10 -16 -10 -5 0 -9
5 -9 10 0 6 7 10 16 10 8 0 12 -4 9 -10z m100 0 c-3 -5 -10 -10 -16 -10 -5 0
-9 5 -9 10 0 6 7 10 16 10 8 0 12 -4 9 -10z m100 0 c-3 -5 -10 -10 -16 -10 -5
0 -9 5 -9 10 0 6 7 10 16 10 8 0 12 -4 9 -10z m-400 -40 c-3 -5 -10 -10 -16
-10 -5 0 -9 5 -9 10 0 6 7 10 16 10 8 0 12 -4 9 -10z m100 0 c-3 -5 -10 -10
-16 -10 -5 0 -9 5 -9 10 0 6 7 10 16 10 8 0 12 -4 9 -10z m100 0 c-3 -5 -10
-10 -16 -10 -5 0 -9 5 -9 10 0 6 7 10 16 10 8 0 12 -4 9 -10z m100 0 c-3 -5
-10 -10 -16 -10 -5 0 -9 5 -9 10 0 6 7 10 16 10 8 0 12 -4 9 -10z m100 0 c-3
-5 -10 -10 -16 -10 -5 0 -9 5 -9 10 0 6 7 10 16 10 8 0 12 -4 9 -10z"/>
<path d="M6102 12042 c-144 -251 -262 -461 -262 -467 0 -8 393 -696 692 -1210
l64 -110 302 -3 c297 -2 302 -2 302 18 0 20 -6 20 -289 20 l-289 0 -88 153
c-48 83 -210 364 -359 622 -150 259 -277 479 -283 491 -10 18 23 80 254 478
145 252 264 460 264 462 0 2 -10 4 -22 4 -20 -1 -63 -71 -286 -458z"/>
<path d="M5704 12241 c-33 -15 -45 -28 -58 -63 -16 -41 -16 -47 -1 -86 22 -55
87 -90 137 -73 47 17 66 33 84 76 14 35 14 42 -1 83 -14 35 -26 48 -59 63 -22
10 -45 19 -51 19 -5 0 -29 -9 -51 -19z"/>
<path d="M5572 11893 c-148 -257 -144 -248 -145 -311 0 -42 7 -70 26 -107 59
-116 820 -1402 845 -1429 55 -59 87 -66 303 -66 236 0 254 -3 269 -41 8 -18
28 -36 56 -49 37 -18 49 -20 77 -11 45 15 73 42 87 85 10 30 8 42 -8 79 -16
37 -28 47 -65 62 -43 16 -46 16 -90 -3 -35 -16 -48 -28 -58 -56 l-13 -37 -232
3 -232 3 -43 30 c-37 26 -94 119 -462 745 l-420 715 -4 65 -4 65 110 190 c60
104 107 193 105 197 -12 19 -27 0 -102 -129z"/>
<path d="M3427 11965 c-219 -42 -393 -132 -554 -288 -143 -139 -239 -303 -291
-497 -22 -83 -25 -116 -25 -260 0 -146 3 -176 26 -262 49 -186 141 -349 272
-482 42 -43 74 -80 71 -83 -3 -4 -37 -1 -75 6 -84 15 -194 66 -236 109 -16 17
-32 32 -35 32 -3 0 -4 -25 -2 -56 3 -59 25 -112 67 -162 22 -26 23 -31 8 -36
-34 -13 -130 -18 -180 -8 -66 12 -70 -1 -14 -57 52 -52 147 -96 268 -124 96
-23 98 -24 95 -51 -5 -43 52 -90 146 -120 129 -40 214 -49 409 -43 191 6 284
21 472 77 57 17 105 29 107 27 2 -2 10 -44 17 -93 l12 -89 66 -3 c63 -3 71 0
185 57 65 33 148 80 184 104 36 24 110 74 164 111 55 36 133 83 174 104 l75
36 -32 14 c-18 7 -69 17 -114 23 -115 15 -111 13 -91 51 9 18 39 63 65 100 27
37 49 73 49 79 0 22 -80 1 -153 -41 -40 -22 -105 -65 -145 -95 -40 -30 -74
-55 -76 -55 -1 0 -11 25 -21 55 l-19 54 75 78 c127 132 212 278 265 458 35
121 45 346 20 478 -78 413 -377 729 -791 838 -106 28 -327 35 -438 14z m455
-99 c47 -14 94 -29 104 -33 13 -5 16 -3 11 10 -3 9 -1 19 4 23 17 10 188 -80
243 -127 45 -40 47 -44 30 -56 -17 -12 -14 -17 36 -68 50 -50 55 -53 71 -39
16 14 21 11 64 -43 46 -58 129 -215 141 -265 5 -24 3 -28 -15 -28 -12 0 -21
-2 -21 -3 0 -2 9 -46 20 -98 12 -52 23 -147 27 -211 5 -96 9 -118 22 -120 30
-6 5 -153 -44 -264 -22 -50 -40 -63 -56 -41 -3 5 -25 -23 -48 -62 -54 -91
-146 -204 -210 -259 l-51 -43 0 126 0 126 41 51 c51 65 100 162 131 258 20 65
23 95 23 220 -1 88 -6 163 -14 190 -85 296 -285 500 -568 582 -110 32 -302 32
-421 0 -222 -60 -411 -217 -512 -425 -57 -118 -74 -198 -74 -347 0 -186 46
-331 149 -468 l55 -73 0 -123 0 -122 -39 2 c-50 2 -70 13 -47 26 9 5 16 14 16
21 -1 7 -37 50 -81 96 -44 47 -77 76 -74 65 6 -18 6 -18 -10 1 -17 20 -17 20
-10 -5 l6 -25 -21 25 c-63 76 -145 269 -165 388 -6 39 -5 44 14 49 19 5 20 12
20 123 0 84 6 146 22 216 33 154 33 154 15 154 -23 0 -20 22 13 93 39 85 64
115 84 99 12 -11 23 -3 65 50 53 67 143 156 205 202 35 27 36 30 22 46 -15 17
-14 19 14 39 53 38 139 73 162 66 17 -6 19 -9 8 -16 -21 -13 23 -12 58 2 142
56 426 63 585 15z m-39 -253 c123 -43 189 -85 287 -183 145 -144 212 -306 212
-510 0 -124 -23 -223 -75 -326 -69 -135 -66 -141 -67 154 0 144 -2 262 -5 262
-2 0 -71 -40 -152 -88 -81 -49 -212 -125 -289 -170 l-142 -82 -83 49 c-46 27
-174 102 -284 167 -110 66 -203 121 -207 122 -5 2 -9 -63 -9 -145 -1 -81 -4
-199 -8 -261 l-6 -114 -37 64 c-119 204 -129 458 -28 675 75 161 187 274 345
349 121 58 202 74 345 70 96 -3 129 -8 203 -33z m57 7 c8 -5 11 -10 5 -10 -5
0 -17 5 -25 10 -8 5 -10 10 -5 10 6 0 17 -5 25 -10z m120 -66 c0 -2 -9 0 -20
6 -11 6 -20 13 -20 16 0 2 9 0 20 -6 11 -6 20 -13 20 -16z m61 -41 c13 -16 12
-17 -3 -4 -17 13 -22 21 -14 21 2 0 10 -8 17 -17z m-313 -898 c27 -8 52 -53
52 -95 0 -43 -39 -80 -85 -80 l-35 0 0 49 c0 51 13 72 33 52 8 -8 8 -14 -1
-23 -7 -7 -12 -25 -12 -40 0 -23 4 -28 25 -28 59 0 86 81 44 134 -16 21 -29
26 -64 26 -73 0 -89 -21 -96 -132 l-5 -93 -2 85 c-2 96 9 123 62 146 30 13 36
13 84 -1z m78 -579 c14 -22 13 -24 -13 -34 -75 -29 -361 -95 -372 -86 -2 2 3
12 12 22 18 19 22 68 9 89 -4 7 -24 19 -45 28 l-37 15 0 126 c0 103 3 125 14
121 7 -3 55 -35 105 -72 50 -37 97 -65 104 -62 6 3 55 37 107 77 l95 71 3
-136 c2 -101 7 -143 18 -159z m-1058 65 c60 -15 84 -40 33 -33 -41 5 -149 53
-155 68 -4 12 1 11 27 -3 17 -9 60 -24 95 -32z m1718 -41 c-65 -45 -121 -78
-124 -75 -7 6 6 16 121 95 49 33 95 60 104 60 9 0 -37 -36 -101 -80z m-286 41
c0 -5 -13 -11 -29 -14 -16 -4 -87 -28 -158 -56 -132 -50 -206 -71 -188 -53 10
10 264 116 300 125 34 8 75 7 75 -2z m-1175 -31 c3 -5 2 -10 -4 -10 -5 0 -13
5 -16 10 -3 6 -2 10 4 10 5 0 13 -4 16 -10z m-125 -4 c0 -11 -19 -15 -25 -6
-3 5 1 10 9 10 9 0 16 -2 16 -4z m1185 -113 c-5 -32 -8 -66 -7 -76 0 -10 -4
-15 -10 -11 -9 6 -5 62 9 122 10 43 15 21 8 -35z m-415 -27 c-15 -14 -151 -46
-196 -46 -55 0 -17 18 79 37 132 27 135 27 117 9z m-507 -28 c42 -6 77 -15 77
-20 0 -17 -150 3 -204 27 l-31 15 40 -5 c22 -3 75 -10 118 -17z m882 -13 c0
-35 -17 -43 -23 -11 -3 13 13 46 22 46 0 0 1 -16 1 -35z m-190 -2 c-1 -10 -7
-31 -14 -47 -6 -16 -10 -35 -8 -41 3 -6 -3 -12 -13 -12 -16 -1 -17 1 -4 25 14
26 13 27 -19 33 l-32 6 33 2 c25 1 35 7 42 26 11 29 17 32 15 8z m145 -18 c0
-19 -4 -35 -10 -35 -11 0 -14 53 -3 63 11 12 13 8 13 -28z m690 20 c0 -6 -145
-104 -167 -112 -32 -13 -2 17 69 67 63 44 98 60 98 45z m-2020 -40 c52 -15
101 -28 108 -31 27 -8 0 -23 -31 -17 -54 11 -166 51 -189 69 -27 19 -33 20
112 -21z m1295 0 c0 -29 -2 -32 -13 -21 -11 11 -11 18 -3 35 15 28 16 27 16
-14z m-38 -7 c-3 -8 -6 -5 -6 6 -1 11 2 17 5 13 3 -3 4 -12 1 -19z m-247 2
c-8 -5 -24 -9 -35 -9 l-20 0 20 9 c11 5 27 9 35 9 13 1 13 0 0 -9z m222 -16
c-3 -17 -8 -22 -15 -15 -7 7 -6 15 3 26 17 20 18 19 12 -11z m348 7 c0 -5 -12
-12 -27 -15 -16 -4 -80 -26 -143 -50 -131 -50 -170 -60 -170 -47 0 11 3 12
165 72 128 47 175 58 175 40z m-604 -37 c-6 -23 -5 -24 16 -13 22 12 22 11 6
-8 -10 -11 -18 -26 -18 -34 0 -12 -2 -12 -9 0 -7 11 -11 9 -21 -9 -6 -12 -14
-19 -17 -16 -3 3 -1 11 4 18 6 7 16 30 22 51 14 42 27 51 17 11z m-515 -12
c-11 -16 -27 -35 -36 -42 -18 -15 -19 -27 -2 -33 6 -2 1 -2 -13 0 -14 3 -29 9
-35 15 -7 8 -5 9 7 5 12 -4 21 0 28 13 14 26 13 27 -15 34 -14 4 -25 11 -25
16 0 5 12 2 27 -5 25 -13 30 -13 48 5 29 30 39 24 16 -8z m484 -2 c-3 -5 -12
-10 -18 -10 -7 0 -6 4 3 10 19 12 23 12 15 0z m76 -27 c-12 -20 -14 -14 -5 12
4 9 9 14 11 11 3 -2 0 -13 -6 -23z m-154 -6 c-12 -13 -24 -22 -26 -20 -6 4 30
43 40 43 5 0 -2 -10 -14 -23z m-369 -23 c-7 -15 -14 -21 -16 -15 -5 16 5 41
17 41 7 0 6 -10 -1 -26z m23 3 c-10 -9 -11 -8 -5 6 3 10 9 15 12 12 3 -3 0
-11 -7 -18z m229 -17 c-16 -31 -23 -18 -8 15 7 15 14 23 16 17 2 -6 -2 -21 -8
-32z m-203 0 c-7 -19 -14 -25 -19 -17 -4 6 0 20 9 29 22 24 23 23 10 -12z m53
26 c0 -12 -28 -55 -33 -50 -7 8 14 54 25 54 4 0 8 -2 8 -4z m68 -4 c10 7 4 -2
-12 -20 -37 -40 -50 -41 -28 -2 9 16 19 25 20 19 3 -6 10 -5 20 3z m52 -22
c-10 -19 -30 -36 -30 -26 0 16 24 55 31 50 5 -3 5 -14 -1 -24z m-280 -77 c135
-18 143 -20 135 -33 -10 -17 -212 12 -290 41 -64 24 -66 44 -3 22 24 -8 95
-22 158 -30z m660 38 c0 -23 -274 -81 -294 -61 -10 10 -9 10 119 35 44 8 94
19 110 24 40 12 65 13 65 2z m300 -151 c-20 -13 -43 -13 -35 0 3 6 16 10 28
10 18 0 19 -2 7 -10z"/>
<path d="M3488 11854 c-3 -3 -2 -21 3 -41 4 -20 6 -41 3 -45 -3 -4 2 -8 11 -8
11 0 14 6 9 25 -3 14 -7 36 -8 50 -1 24 -7 31 -18 19z"/>
<path d="M3545 11851 c3 -6 1 -28 -4 -50 -5 -24 -5 -41 0 -41 5 0 9 7 9 15 0
8 5 15 10 15 6 0 10 -4 10 -10 0 -5 4 -10 9 -10 5 0 1 20 -8 45 -9 25 -20 45
-24 45 -5 0 -6 -4 -2 -9z"/>
<path d="M3600 11816 c0 -35 4 -45 20 -49 24 -6 30 2 19 28 l-8 20 -1 -20 c-1
-15 -4 -12 -11 10 -5 17 -7 36 -4 43 2 6 0 12 -5 12 -6 0 -10 -20 -10 -44z"/>
<path d="M3413 11843 c-13 -2 -23 -8 -23 -13 0 -5 7 -7 15 -4 9 4 15 0 15 -7
0 -12 2 -12 9 0 6 10 11 1 16 -28 4 -22 11 -41 16 -41 9 0 6 22 -8 74 -3 12
-1 16 6 12 6 -4 11 -2 11 3 0 11 -16 12 -57 4z"/>
<path d="M3746 11828 c-14 -61 -12 -73 13 -76 25 -4 25 -5 6 68 -6 24 -6 24 9
6 16 -19 16 -19 16 2 0 31 -38 30 -44 0z m24 -48 c0 -5 -5 -10 -11 -10 -5 0
-7 5 -4 10 3 6 8 10 11 10 2 0 4 -4 4 -10z"/>
<path d="M3805 11808 c-3 -18 -9 -41 -11 -50 -4 -13 0 -18 15 -18 11 0 23 5
27 12 5 7 10 4 15 -10 11 -28 29 -28 37 1 6 20 7 20 12 -8 4 -21 11 -29 23
-27 9 2 17 -2 17 -8 0 -5 5 -10 10 -10 6 0 10 7 10 16 0 9 -5 12 -12 8 -8 -5
-9 -2 -4 11 5 15 4 16 -9 5 -21 -17 -28 -8 -16 23 12 32 31 44 31 20 0 -15 2
-16 10 -3 5 8 10 18 10 23 0 13 -33 7 -52 -10 -19 -17 -19 -16 -13 8 5 21 2
27 -15 32 -17 4 -24 0 -28 -16 -6 -21 -6 -21 -12 3 -9 39 -37 37 -45 -2z m29
-15 c-7 -31 -12 -38 -18 -32 -7 7 6 59 15 59 5 0 6 -12 3 -27z m51 -22 c-4
-17 -10 -31 -15 -31 -4 0 -3 16 3 35 13 42 22 39 12 -4z"/>
<path d="M3363 11801 c6 -17 14 -28 18 -25 4 2 12 -3 19 -11 20 -25 30 -17 19
15 -6 16 -14 28 -19 25 -4 -3 -13 2 -20 10 -20 24 -29 17 -17 -14z"/>
<path d="M3301 11811 c-8 -5 -10 -14 -5 -22 6 -12 5 -12 -9 0 -14 11 -23 11
-49 0 -18 -7 -34 -14 -36 -15 -2 -1 4 -16 12 -33 20 -37 20 -47 2 -32 -8 7
-17 23 -20 36 -4 16 -11 22 -21 19 -16 -7 -20 -39 -6 -48 5 -3 11 -14 14 -25
4 -17 2 -18 -13 -8 -10 6 -17 14 -15 18 3 3 -2 15 -10 25 -13 18 -15 18 -31 2
-16 -15 -15 -18 6 -48 12 -17 20 -33 17 -36 -3 -3 -15 9 -27 25 -23 33 -28 35
-49 22 -11 -7 -10 -13 8 -32 11 -12 23 -31 27 -41 5 -18 24 -26 24 -10 0 5 42
30 94 55 54 27 97 55 99 65 4 16 5 16 6 0 1 -21 11 -23 33 -5 11 8 13 18 8 32
-7 17 -9 17 -9 3 -1 -10 -5 -18 -11 -18 -5 0 -7 7 -3 15 3 9 -3 23 -13 31 -17
14 -17 15 -1 10 11 -3 17 0 17 9 0 17 -18 19 -39 6z m-11 -80 c-1 -10 -6 -7
-15 9 -19 33 -18 50 0 26 8 -11 15 -27 15 -35z m-35 8 c9 -17 14 -33 11 -36
-4 -4 -36 49 -36 62 0 13 11 2 25 -26z m-45 -49 c0 -5 -2 -10 -4 -10 -3 0 -8
5 -11 10 -3 6 -1 10 4 10 6 0 11 -4 11 -10z"/>
<path d="M3977 11756 c-18 -27 -12 -64 12 -83 23 -18 26 -17 40 23 9 24 16 32
21 24 5 -8 9 -7 14 6 7 19 8 18 -20 32 -21 11 -34 7 -34 -10 0 -5 5 -6 10 -3
6 3 10 4 10 2 0 -8 -32 -67 -36 -67 -3 0 -2 23 2 50 7 56 4 61 -19 26z"/>
<path d="M3380 11746 c0 -9 5 -16 10 -16 6 0 10 4 10 9 0 6 -4 13 -10 16 -5 3
-10 -1 -10 -9z"/>
<path d="M4058 11694 c-17 -28 -23 -46 -16 -50 5 -4 14 0 19 7 7 11 9 9 9 -7
0 -12 11 -29 25 -38 30 -20 32 -20 38 2 3 11 5 8 6 -9 1 -17 11 -33 27 -44 14
-9 27 -15 29 -13 12 14 45 91 41 96 -4 3 -22 -10 -41 -28 -40 -39 -48 -27 -10
14 14 15 25 29 25 32 0 10 -29 3 -34 -8 -3 -7 -3 -3 0 10 4 15 1 22 -9 22 -9
0 -17 -3 -20 -7 -2 -5 -3 -3 -1 3 1 6 -2 17 -6 25 -7 11 -15 9 -40 -9 -29 -22
-30 -22 -18 -3 7 12 16 21 20 21 13 0 9 17 -4 23 -7 2 -25 -15 -40 -39z m72
-12 c0 -13 -31 -52 -41 -52 -5 0 -3 14 6 30 14 28 35 41 35 22z m60 -112 c0
-5 -5 -10 -11 -10 -5 0 -7 5 -4 10 3 6 8 10 11 10 2 0 4 -4 4 -10z"/>
<path d="M2970 11615 c-10 -12 -8 -21 14 -50 15 -19 31 -35 35 -35 14 0 33 29
26 40 -10 16 -25 11 -18 -7 4 -11 3 -14 -5 -9 -7 4 -12 14 -12 22 0 8 -7 14
-15 14 -8 0 -15 4 -15 10 0 5 8 6 18 3 15 -6 15 -5 3 10 -16 21 -16 21 -31 2z"/>
<path d="M4250 11601 c0 -5 -12 -23 -26 -40 -21 -26 -24 -34 -14 -46 16 -20
36 -19 44 1 9 24 7 28 -9 14 -25 -20 -17 3 11 33 14 15 22 32 19 37 -8 13 -25
13 -25 1z"/>
<path d="M2923 11569 c-8 -8 -2 -19 20 -39 40 -35 29 -49 -16 -23 -35 21 -46
18 -75 -18 -10 -14 -6 -20 29 -43 22 -15 44 -24 47 -20 4 4 1 9 -5 11 -7 3
-13 11 -13 19 0 8 -9 14 -20 14 -11 0 -20 5 -20 11 0 6 7 8 16 5 14 -5 15 -4
4 9 -7 8 -8 15 -3 15 5 0 22 -17 37 -37 19 -26 26 -31 21 -16 -5 17 -3 22 8
17 7 -2 20 2 27 11 10 12 10 18 -1 33 -13 15 -12 16 4 3 9 -8 21 -10 25 -6 4
4 1 10 -7 13 -7 2 -23 15 -34 28 -23 27 -28 29 -44 13z m27 -19 c0 -5 -2 -10
-4 -10 -3 0 -8 5 -11 10 -3 6 -1 10 4 10 6 0 11 -4 11 -10z"/>
<path d="M4318 11481 c-21 -14 -37 -32 -38 -38 0 -18 5 -17 49 15 50 37 40 58
-11 23z"/>
<path d="M4338 11438 c-21 -12 -38 -26 -38 -30 0 -5 12 -1 27 9 l26 18 -17
-28 c-10 -15 -14 -27 -8 -27 5 0 9 -8 8 -17 0 -10 7 -19 17 -21 23 -5 55 27
50 48 -4 13 -3 13 6 0 5 -8 13 -11 17 -7 5 4 -1 16 -12 27 -14 15 -23 17 -34
9 -12 -9 -11 -10 5 -5 19 6 19 6 -1 -12 -11 -9 -19 -23 -17 -29 2 -6 -1 -15
-8 -19 -9 -5 -10 -2 -6 9 4 10 1 17 -6 17 -7 1 -5 6 5 14 10 7 15 15 13 18 -3
3 1 11 10 18 16 13 20 30 8 30 -5 0 -25 -10 -45 -22z"/>
<path d="M2815 11431 c-3 -6 -3 -11 2 -11 4 -1 22 -12 38 -26 20 -17 24 -22
10 -17 -18 6 -18 5 -6 -10 7 -9 9 -17 4 -17 -5 0 -17 14 -26 30 -21 35 -28 37
-44 11 -10 -17 -7 -22 28 -46 23 -14 42 -25 44 -23 10 10 56 81 53 82 -2 1
-12 8 -22 16 -18 14 -18 13 -11 -9 l7 -24 -35 27 c-22 17 -38 23 -42 17z"/>
<path d="M4414 11358 c-5 -7 -3 -8 6 -3 8 5 11 4 7 -2 -4 -6 -20 -16 -37 -23
-16 -7 -30 -16 -30 -21 0 -14 12 -11 49 12 26 15 32 17 28 5 -4 -11 -1 -13 10
-9 11 4 14 2 9 -5 -4 -6 -22 -14 -41 -18 -20 -3 -35 -12 -35 -20 0 -17 8 -17
40 1 28 16 54 20 46 6 -4 -5 0 -11 6 -14 7 -2 -6 -10 -29 -17 -24 -7 -43 -17
-43 -22 0 -11 5 -10 46 7 31 13 35 13 31 0 -4 -9 -1 -12 9 -8 17 6 13 26 -22
96 -25 48 -37 56 -50 35z"/>
<path d="M2751 11324 c-12 -19 -21 -39 -21 -43 0 -10 100 -25 108 -16 3 3 -3
11 -14 19 -17 13 -16 14 11 9 29 -4 29 -4 10 12 -11 9 -30 25 -43 35 -12 11
-24 20 -26 20 -2 0 -13 -16 -25 -36z m44 -2 c-3 -3 -11 0 -18 7 -9 10 -8 11 6
5 10 -3 15 -9 12 -12z"/>
<path d="M2696 11243 c-6 -14 -5 -15 5 -6 7 7 10 15 7 18 -3 3 -9 -2 -12 -12z"/>
<path d="M2700 11197 c0 -46 72 -76 100 -42 6 8 9 19 6 24 -4 5 -2 12 4 16 13
8 13 25 -1 25 -18 0 -46 -33 -31 -38 25 -8 12 -24 -15 -17 -34 8 -54 25 -30
25 9 0 17 5 17 10 0 6 -4 10 -9 10 -5 0 -16 3 -25 6 -12 5 -16 0 -16 -19z"/>
<path d="M4460 11207 c-20 -7 -36 -20 -38 -31 -4 -17 0 -18 44 -13 29 4 43 3
35 -2 -11 -7 -11 -9 0 -13 8 -3 -5 -8 -28 -12 -24 -4 -43 -12 -43 -18 0 -9 22
-7 74 9 12 3 16 1 12 -6 -4 -6 -1 -11 7 -11 12 0 13 7 5 40 -8 30 -15 39 -27
36 -9 -3 -29 -8 -46 -11 l-30 -5 30 14 c17 9 36 15 43 16 6 0 12 5 12 10 0 12
-6 12 -50 -3z"/>
<path d="M2768 11119 c-2 -6 -21 -12 -43 -12 -35 -2 -40 -5 -43 -27 -2 -14 -1
-22 3 -18 4 3 27 1 51 -7 32 -10 44 -10 45 -2 0 7 2 27 3 45 3 30 -8 45 -16
21z m-51 -35 c-3 -3 -12 -4 -19 -1 -8 3 -5 6 6 6 11 1 17 -2 13 -5z m50 -10
c-3 -3 -12 -4 -19 -1 -8 3 -5 6 6 6 11 1 17 -2 13 -5z"/>
<path d="M4490 11090 c-19 -5 -39 -6 -44 -3 -5 3 -6 0 -4 -8 3 -8 11 -13 17
-11 6 1 27 3 46 5 20 1 35 7 35 15 0 13 0 13 -50 2z"/>
<path d="M4460 11045 c-16 -20 -4 -35 29 -35 33 0 67 23 57 38 -10 17 -71 15
-86 -3z m80 -4 c0 -11 -25 -21 -56 -21 -25 0 -33 15 -11 23 21 9 67 7 67 -2z"/>
<path d="M4497 11002 c-26 -2 -45 -7 -42 -12 3 -4 15 -6 28 -4 l22 5 -22 -17
c-22 -16 -31 -58 -15 -68 17 -10 92 7 92 21 0 22 -28 27 -55 9 -13 -9 -28 -16
-32 -16 -4 0 1 6 12 12 19 11 19 11 0 19 -14 5 -7 8 25 9 32 1 39 4 25 9 -19
8 -19 8 0 19 27 14 18 18 -38 14z"/>
<path d="M2713 10986 c-24 -5 -43 -13 -43 -17 0 -9 90 -22 98 -15 3 3 -2 6
-11 6 -22 0 -22 18 1 22 9 2 13 6 7 9 -5 2 -29 0 -52 -5z"/>
<path d="M2670 10930 c0 -5 5 -10 11 -10 5 0 7 5 4 10 -3 6 -8 10 -11 10 -2 0
-4 -4 -4 -10z"/>
<path d="M2735 10930 c-11 -4 -30 -10 -42 -15 -39 -13 -25 -25 28 -25 27 0 48
4 45 9 -3 5 -16 7 -28 3 -14 -3 -19 -2 -14 6 4 7 14 12 22 12 8 0 14 5 14 10
0 6 -1 10 -2 9 -2 -1 -12 -4 -23 -9z"/>
<path d="M2713 10862 c-24 -9 -43 -20 -43 -25 0 -5 6 -7 13 -4 8 3 29 2 48 -3
24 -5 27 -8 12 -9 -29 -1 -30 -21 -2 -21 11 0 17 -4 14 -10 -3 -5 -20 -10 -37
-10 -26 0 -29 2 -18 15 10 13 9 15 -9 15 -32 0 -25 -26 14 -48 17 -10 18 -11
3 -12 -10 0 -18 -4 -18 -10 0 -5 8 -7 18 -4 16 5 16 5 0 -9 -10 -8 -18 -17
-18 -21 0 -4 8 -5 18 -3 82 23 99 11 32 -23 -22 -11 -40 -23 -40 -26 0 -4 23
-4 52 -2 43 5 49 3 35 -7 -21 -15 -22 -29 -2 -21 8 3 15 1 15 -3 0 -5 -18 -12
-40 -16 -47 -8 -47 -15 -1 -97 25 -47 43 -59 56 -38 3 6 0 10 -7 10 -7 0 3 8
22 17 45 22 43 20 34 35 -5 7 -20 42 -34 78 -21 52 -30 64 -46 62 -18 -3 -18
-3 -2 10 26 19 13 61 -16 53 -18 -5 -19 -5 -3 5 9 6 17 15 17 20 0 5 -8 7 -17
3 -17 -5 -17 -5 -1 8 20 18 14 81 -8 72 -8 -3 -14 0 -14 6 0 6 7 11 15 11 8 0
15 5 15 10 0 13 -6 12 -57 -8z m87 -277 c-7 -8 -22 -15 -34 -15 -17 1 -16 3 9
15 39 18 40 18 25 0z m50 -50 c0 -2 -14 -12 -31 -20 -30 -16 -30 -16 -19 4 9
18 50 31 50 16z"/>
<path d="M4450 10826 c0 -8 5 -18 11 -21 6 -5 4 -12 -8 -21 -17 -13 -17 -15 4
-33 l23 -19 -26 -6 c-26 -7 -31 -35 -6 -44 7 -2 10 2 6 12 -8 21 25 22 52 1
19 -14 19 -14 -1 -15 -17 0 -17 -2 -5 -10 8 -5 18 -10 23 -10 13 0 7 33 -10
52 -13 14 -13 18 -2 18 8 0 21 5 29 10 13 9 10 14 -15 35 l-30 25 33 -6 c25
-5 32 -3 32 9 0 22 -18 31 -67 34 -32 3 -43 0 -43 -11z m75 -66 c4 -6 -6 -10
-24 -10 -16 0 -33 5 -36 10 -4 6 6 10 24 10 16 0 33 -4 36 -10z"/>
<path d="M4411 10645 c-12 -34 -9 -55 9 -55 5 0 7 7 4 15 -4 8 -1 15 5 15 6 0
11 -5 11 -10 0 -6 6 -10 13 -9 25 3 38 -1 32 -11 -4 -6 -12 -7 -18 -4 -9 5 -9
4 0 -6 6 -7 16 -9 22 -6 22 14 10 36 -31 55 -44 20 -30 29 17 11 15 -6 31 -7
37 -4 7 5 -71 44 -87 44 -1 0 -7 -16 -14 -35z"/>
<path d="M4387 10573 c-12 -11 -8 -23 7 -23 8 0 27 -5 43 -11 22 -8 24 -12 13
-19 -13 -8 -13 -10 1 -10 15 0 29 19 29 40 0 4 -7 11 -16 14 -9 4 -13 2 -8 -5
7 -12 -33 -3 -52 12 -6 5 -14 6 -17 2z"/>
<path d="M4360 10520 c0 -5 8 -14 18 -19 10 -5 24 -21 31 -35 8 -14 18 -23 23
-20 5 3 3 13 -4 22 -11 13 -10 15 5 9 11 -4 17 -2 17 8 0 8 -8 15 -18 15 -10
0 -27 7 -38 15 -22 17 -34 19 -34 5z"/>
<path d="M4346 10455 c-8 -21 3 -45 19 -39 7 3 11 14 8 25 -7 26 -20 32 -27
14z"/>
<path d="M2859 10455 c-1 -3 -2 -8 -3 -12 -1 -5 -5 -13 -9 -20 -11 -17 26 -21
39 -4 9 11 8 18 -2 28 -13 13 -23 17 -25 8z"/>
<path d="M2903 10394 c-7 -3 -9 -12 -6 -20 3 -8 -1 -14 -8 -15 -8 0 -5 -4 6
-9 29 -13 32 -12 38 10 3 11 1 20 -5 20 -5 0 -6 5 -3 10 6 10 -2 12 -22 4z"/>
<path d="M4296 10391 c-10 -15 4 -40 19 -35 15 6 13 36 -2 41 -6 2 -14 0 -17
-6z"/>
<path d="M2954 10332 c-15 -12 -16 -42 -1 -42 23 0 37 23 22 37 -6 6 -16 8
-21 5z"/>
<path d="M4251 10331 c-21 -14 0 -40 24 -30 11 4 14 8 7 8 -7 1 -11 5 -7 10 8
14 -8 21 -24 12z"/>
<path d="M3595 11545 c11 -35 18 -211 11 -248 l-7 -37 -67 54 c-65 53 -154
106 -176 106 -6 0 18 -31 54 -68 95 -99 161 -236 195 -401 7 -36 13 -56 14
-44 1 26 20 40 31 23 14 -23 35 125 35 250 -1 141 -18 227 -66 325 -16 33 -27
51 -24 40z m22 -587 c-3 -7 -5 -2 -5 12 0 14 2 19 5 13 2 -7 2 -19 0 -25z"/>
<path d="M3518 11405 c-16 -36 3 -75 37 -75 35 0 52 43 30 76 -20 31 -52 31
-67 -1z"/>
<path d="M3705 11405 c59 -169 49 -331 -30 -511 -14 -31 -24 -59 -22 -61 5 -4
63 66 104 127 46 68 100 178 116 240 21 75 31 184 18 175 -6 -3 -11 -14 -11
-23 0 -23 -47 -122 -58 -122 -4 0 -22 30 -40 68 -30 65 -92 151 -77 107z"/>
<path d="M3802 11348 c-18 -18 -14 -46 7 -58 34 -18 67 30 39 58 -7 7 -17 12
-23 12 -6 0 -16 -5 -23 -12z"/>
<path d="M3365 11288 c19 -29 37 -68 41 -85 l6 -33 -59 25 c-33 13 -84 27
-114 30 l-54 6 40 -17 c124 -54 255 -171 328 -295 38 -63 38 -64 31 -24 -25
148 -97 293 -197 403 -54 58 -64 53 -22 -10z"/>
<path d="M3323 11254 c-7 -19 30 -59 46 -50 15 9 14 39 -1 54 -17 17 -37 15
-45 -4z"/>
<path d="M3217 11182 c-20 -4 -2 -28 156 -204 49 -54 87 -101 84 -104 -2 -3
-64 58 -137 136 -98 103 -139 140 -156 140 -26 0 -32 -15 -10 -27 12 -7 62
-52 258 -232 27 -24 46 -46 44 -48 -2 -3 -69 51 -148 118 -78 67 -151 129
-160 137 -13 11 -24 12 -39 6 -19 -9 1 -26 177 -156 110 -80 203 -144 207
-141 5 3 -1 15 -12 27 -33 35 -24 43 10 10 17 -16 -30 53 -105 153 -76 101
-140 184 -144 186 -4 2 -15 2 -25 -1z m264 -359 c13 -16 12 -17 -3 -4 -17 13
-22 21 -14 21 2 0 10 -8 17 -17z"/>
<path d="M3831 10987 c-80 -106 -138 -186 -129 -180 8 7 17 11 20 8 2 -3 15 6
28 20 13 14 28 25 34 25 5 0 -2 -13 -17 -28 -15 -16 -25 -31 -21 -34 3 -4 -26
-28 -64 -53 l-71 -47 -48 33 c-26 18 -65 46 -86 62 -26 20 -42 26 -48 20 -7
-7 22 -29 86 -67 l97 -56 114 66 c66 38 111 70 107 77 -3 6 -1 7 5 3 14 -8
104 42 97 54 -3 5 0 12 6 16 8 4 9 3 5 -4 -13 -21 2 -14 125 59 109 64 118 72
102 85 -10 7 -25 14 -34 14 -22 0 -325 -218 -321 -231 1 -6 -2 -8 -7 -4 -6 3
-23 -2 -38 -11 -23 -14 -22 -11 6 13 22 19 30 32 22 34 -8 3 54 67 140 144
133 122 149 140 128 143 -20 2 -45 -17 -125 -100 -56 -57 -122 -127 -149 -156
-26 -29 -50 -50 -53 -48 -2 3 59 77 137 164 77 88 141 163 141 166 0 3 -10 6
-22 6 -18 -1 -56 -45 -167 -193z m339 49 c0 -2 -33 -23 -72 -46 -93 -55 -88
-52 -88 -46 0 5 150 96 157 96 2 0 3 -2 3 -4z m-170 -101 c0 -2 -10 -9 -22
-15 -22 -11 -22 -10 -4 4 21 17 26 19 26 11z"/>
<path d="M4058 11083 c-97 -81 -248 -216 -245 -220 3 -2 77 49 166 114 125 91
157 119 144 125 -27 10 -29 10 -65 -19z"/>
<path d="M3050 11046 c-13 -17 -9 -19 162 -119 99 -59 114 -65 102 -45 -4 7
-3 8 5 4 6 -4 9 -11 6 -16 -3 -5 3 -14 14 -19 26 -14 34 -14 25 1 -4 7 -3 8 5
4 6 -4 9 -11 6 -16 -7 -12 32 -33 45 -25 15 9 0 27 -17 21 -8 -3 -12 -2 -9 3
8 12 -287 221 -312 221 -11 0 -25 -6 -32 -14z m25 -16 c3 -6 -1 -7 -9 -4 -18
7 -21 14 -7 14 6 0 13 -4 16 -10z m55 -36 c0 -2 -9 0 -20 6 -11 6 -20 13 -20
16 0 2 9 0 20 -6 11 -6 20 -13 20 -16z m150 -90 c0 -2 -9 0 -20 6 -11 6 -20
13 -20 16 0 2 9 0 20 -6 11 -6 20 -13 20 -16z"/>
<path d="M3710 10530 c0 -5 5 -10 10 -10 6 0 10 5 10 10 0 6 -4 10 -10 10 -5
0 -10 -4 -10 -10z"/>
<path d="M5084 9110 c-73 -10 -117 -52 -128 -120 -12 -78 32 -132 137 -166 77
-24 97 -40 97 -74 0 -56 -88 -67 -112 -15 -10 22 -17 25 -70 25 l-58 0 6 -27
c30 -133 262 -169 334 -51 48 79 13 168 -80 205 -138 55 -154 69 -130 113 16
30 81 25 95 -7 8 -20 17 -23 67 -23 52 0 58 2 58 20 0 31 -26 75 -55 94 -33
22 -107 33 -161 26z"/>
<path d="M1760 8860 l0 -250 55 0 54 0 3 150 3 151 54 -151 54 -151 46 3 45 3
51 142 c27 79 53 143 58 143 4 0 7 -65 7 -145 l0 -145 55 0 55 0 0 250 0 250
-68 0 -67 0 -65 -170 c-36 -93 -68 -170 -71 -170 -3 0 -36 75 -72 168 l-65
167 -66 3 -66 3 0 -251z"/>
<path d="M2570 8926 c0 -154 -3 -187 -16 -200 -24 -25 -53 -19 -72 14 -16 27
-22 30 -70 30 l-54 0 7 -32 c18 -81 77 -128 162 -128 61 0 111 26 135 71 16
29 18 59 18 231 l0 198 -55 0 -55 0 0 -184z"/>
<path d="M2790 8860 l0 -250 55 0 55 0 0 89 0 88 69 6 c111 9 164 49 177 132
12 83 -32 153 -111 174 -22 6 -86 11 -142 11 l-103 0 0 -250z m227 137 c9 -9
16 -30 16 -47 0 -43 -23 -62 -82 -68 l-51 -5 0 73 0 73 51 -5 c28 -3 58 -12
66 -21z"/>
<path d="M3190 9065 l0 -45 65 0 65 0 0 -205 0 -205 55 0 55 0 0 205 0 205 65
0 65 0 0 45 0 45 -185 0 -185 0 0 -45z"/>
<path d="M4030 8860 l0 -250 55 0 55 0 0 89 0 88 69 6 c111 9 164 49 177 132
12 83 -32 153 -111 174 -22 6 -86 11 -142 11 l-103 0 0 -250z m227 137 c9 -9
16 -30 16 -47 0 -43 -23 -62 -82 -68 l-51 -5 0 73 0 73 51 -5 c28 -3 58 -12
66 -21z"/>
<path d="M4595 9098 c-34 -93 -165 -474 -165 -480 0 -5 26 -8 57 -6 l56 3 15
43 14 42 93 0 93 0 14 -42 15 -43 56 -3 c31 -2 57 1 57 5 0 4 -38 116 -84 248
l-84 240 -66 3 c-47 2 -68 -1 -71 -10z m104 -221 l30 -87 -64 0 c-47 0 -63 3
-60 13 49 158 54 171 61 164 2 -2 17 -43 33 -90z"/>
<path d="M3620 8860 l0 -50 150 0 150 0 0 50 0 50 -150 0 -150 0 0 -50z"/>
<path d="M1141 8477 c-43 -89 -14 -257 47 -265 28 -4 28 1 0 39 -35 47 -37
158 -5 222 l24 47 -22 0 c-17 0 -29 -11 -44 -43z"/>
<path d="M6007 8471 c34 -68 33 -147 -1 -213 l-26 -49 23 3 c35 5 67 79 67
157 0 81 -30 151 -64 151 l-23 0 24 -49z"/>
<path d="M2803 8460 c-18 -7 -23 -17 -23 -45 0 -33 4 -38 45 -56 45 -20 58
-42 30 -53 -8 -3 -21 1 -29 9 -19 19 -46 19 -46 1 0 -19 38 -46 65 -46 35 0
65 28 65 61 0 26 -6 33 -45 50 -25 11 -45 27 -45 35 0 12 9 14 45 8 50 -7 59
5 23 30 -25 18 -52 19 -85 6z"/>
<path d="M2991 8457 c-90 -52 -50 -187 55 -187 41 0 84 50 84 99 0 74 -78 123
-139 88z m81 -44 c36 -33 11 -103 -37 -103 -29 0 -48 24 -48 60 0 55 46 79 85
43z"/>
<path d="M4001 8456 c-51 -28 -64 -89 -31 -143 32 -52 122 -55 150 -3 9 18 8
20 -14 20 -14 0 -28 -4 -31 -10 -12 -19 -54 -11 -70 14 -35 53 18 116 69 82
33 -21 60 -21 52 0 -3 9 -6 17 -6 20 0 8 -60 34 -77 34 -10 -1 -29 -7 -42 -14z"/>
<path d="M4211 8456 c-51 -28 -64 -89 -31 -143 32 -52 122 -55 150 -3 9 18 8
20 -14 20 -14 0 -28 -4 -31 -10 -12 -19 -54 -11 -70 14 -35 53 18 116 69 82
33 -21 60 -21 52 0 -3 9 -6 17 -6 20 0 8 -60 34 -77 34 -10 -1 -29 -7 -42 -14z"/>
<path d="M4543 8460 c-18 -7 -23 -17 -23 -45 0 -33 4 -38 45 -56 45 -20 58
-42 30 -53 -8 -3 -21 1 -29 9 -19 19 -46 19 -46 1 0 -19 38 -46 65 -46 35 0
65 28 65 61 0 26 -6 33 -45 50 -25 11 -45 27 -45 35 0 12 9 14 45 8 50 -7 59
5 23 30 -25 18 -52 19 -85 6z"/>
<path d="M4713 8460 c-18 -7 -23 -17 -23 -45 0 -33 4 -38 45 -56 45 -20 58
-42 30 -53 -8 -3 -21 1 -29 9 -19 19 -46 19 -46 1 0 -19 38 -46 65 -46 35 0
65 28 65 61 0 26 -6 33 -45 50 -25 11 -45 27 -45 35 0 12 9 14 45 8 50 -7 59
5 23 30 -25 18 -52 19 -85 6z"/>
<path d="M4943 8460 c-18 -7 -23 -17 -23 -45 0 -33 4 -38 45 -56 45 -20 58
-42 30 -53 -8 -3 -21 1 -29 9 -19 19 -46 19 -46 1 0 -19 38 -46 65 -46 35 0
65 28 65 61 0 26 -6 33 -45 50 -25 11 -45 27 -45 35 0 12 9 14 45 8 50 -7 59
5 23 30 -25 18 -52 19 -85 6z"/>
<path d="M5293 8460 c-18 -7 -23 -17 -23 -45 0 -33 4 -38 45 -56 45 -20 58
-42 30 -53 -8 -3 -21 1 -29 9 -19 19 -46 19 -46 1 0 -19 38 -46 65 -46 35 0
65 28 65 61 0 26 -6 33 -45 50 -25 11 -45 27 -45 35 0 12 9 14 45 8 50 -7 59
5 23 30 -25 18 -52 19 -85 6z"/>
<path d="M1240 8365 c0 -88 1 -95 20 -95 18 0 20 7 21 63 l0 62 24 -60 c30
-79 50 -80 79 -5 l21 55 3 -57 c3 -50 6 -58 22 -58 18 0 20 7 20 96 l0 95 -27
-3 c-23 -3 -31 -12 -52 -68 -20 -53 -26 -61 -33 -45 -4 11 -17 41 -27 68 -17
38 -25 47 -46 47 l-25 0 0 -95z"/>
<path d="M1560 8385 c0 -59 -3 -75 -14 -75 -8 0 -18 5 -21 10 -3 6 -15 10 -26
10 -10 0 -19 -4 -19 -10 0 -19 40 -50 64 -50 44 0 56 24 56 111 0 72 -2 79
-20 79 -18 0 -20 -7 -20 -75z"/>
<path d="M1650 8365 c0 -88 1 -95 20 -95 16 0 20 7 20 34 0 31 3 34 35 40 42
8 65 30 65 61 0 39 -25 55 -86 55 l-54 0 0 -95z m95 40 c0 -14 -8 -21 -27 -23
-24 -3 -28 0 -28 23 0 23 4 26 28 23 19 -2 27 -9 27 -23z"/>
<path d="M1810 8445 c0 -9 9 -15 25 -15 25 0 25 -1 25 -80 0 -73 2 -80 20 -80
18 0 20 7 20 80 0 79 0 80 25 80 16 0 25 6 25 15 0 12 -14 15 -70 15 -56 0
-70 -3 -70 -15z"/>
<path d="M2290 8365 c0 -88 1 -95 20 -95 16 0 20 7 20 34 0 31 3 34 35 40 42
8 65 30 65 61 0 39 -25 55 -86 55 l-54 0 0 -95z m95 40 c0 -14 -8 -21 -27 -23
-24 -3 -28 0 -28 23 0 23 4 26 28 23 19 -2 27 -9 27 -23z"/>
<path d="M2460 8365 l0 -95 55 0 c41 0 55 4 55 14 0 9 -12 16 -32 18 -28 2
-33 7 -33 28 0 20 6 26 28 28 38 5 36 32 -3 32 -23 0 -30 4 -30 20 0 16 7 20
35 20 24 0 35 5 35 15 0 12 -13 15 -55 15 l-55 0 0 -95z"/>
<path d="M2600 8365 c0 -88 1 -95 20 -95 17 0 20 7 20 40 0 50 9 51 35 2 12
-23 29 -38 43 -40 27 -4 27 -2 2 40 -19 34 -19 34 0 51 22 19 27 66 8 85 -7 7
-38 12 -70 12 l-58 0 0 -95z m95 40 c0 -14 -8 -21 -27 -23 -24 -3 -28 0 -28
23 0 23 4 26 28 23 19 -2 27 -9 27 -23z"/>
<path d="M3160 8365 c0 -88 2 -95 20 -95 16 0 19 8 22 62 l3 63 40 -63 c24
-37 47 -62 58 -62 15 0 17 11 17 95 0 78 -3 95 -15 95 -12 0 -15 -13 -15 -55
0 -30 -4 -55 -8 -55 -4 0 -23 25 -41 55 -26 42 -39 55 -57 55 -24 0 -24 -2
-24 -95z"/>
<path d="M3394 8378 c-15 -46 -29 -89 -32 -95 -2 -8 4 -13 18 -13 13 0 24 8
27 20 4 16 14 20 43 20 30 0 40 -5 45 -20 6 -18 45 -29 45 -13 0 4 -14 47 -31
95 -30 82 -34 88 -60 88 -26 0 -29 -5 -55 -82z m70 10 c10 -38 7 -48 -14 -48
-11 0 -20 6 -20 13 0 23 12 57 20 57 4 0 10 -10 14 -22z"/>
<path d="M3570 8365 l0 -95 50 0 c37 0 50 4 50 14 0 9 -12 16 -27 18 -28 3
-28 4 -31 81 -3 69 -5 77 -22 77 -18 0 -20 -7 -20 -95z"/>
<path d="M3784 8378 c-15 -46 -29 -89 -32 -95 -2 -8 4 -13 18 -13 13 0 24 8
27 20 4 16 14 20 43 20 30 0 40 -5 45 -20 6 -18 45 -29 45 -13 0 4 -14 47 -31
95 -30 82 -34 88 -60 88 -26 0 -29 -5 -55 -82z m70 10 c10 -38 7 -48 -14 -48
-11 0 -20 6 -20 13 0 23 12 57 20 57 4 0 10 -10 14 -22z"/>
<path d="M4380 8365 l0 -95 55 0 c41 0 55 4 55 14 0 9 -12 16 -32 18 -28 2
-33 7 -33 28 0 20 6 26 28 28 38 5 36 32 -3 32 -23 0 -30 4 -30 20 0 16 7 20
35 20 24 0 35 5 35 15 0 12 -13 15 -55 15 l-55 0 0 -95z"/>
<path d="M5100 8400 c16 -33 30 -75 30 -95 0 -28 4 -35 20 -35 16 0 20 7 20
30 0 17 14 57 30 90 36 71 36 70 10 70 -13 0 -26 -12 -37 -35 -9 -19 -19 -35
-23 -35 -3 0 -12 16 -19 35 -9 27 -18 35 -37 35 l-24 0 30 -60z"/>
<path d="M5420 8445 c0 -9 9 -15 25 -15 25 0 25 -1 25 -80 0 -73 2 -80 20 -80
18 0 20 7 20 80 0 79 0 80 25 80 16 0 25 6 25 15 0 12 -14 15 -70 15 -56 0
-70 -3 -70 -15z"/>
<path d="M5600 8365 l0 -95 55 0 c41 0 55 4 55 14 0 9 -12 16 -32 18 -28 2
-33 7 -33 28 0 20 6 26 28 28 38 5 36 32 -3 32 -23 0 -30 4 -30 20 0 16 7 20
35 20 24 0 35 5 35 15 0 12 -13 15 -55 15 l-55 0 0 -95z"/>
<path d="M5740 8365 c0 -88 1 -95 20 -95 18 0 20 7 21 63 l0 62 24 -60 c30
-79 50 -80 79 -5 l21 55 3 -57 c3 -50 6 -58 22 -58 18 0 20 7 20 96 l0 95 -27
-3 c-23 -3 -31 -12 -52 -68 -20 -53 -26 -61 -33 -45 -4 11 -17 41 -27 68 -17
38 -25 47 -46 47 l-25 0 0 -95z"/>
<path d="M2040 8370 c0 -18 7 -20 75 -20 68 0 75 2 75 20 0 18 -7 20 -75 20
-68 0 -75 -2 -75 -20z"/>
<path d="M3981 7439 c-41 -5 -116 -20 -167 -33 -374 -100 -651 -314 -852 -658
l-51 -88 912 -2 912 -3 60 -24 c44 -18 77 -42 124 -90 59 -60 121 -163 643
-1070 319 -553 588 -1031 598 -1062 25 -73 25 -160 1 -236 -11 -35 -248 -457
-598 -1063 -522 -905 -586 -1012 -644 -1071 -47 -49 -80 -72 -124 -90 l-60
-24 -1230 0 -1230 0 -60 24 c-44 18 -77 42 -125 90 -58 60 -109 143 -500 823
l-435 756 -54 -92 c-168 -284 -225 -478 -225 -761 0 -224 33 -379 123 -570 21
-44 284 -507 586 -1030 302 -522 576 -998 609 -1057 l61 -107 2473 -1 2472 0
0 3725 0 3725 -1572 -1 c-865 -1 -1606 -5 -1647 -10z"/>
<path d="M2713 7039 c-25 -12 -46 -31 -53 -50 l-12 -29 -272 0 c-154 0 -298
-5 -331 -11 -78 -14 -140 -47 -192 -101 -28 -29 -244 -400 -689 -1183 -356
-627 -658 -1164 -672 -1194 -29 -63 -33 -180 -9 -246 8 -22 80 -156 161 -297
137 -242 159 -288 137 -288 -5 0 -17 -19 -26 -43 -15 -40 -15 -46 0 -85 22
-55 87 -90 137 -73 47 17 66 33 84 76 14 35 14 42 -1 83 -14 36 -25 48 -61 63
-24 11 -54 17 -66 14 -21 -5 -36 18 -174 262 -83 148 -157 285 -164 307 -17
52 -9 181 14 226 69 134 1317 2319 1342 2349 18 20 56 50 85 66 l54 30 321 3
322 3 6 -25 c8 -33 40 -63 83 -77 28 -9 40 -7 78 11 35 17 47 30 60 64 15 39
15 45 -1 85 -13 34 -26 47 -58 62 -51 23 -52 23 -103 -2z"/>
<path d="M2300 6571 c-23 -6 -26 -13 -32 -74 -4 -41 -14 -80 -27 -100 -12 -17
-28 -48 -37 -67 -9 -19 -19 -37 -23 -40 -4 -3 -10 -13 -14 -22 -5 -14 -18 -18
-52 -18 -42 0 -47 3 -56 30 -14 40 -25 38 -50 -11 -11 -23 -16 -38 -11 -35 14
9 33 -19 26 -38 -3 -9 -18 -19 -33 -22 -14 -3 -32 -8 -39 -12 -14 -7 -152
-248 -152 -265 0 -5 -6 -15 -14 -21 -8 -6 -81 -126 -162 -266 -389 -671 -435
-755 -429 -775 3 -11 10 -63 16 -115 16 -154 36 -218 81 -273 31 -38 72 -47
129 -31 46 14 46 14 58 71 16 83 14 219 -4 247 -27 40 -79 255 -69 281 5 12
14 14 36 10 29 -7 29 -6 24 27 -3 18 -7 60 -8 93 l-3 59 40 19 c22 11 46 28
53 39 8 11 21 17 28 14 36 -14 24 68 -19 125 -26 36 -18 55 54 118 33 29 65
65 70 80 l11 26 19 -24 c28 -34 27 -213 -1 -297 -11 -32 -25 -63 -30 -68 -6
-6 -10 -16 -10 -23 0 -7 -20 -65 -45 -129 -48 -123 -53 -144 -31 -144 24 0 82
120 116 240 38 135 49 160 67 160 7 0 18 -11 24 -23 9 -20 4 -43 -26 -128 -20
-58 -40 -139 -46 -184 -5 -44 -12 -95 -15 -113 -6 -28 -2 -37 34 -70 46 -43
65 -77 93 -170 12 -37 26 -73 31 -79 14 -17 67 -16 98 2 14 8 41 14 61 15 22
0 51 10 73 25 20 14 40 25 44 25 4 0 15 -14 24 -30 23 -41 34 -38 42 12 4 24
16 53 28 65 17 18 20 31 16 68 -6 53 -65 150 -102 166 -37 17 -58 65 -67 155
-12 115 -26 144 -93 190 -34 24 -64 55 -78 81 -22 41 -22 44 -7 90 10 28 15
64 12 86 -3 20 0 50 6 65 9 21 9 40 1 73 -6 24 -15 67 -20 94 -4 28 -11 57
-15 66 -13 34 42 48 98 24 13 -6 17 -2 17 18 0 17 12 32 40 52 39 27 83 73
148 154 37 46 76 55 87 20 9 -28 -4 -170 -21 -237 -8 -29 -14 -72 -14 -95 -1
-23 -7 -53 -15 -67 -22 -39 -19 -145 6 -197 38 -79 131 -98 207 -43 23 17 49
30 57 30 22 0 34 38 30 96 -17 233 -18 213 12 253 15 20 46 56 70 80 26 27 43
54 43 68 0 24 13 39 94 107 50 41 116 158 137 243 6 23 15 43 20 43 4 0 11 9
14 20 4 12 25 39 48 61 32 30 47 39 65 34 16 -4 30 2 47 19 14 14 25 30 25 36
0 5 16 10 37 10 36 0 39 -2 173 -122 42 -38 66 -48 82 -32 7 7 31 19 53 27 29
10 54 32 94 80 29 37 60 67 69 67 8 0 32 -18 53 -40 29 -30 51 -43 89 -52 65
-15 74 -6 52 55 l-17 47 -420 0 -420 0 -32 -68 c-56 -118 -114 -163 -145 -111
-14 22 -77 59 -101 59 -17 0 -67 38 -67 51 0 5 9 9 20 9 46 0 1 44 -57 56 -34
7 -53 -13 -50 -50 1 -10 -5 -23 -14 -29 -13 -8 -24 -4 -52 17 -20 15 -39 36
-42 47 -5 15 -15 19 -48 18 -23 -1 -53 -4 -67 -8z m393 -227 c3 -3 1 -15 -6
-25 -17 -27 -87 -27 -87 0 0 11 8 22 18 24 27 7 68 8 75 1z m-385 -58 c-15
-30 -15 -30 -28 -7 -14 27 -6 41 20 34 16 -4 18 -9 8 -27z m-473 -376 c-3 -5
-11 -10 -16 -10 -6 0 -7 5 -4 10 3 6 11 10 16 10 6 0 7 -4 4 -10z"/>
<path d="M4253 6559 c44 -23 80 -22 85 4 3 15 -5 17 -60 17 l-63 -1 38 -20z"/>
<path d="M4650 6559 c16 -29 39 -35 55 -13 12 17 11 20 -8 26 -12 3 -30 6 -40
7 -15 1 -16 -2 -7 -20z"/>
<path d="M4945 6229 c-33 -16 -74 -38 -92 -50 -18 -11 -43 -21 -57 -23 -47 -5
-66 -33 -66 -97 0 -82 -14 -107 -69 -123 -32 -9 -50 -21 -59 -39 -7 -14 -36
-39 -65 -55 -77 -44 -130 -94 -181 -171 -48 -72 -76 -137 -76 -177 0 -50 -70
-81 -115 -51 -11 8 -39 19 -63 24 -38 10 -43 9 -53 -9 -6 -12 -9 -38 -6 -59
l5 -39 -40 0 c-52 0 -201 -36 -247 -60 -20 -10 -67 -44 -105 -77 -79 -67 -116
-129 -144 -243 -10 -42 -21 -68 -25 -60 -4 12 -7 13 -15 2 -19 -27 -200 2
-203 32 -1 6 -2 40 -4 76 -5 126 -23 335 -30 352 -3 9 -13 19 -21 22 -12 5
-14 -6 -13 -57 2 -125 -9 -263 -24 -299 -14 -34 -14 -41 4 -98 35 -113 23
-153 -48 -164 -22 -3 -100 -29 -173 -56 -137 -53 -228 -80 -267 -80 -15 0 -28
10 -39 32 -16 31 -15 97 2 196 5 25 3 32 -10 32 -24 0 -36 -42 -48 -165 -13
-149 -13 -150 8 -235 37 -150 19 -233 -55 -253 -42 -10 -64 13 -56 59 3 17 3
33 0 36 -3 3 -54 -10 -112 -29 -68 -22 -120 -33 -147 -31 l-41 3 -5 49 c-6 58
-14 52 -54 -38 -20 -44 -26 -75 -26 -126 0 -84 -12 -100 -100 -130 -36 -12
-74 -30 -85 -40 -11 -10 -31 -21 -44 -25 -36 -11 -176 -155 -185 -190 -9 -37
-43 -75 -67 -75 -13 0 -20 11 -24 38 -4 20 -10 51 -15 67 -4 17 -8 58 -7 93 0
75 -15 99 -42 65 -25 -30 -44 -178 -45 -357 -1 -147 -1 -149 -26 -168 -16 -12
-33 -16 -44 -12 -14 5 -15 9 -4 15 11 7 10 11 -2 19 -10 6 -11 10 -2 10 6 0
12 5 12 10 0 17 -19 11 -30 -9 -20 -38 -22 -89 -4 -123 19 -37 319 -554 403
-696 31 -52 67 -113 80 -135 13 -23 52 -92 88 -154 35 -61 70 -114 78 -117 8
-3 15 -15 15 -26 0 -50 71 -148 134 -185 48 -28 106 -25 137 6 10 10 26 15 38
12 35 -9 23 20 -42 105 -60 79 -50 141 25 157 18 4 37 19 48 37 10 16 40 45
67 63 27 18 62 50 78 71 16 22 44 56 63 78 19 21 41 52 49 70 8 17 23 47 33
66 11 19 19 45 20 58 0 12 5 22 11 22 7 0 9 -10 5 -26 -5 -17 -2 -32 8 -43 20
-23 36 -87 36 -146 0 -29 7 -60 15 -72 21 -30 97 -84 180 -128 39 -20 75 -40
80 -45 6 -4 21 -11 35 -15 14 -4 40 -21 58 -36 59 -52 60 -51 56 175 -3 193
-4 207 -28 265 -14 33 -26 69 -26 79 0 19 52 67 113 105 15 10 27 23 27 30 0
7 14 18 31 24 28 11 31 16 29 50 -4 63 -1 72 31 89 30 15 33 15 52 -5 17 -17
18 -22 7 -36 -11 -14 -10 -17 8 -22 12 -3 22 -12 22 -20 0 -11 6 -13 23 -8 52
16 62 12 65 -27 2 -28 -2 -39 -20 -52 -19 -13 -23 -27 -25 -78 -2 -55 -31
-151 -55 -184 -4 -6 -12 -31 -17 -55 -5 -24 -14 -60 -21 -79 -26 -78 -32 -98
-46 -159 -7 -35 -20 -71 -27 -80 -23 -26 -40 -110 -26 -127 19 -23 26 -16 42
44 8 31 21 73 28 92 43 119 73 198 84 220 7 14 15 42 19 63 4 20 11 37 16 37
6 0 10 10 10 23 1 12 9 40 20 62 11 22 20 47 20 55 0 8 19 51 41 95 22 44 46
101 54 127 15 56 8 70 -47 87 -20 7 -42 19 -49 27 -7 9 -30 24 -51 35 -21 11
-38 22 -38 25 0 17 32 74 57 99 48 50 80 99 91 137 6 20 8 39 5 42 -5 5 12 61
34 114 15 35 11 63 -12 82 -8 7 -15 21 -15 31 0 35 -17 19 -30 -27 -13 -45
-63 -103 -113 -131 -29 -16 -37 -16 -37 2 0 9 -12 20 -27 26 -30 11 -52 36
-53 60 0 28 -36 49 -91 55 -54 6 -159 41 -159 53 1 18 42 51 64 51 13 0 28 5
32 12 12 19 -35 48 -77 48 -21 0 -54 7 -72 16 -30 14 -38 15 -62 3 -39 -19
-40 -30 -5 -74 37 -46 37 -55 4 -55 -40 0 -62 17 -75 60 -8 25 -24 48 -45 63
-58 41 -144 143 -144 170 0 67 22 72 94 20 48 -36 55 -38 124 -38 70 0 75 2
102 31 15 18 36 55 45 85 l18 53 -25 21 c-23 20 -107 46 -191 60 -46 7 -44 21
6 54 36 24 45 41 62 123 3 15 16 38 30 52 21 21 29 23 57 15 54 -15 90 -11
143 17 48 26 51 26 115 14 82 -16 120 -37 120 -67 0 -13 12 -31 30 -45 29 -21
90 -126 90 -155 0 -20 49 -113 76 -146 29 -35 44 -87 43 -152 0 -55 -19 -152
-33 -174 -6 -10 -5 -12 5 -9 8 2 15 17 17 31 3 28 18 34 74 35 38 0 39 -23 6
-84 -15 -28 -28 -65 -28 -82 0 -17 -5 -34 -11 -38 -8 -4 -9 -25 -5 -61 5 -44
3 -55 -10 -60 -9 -3 -20 0 -24 8 -19 29 -22 -21 -6 -88 25 -102 25 -103 15
-109 -12 -7 -12 -74 0 -74 14 0 23 34 15 55 -9 22 3 16 110 -55 42 -27 91 -52
110 -55 19 -2 44 -13 55 -24 12 -12 27 -21 34 -21 7 0 32 -9 55 -20 22 -11 45
-20 50 -20 12 0 22 25 22 56 0 14 6 27 14 30 7 3 16 23 20 45 3 21 11 39 16
39 6 0 10 8 10 18 0 9 9 34 20 55 11 20 20 45 20 56 0 10 6 24 14 30 8 6 17
31 20 56 4 24 14 49 21 55 8 7 15 21 15 30 0 30 11 50 29 50 12 0 10 5 -9 19
-13 11 -28 17 -33 14 -17 -10 -146 107 -147 135 0 6 -20 32 -45 56 -47 47 -46
56 5 71 14 4 45 24 70 44 24 20 56 45 69 56 49 40 71 68 89 118 18 47 20 49
31 30 6 -12 11 -26 11 -32 0 -5 5 -22 11 -38 l11 -28 14 45 c10 32 11 55 4 80
-14 49 -13 83 2 74 8 -5 9 -2 4 12 -4 10 -8 21 -9 24 -1 3 5 22 12 43 9 26 10
42 3 49 -11 11 -4 48 9 48 5 0 8 15 7 33 -2 52 9 61 43 37 16 -12 29 -28 29
-37 0 -24 24 -9 35 21 8 24 6 31 -13 47 -19 15 -21 22 -12 39 6 11 17 20 25
20 36 0 32 -132 -5 -162 -12 -10 -18 -18 -12 -18 5 0 24 16 41 35 37 43 40 38
7 -13 -30 -48 -84 -92 -113 -92 -14 0 -23 -6 -23 -15 0 -8 9 -15 20 -15 11 0
21 -6 22 -12 0 -7 3 -24 4 -38 2 -14 5 -65 7 -115 2 -49 7 -102 11 -116 5 -17
3 -29 -7 -38 -11 -8 -13 -24 -9 -54 l5 -42 -30 33 c-38 40 -44 40 -30 3 9 -25
8 -33 -8 -51 -10 -11 -15 -23 -12 -27 4 -3 7 -1 7 5 0 7 4 12 9 12 10 0 11
-16 13 -200 1 -97 4 -128 8 -95 10 75 13 31 14 -185 1 -118 6 -217 14 -251 9
-39 10 -70 3 -98 -6 -27 -5 -43 1 -47 6 -4 8 -32 5 -70 -4 -61 -3 -64 29 -101
19 -21 44 -61 56 -90 20 -48 23 -51 46 -42 14 5 27 7 30 4 3 -2 11 3 19 13 10
11 12 12 8 2 -5 -12 -4 -12 7 1 15 18 60 44 71 41 4 -1 7 8 7 21 0 12 9 28 20
35 19 12 20 10 21 -50 1 -74 16 -175 18 -120 0 17 6 32 11 32 6 0 10 14 10 31
0 18 4 28 10 24 7 -4 8 3 4 20 -4 16 -2 30 4 34 6 4 14 36 16 71 3 36 9 64 15
63 5 -1 3 21 -5 50 -18 66 -17 78 2 47 l15 -25 -7 24 c-8 31 -64 119 -64 100
0 -7 7 -23 15 -33 17 -22 20 -50 6 -41 -5 3 -12 -3 -14 -12 -2 -10 -3 -6 -1 8
2 14 -4 36 -13 48 -15 22 -14 65 3 118 5 16 5 17 -6 1 -6 -9 -17 -15 -25 -12
-12 5 -15 26 -15 95 0 53 -4 89 -10 89 -5 0 -10 24 -10 54 0 30 -4 58 -10 61
-5 3 -10 19 -10 35 0 16 -5 41 -12 55 -9 20 -9 37 1 73 9 36 9 55 0 80 -6 18
-9 35 -6 38 2 3 20 -4 38 -15 l34 -20 35 74 c19 41 38 75 43 75 4 0 7 11 7 25
0 14 5 25 10 25 6 0 10 9 10 19 0 35 44 122 59 116 11 -4 12 2 8 30 -3 19 -2
37 4 40 5 3 6 0 3 -8 -3 -8 -1 -18 5 -22 7 -3 11 2 11 14 0 12 5 21 10 21 6 0
10 9 10 19 0 11 4 21 8 23 10 4 57 112 71 163 12 44 13 136 2 175 l-7 25 -7
-30 c-4 -16 -19 -68 -34 -115 -14 -47 -27 -91 -29 -97 -6 -22 -33 -3 -39 28
-4 16 -11 29 -16 29 -5 0 -27 20 -50 45 -22 24 -49 47 -59 50 -11 3 -22 15
-25 26 -5 13 -14 19 -28 17 -16 -2 -23 3 -25 19 -3 21 12 31 57 38 11 1 16 13
16 36 1 28 7 38 34 54 19 11 47 32 63 48 16 15 34 25 39 21 5 -3 9 2 9 10 0 9
5 16 10 16 15 0 12 -73 -4 -96 -8 -11 -48 -44 -90 -74 -41 -30 -74 -56 -71
-58 6 -6 134 90 169 127 24 25 28 36 23 66 -11 65 15 33 36 -44 15 -55 22 -69
29 -57 5 9 17 16 28 16 10 0 27 15 39 36 12 19 25 33 30 30 12 -8 25 -81 23
-131 -2 -52 8 -63 98 -112 41 -23 108 -60 149 -82 41 -23 79 -40 84 -38 4 1
-1 14 -12 29 -12 14 -21 37 -21 51 0 24 -27 57 -48 57 -8 0 -12 18 -12 49 0
28 -4 53 -10 56 -5 3 -10 27 -10 52 0 37 -5 50 -30 73 -25 23 -29 33 -24 60 5
24 1 39 -15 61 -22 29 -22 31 -4 45 10 8 26 19 35 24 9 6 30 30 46 54 35 51
29 72 -23 82 -19 3 -35 8 -35 9 0 2 5 16 11 32 6 15 13 55 15 88 2 33 11 84
20 112 18 58 38 67 69 33 18 -20 18 -22 2 -49 -23 -38 -22 -47 9 -79 23 -25
25 -32 20 -88 l-5 -61 95 -71 c52 -40 99 -72 104 -72 12 0 13 13 1 25 -5 6
-12 30 -15 55 -16 136 -23 155 -95 280 -40 69 -78 132 -85 140 -7 8 -26 39
-41 68 l-29 53 -13 -25 c-7 -13 -22 -27 -32 -31 -11 -3 -29 -20 -40 -38 -11
-18 -34 -45 -51 -60 -27 -26 -30 -27 -30 -8 0 11 -5 23 -11 27 -8 4 -9 0 -4
-15 3 -12 7 -70 7 -130 0 -103 -1 -111 -35 -184 -20 -42 -45 -82 -56 -89 -12
-7 -21 -23 -21 -35 0 -28 -9 -33 -37 -22 -28 10 -29 43 -4 119 16 50 18 52 25
27 9 -36 24 -34 41 6 13 32 14 32 22 8 l9 -23 19 28 c24 36 24 113 0 130 -18
13 -11 39 7 28 7 -4 8 34 3 122 -6 107 -13 145 -40 221 l-32 92 33 -34 c21
-22 42 -35 58 -35 32 0 106 29 106 42 0 5 -18 42 -41 83 l-41 75 -68 0 c-38 0
-72 5 -75 10 -3 6 -27 10 -53 11 -47 1 -122 33 -129 55 -2 6 8 23 22 38 31 34
31 38 0 72 -15 16 -25 39 -25 56 0 24 6 32 35 44 19 7 45 14 57 14 50 0 53 14
15 81 -60 106 -53 102 -122 68z m-142 -407 c7 -37 12 -42 55 -57 96 -34 123
-49 148 -81 55 -68 85 -130 94 -193 5 -31 16 -87 24 -126 21 -95 20 -181 -4
-278 -45 -182 -89 -244 -186 -265 -27 -6 -63 -18 -79 -26 -40 -21 -70 -20
-146 4 -58 19 -109 52 -109 71 0 4 7 15 17 24 14 14 29 16 95 10 54 -5 78 -4
78 4 0 6 -4 11 -8 11 -5 0 -24 14 -43 31 -26 23 -42 30 -69 28 -74 -4 -92 8
-45 29 41 19 119 15 147 -7 28 -22 78 -38 78 -25 -1 24 -28 46 -90 75 -39 17
-133 23 -159 10 -20 -11 -26 -8 -64 35 -23 27 -77 82 -120 124 -56 54 -77 82
-77 100 0 14 15 57 33 95 19 39 40 88 47 109 12 39 69 135 109 187 21 27 78
49 129 49 53 0 76 15 96 64 11 26 24 45 30 43 6 -2 14 -22 19 -45z m-586 -464
c-3 -7 -5 -2 -5 12 0 14 2 19 5 13 2 -7 2 -19 0 -25z m44 -21 c-13 -13 -15 11
-4 40 7 16 8 15 11 -6 2 -13 -1 -28 -7 -34z m-211 -21 c0 -15 -60 -95 -72 -95
-17 -2 -6 44 18 76 26 34 54 44 54 19z m-27 -176 c16 -5 42 -10 59 -10 36 0
64 -28 73 -73 12 -59 16 -66 51 -88 19 -11 50 -45 69 -74 19 -30 45 -61 58
-69 13 -9 34 -34 46 -57 21 -36 23 -51 19 -122 -4 -66 -12 -97 -41 -162 -19
-44 -38 -93 -42 -110 -11 -48 -119 -136 -171 -139 -7 -1 -24 -13 -39 -28 -31
-32 -98 -68 -124 -68 -26 0 -85 26 -100 44 -7 8 -11 25 -9 38 2 18 11 24 38
28 31 4 35 8 34 35 0 28 -3 30 -36 30 -35 1 -68 18 -68 36 0 16 57 10 109 -11
50 -19 85 -18 78 4 -5 15 -115 67 -157 74 -37 5 -50 16 -50 45 0 11 8 17 22
17 12 0 29 7 39 16 18 16 29 15 61 -8 14 -10 20 -10 30 0 20 21 -36 66 -72 58
-17 -3 -41 2 -62 14 -20 11 -40 15 -48 10 -14 -8 -90 56 -90 76 0 13 53 26 73
18 8 -3 20 2 27 11 7 8 18 15 25 15 7 0 20 20 29 44 9 24 28 51 41 60 34 22
22 51 -28 69 -112 41 -181 59 -212 55 -29 -3 -32 -2 -24 14 5 9 29 26 53 37
53 23 65 43 60 97 -5 58 10 73 86 85 36 6 83 14 105 18 27 4 43 2 50 -6 6 -7
23 -17 38 -23z m1187 -47 c0 -7 -4 -13 -10 -13 -5 0 -10 12 -10 28 0 21 2 24
10 12 5 -8 10 -21 10 -27z m-64 -245 c4 -13 8 -39 9 -59 2 -29 -1 -35 -16 -34
-10 1 -28 13 -39 28 -25 32 -24 73 3 69 9 -2 17 2 17 8 0 19 19 10 26 -12z
m-1426 -48 c11 -7 5 -10 -22 -10 -21 0 -38 5 -38 10 0 13 40 13 60 0z m-417
-65 c3 -8 -7 -38 -22 -67 -16 -29 -32 -68 -36 -85 -8 -41 -20 -42 -34 -2 -9
27 -7 39 15 83 39 78 66 102 77 71z m1520 -352 c60 22 63 21 27 -18 -34 -36
-35 -36 -7 -26 17 7 27 7 27 1 0 -6 -4 -10 -8 -10 -5 0 -29 -21 -55 -47 -46
-45 -69 -42 -25 4 18 19 20 27 10 47 -8 18 -8 31 1 50 9 18 13 21 15 10 2 -8
9 -14 15 -11z m-73 -34 c0 -5 -4 -9 -10 -9 -5 0 -10 7 -10 16 0 8 5 12 10 9 6
-3 10 -10 10 -16z m5 -39 c3 -5 1 -10 -4 -10 -6 0 -11 5 -11 10 0 6 2 10 4 10
3 0 8 -4 11 -10z m225 -46 c0 -27 -62 -160 -112 -242 -22 -36 -43 -73 -46 -82
-13 -32 -67 -100 -80 -100 -7 0 -10 5 -6 11 3 6 12 34 20 61 10 40 10 57 1 79
-11 25 -14 27 -31 14 -11 -8 -17 -18 -13 -21 4 -4 13 -1 22 6 8 7 15 9 15 5 0
-12 -31 -45 -42 -45 -17 0 -7 47 13 66 37 33 41 61 14 125 -5 13 -1 16 18 12
25 -5 43 18 31 38 -13 21 54 66 89 60 4 -1 18 5 29 13 24 17 78 17 78 0z
m-273 -171 c-3 -10 -5 -4 -5 12 0 17 2 24 5 18 2 -7 2 -21 0 -30z m-907 -118
c0 -8 -7 -15 -15 -15 -16 0 -20 12 -8 23 11 12 23 8 23 -8z m227 -127 c-3 -7
-5 -2 -5 12 0 14 2 19 5 13 2 -7 2 -19 0 -25z m-16 -15 c1 -21 3 -30 6 -20 3
10 9 14 16 10 7 -4 19 -8 27 -8 10 0 15 -11 16 -30 0 -16 4 -43 9 -59 6 -21 5
-27 -4 -22 -6 4 -11 3 -11 -3 0 -17 18 -22 24 -6 8 23 26 18 27 -7 1 -17 2
-19 6 -5 5 20 23 23 23 3 0 -8 10 -13 23 -12 21 1 22 -3 21 -64 0 -36 -4 -83
-9 -105 -7 -37 -9 -38 -15 -15 -5 19 -8 8 -14 -43 -6 -53 -11 -67 -22 -63 -10
4 -14 -3 -14 -28 0 -42 -9 -68 -21 -60 -5 3 -9 -6 -9 -20 0 -33 -10 -57 -21
-50 -5 3 -10 -2 -10 -10 -5 -60 -15 -52 -22 15 -4 33 -10 66 -14 72 -3 6 -7
35 -9 66 -1 30 -7 57 -13 59 -6 2 -11 15 -11 28 0 13 -4 24 -10 24 -5 0 -10
16 -10 35 0 19 -4 35 -10 35 -5 0 -10 7 -10 15 0 8 -4 15 -10 15 -5 0 -15 10
-21 22 -9 17 -9 24 5 33 9 7 16 18 16 26 0 11 2 11 11 -1 8 -12 12 -12 16 -2
4 10 8 10 20 1 12 -11 13 -8 8 14 -4 16 -3 27 3 27 6 0 12 8 14 18 3 13 7 11
21 -13 23 -42 21 -27 -4 30 -19 42 -22 45 -34 29 -11 -16 -14 -14 -34 24 -23
46 -29 81 -6 42 9 -16 15 -19 15 -10 1 10 4 9 10 -5 7 -16 9 -13 9 18 1 20 6
37 11 37 6 0 11 -17 11 -37z m-71 -57 c0 -31 -17 -6 -24 34 -7 35 -7 35 8 10
9 -14 15 -34 16 -44z m507 42 c-3 -8 -6 -5 -6 6 -1 11 2 17 5 13 3 -3 4 -12 1
-19z m10 -50 c-3 -7 -5 -2 -5 12 0 14 2 19 5 13 2 -7 2 -19 0 -25z m13 -59 c0
-16 -4 -29 -10 -29 -5 0 -10 16 -10 36 0 21 4 33 10 29 6 -3 10 -19 10 -36z
m-1380 1 c0 -5 -4 -10 -9 -10 -6 0 -13 5 -16 10 -3 6 1 10 9 10 9 0 16 -4 16
-10z m1131 -111 c-9 -23 -10 -22 -10 11 -1 23 2 31 9 24 7 -7 7 -19 1 -35z
m-1046 11 c31 -12 24 -30 -10 -30 -40 0 -125 21 -125 31 0 12 102 12 135 -1z
m717 -95 c3 -13 1 -22 -3 -19 -9 5 -13 44 -5 44 2 0 6 -11 8 -25z m-648 -15
c85 -38 47 -94 -60 -86 -110 7 -184 26 -201 52 -28 43 -5 54 112 54 82 0 112
-4 149 -20z m738 -84 c7 4 8 2 4 -5 -9 -13 -26 -5 -25 12 0 9 2 8 6 -1 2 -6
10 -9 15 -6z m-1523 -45 c7 -5 10 -14 6 -21 -5 -8 -10 -9 -18 -1 -6 6 -19 11
-29 11 -10 0 -18 5 -18 10 0 12 40 13 59 1z m2138 -123 c-3 -7 -5 -2 -5 12 0
14 2 19 5 13 2 -7 2 -19 0 -25z m23 -65 c0 -12 -4 -25 -10 -28 -6 -4 -10 11
-10 37 0 31 3 39 10 28 5 -8 10 -25 10 -37z m-2005 -30 c-1 -27 -13 -75 -26
-107 -21 -50 -32 -64 -69 -84 -25 -14 -49 -31 -53 -38 -4 -8 -13 -14 -19 -14
-7 0 -21 -8 -32 -19 -12 -10 -34 -23 -51 -28 -16 -5 -34 -19 -40 -31 -13 -29
-48 -46 -79 -38 -23 6 -26 11 -26 50 0 40 -3 45 -31 55 -18 6 -55 11 -82 11
-94 0 -166 53 -122 90 8 7 15 16 15 21 0 13 70 122 88 137 9 6 21 12 27 12 6
0 50 -29 99 -65 49 -36 98 -68 111 -71 24 -6 100 26 132 56 11 10 43 30 72 44
28 15 51 33 51 40 0 8 8 17 18 19 9 3 18 5 19 6 1 0 0 -20 -2 -46z m370 -33
c3 -5 2 -10 -4 -10 -5 0 -13 5 -16 10 -3 6 -2 10 4 10 5 0 13 -4 16 -10z m228
-36 c36 -7 30 -24 -15 -48 l-35 -20 -42 33 c-22 18 -38 37 -35 43 6 9 54 6
127 -8z m1414 -166 c-2 -13 -4 -3 -4 22 0 25 2 35 4 23 2 -13 2 -33 0 -45z
m-1627 -48 c0 -24 -25 -60 -42 -60 -25 0 -23 25 4 50 23 22 38 26 38 10z
m-797 -279 c17 -6 17 -8 4 -20 -12 -10 -19 -10 -36 1 -38 24 -14 38 32 19z"/>
<path d="M4487 5490 c-63 -20 -127 -92 -73 -82 18 3 22 -13 6 -23 -5 -3 -10
-14 -10 -24 0 -14 14 -21 58 -30 31 -7 64 -14 72 -17 10 -2 23 8 34 27 16 27
20 29 28 15 13 -23 31 -20 25 4 -6 22 3 26 20 9 17 -17 33 -1 33 31 0 18 -11
42 -27 60 -23 26 -37 32 -83 35 -30 3 -68 0 -83 -5z m99 -55 c30 -23 0 -37
-61 -29 -60 8 -66 11 -41 30 26 18 77 18 102 -1z"/>
<path d="M4831 5457 c-21 -23 -22 -29 -12 -58 6 -18 11 -43 11 -57 0 -19 4
-23 20 -19 11 3 18 2 15 -3 -3 -4 1 -13 8 -18 16 -13 57 -4 57 12 0 7 4 6 9
-2 5 -8 22 -12 42 -10 26 2 34 8 34 23 0 15 -7 20 -30 21 -52 1 -90 14 -103
35 -19 30 -1 45 60 52 40 5 56 3 70 -10 30 -27 30 -9 0 20 -23 22 -41 29 -93
33 -59 6 -66 4 -88 -19z"/>
<path d="M4615 5190 c-19 -21 -14 -50 10 -50 8 0 15 4 15 8 0 5 29 9 65 10 36
0 65 -4 65 -9 0 -5 6 -9 14 -9 17 0 10 34 -9 50 -10 8 -19 8 -35 0 -16 -9 -28
-8 -52 4 -40 21 -51 20 -73 -4z"/>
<path d="M4050 4859 c-47 -3 -93 -9 -102 -13 -20 -9 -24 -41 -8 -51 6 -4 17
-22 25 -41 8 -19 20 -34 28 -34 8 0 18 -11 21 -25 7 -27 70 -65 108 -65 13 0
51 14 86 30 45 22 62 36 62 50 0 11 -5 20 -12 20 -6 0 -9 3 -5 6 3 4 0 19 -9
35 -13 25 -13 29 0 29 8 0 22 -7 31 -16 19 -19 41 -5 32 20 -16 42 -119 64
-257 55z m139 -100 c29 -27 23 -32 -20 -18 -19 6 -40 13 -47 15 -7 2 -10 8 -7
14 10 17 50 11 74 -11z m-112 -61 c-3 -8 -6 -5 -6 6 -1 11 2 17 5 13 3 -3 4
-12 1 -19z"/>
<path d="M4162 3570 c0 -14 2 -19 5 -12 2 6 2 18 0 25 -3 6 -5 1 -5 -13z"/>
<path d="M3360 6163 c0 -9 7 -24 15 -33 25 -27 30 -104 11 -155 -10 -24 -14
-50 -10 -57 10 -17 64 -86 86 -112 17 -19 18 -19 27 6 29 78 22 128 -19 128
-13 0 -21 13 -29 44 -15 62 -14 88 8 139 11 25 17 48 14 51 -4 3 -28 6 -55 6
-38 0 -48 -3 -48 -17z"/>
<path d="M2720 5937 c0 -8 11 -19 24 -27 37 -19 60 -70 53 -119 -3 -22 -4 -41
-2 -41 4 0 55 109 55 116 0 2 -16 22 -36 44 -26 29 -44 40 -65 40 -18 0 -29
-5 -29 -13z"/>
<path d="M2040 5786 c0 -9 5 -16 10 -16 6 0 10 4 10 9 0 6 -4 13 -10 16 -5 3
-10 -1 -10 -9z"/>
<path d="M2080 5744 c0 -3 7 -12 15 -20 16 -17 18 -14 9 10 -6 15 -24 23 -24
10z"/>
<path d="M2134 5675 c-9 -23 10 -40 25 -22 9 11 8 17 -4 27 -12 10 -16 9 -21
-5z"/>
<path d="M2047 5457 c-11 -29 -9 -43 4 -30 6 6 9 19 7 29 -3 18 -4 18 -11 1z"/>
<path d="M3132 4238 c-7 -7 -12 -20 -12 -31 0 -13 6 -18 23 -15 16 2 22 10 22
27 0 28 -15 37 -33 19z"/>
<path d="M3237 4168 c-28 -10 -28 -12 -22 -62 13 -102 83 -164 170 -152 41 5
144 51 157 70 3 5 -1 23 -10 40 -14 28 -20 31 -51 27 -20 -2 -41 -10 -47 -18
-13 -19 -48 -13 -52 8 -4 20 78 41 103 26 10 -5 21 -5 26 0 14 14 -34 53 -78
64 -50 11 -161 10 -196 -3z"/>
<path d="M5835 3990 c-10 -62 -8 -130 4 -163 7 -19 9 -16 16 23 4 25 11 50 15
55 5 6 11 26 15 46 6 31 4 37 -13 41 -11 3 -22 16 -24 29 -3 15 -7 4 -13 -31z"/>
<path d="M5451 3814 c0 -11 3 -14 6 -6 3 7 2 16 -1 19 -3 4 -6 -2 -5 -13z"/>
<path d="M5476 3804 c-4 -14 -5 -28 -3 -31 3 -2 8 8 11 23 4 14 5 28 3 31 -3
2 -8 -8 -11 -23z"/>
<path d="M4412 3790 c0 -19 2 -27 5 -17 2 9 2 25 0 35 -3 9 -5 1 -5 -18z"/>
<path d="M5501 3784 c0 -11 3 -14 6 -6 3 7 2 16 -1 19 -3 4 -6 -2 -5 -13z"/>
<path d="M5547 3603 c-9 -38 -18 -92 -22 -121 -4 -29 -14 -59 -22 -67 -8 -9
-28 -66 -43 -128 -23 -90 -27 -123 -21 -162 l7 -50 32 63 c24 46 36 86 43 150
6 48 15 95 20 104 5 10 12 55 14 100 2 46 7 104 11 131 9 69 -2 57 -19 -20z"/>
<path d="M1238 3654 c-3 -3 5 -25 19 -50 l25 -44 33 42 c19 23 31 46 29 50 -6
9 -98 11 -106 2z"/>
<path d="M4795 3290 c3 -5 8 -10 11 -10 2 0 4 5 4 10 0 6 -5 10 -11 10 -5 0
-7 -4 -4 -10z"/>
<path d="M4790 3250 c0 -11 4 -20 9 -20 5 0 7 9 4 20 -3 11 -7 20 -9 20 -2 0
-4 -9 -4 -20z"/>
<path d="M4850 3124 c0 -5 7 -19 15 -30 8 -10 15 -14 15 -8 0 5 -7 19 -15 30
-8 10 -15 14 -15 8z"/>
<path d="M3696 3072 c-11 -18 -16 -79 -8 -106 l8 -29 18 28 c11 16 21 48 24
72 4 38 2 43 -16 43 -12 0 -23 -3 -26 -8z"/>
<path d="M3357 3034 c-4 -4 -4 -10 -2 -14 6 -10 45 0 45 11 0 10 -33 12 -43 3z"/>
<path d="M3331 2933 c7 -10 14 -20 16 -22 1 -1 7 0 13 4 14 9 -6 35 -27 35
-13 0 -13 -3 -2 -17z"/>
<path d="M4908 2713 c5 -21 7 -23 10 -9 2 10 0 22 -6 28 -6 6 -7 0 -4 -19z"/>
<path d="M4878 2633 c5 -21 7 -23 10 -9 2 10 0 22 -6 28 -6 6 -7 0 -4 -19z"/>
<path d="M4901 2624 c0 -11 3 -14 6 -6 3 7 2 16 -1 19 -3 4 -6 -2 -5 -13z"/>
<path d="M4862 2595 c0 -16 2 -22 5 -12 2 9 2 23 0 30 -3 6 -5 -1 -5 -18z"/>
<path d="M4880 2595 c0 -5 5 -17 10 -25 5 -8 10 -10 10 -5 0 6 -5 17 -10 25
-5 8 -10 11 -10 5z"/>
<path d="M4846 2550 c2 -19 2 -29 -2 -22 -11 23 -21 12 -17 -20 3 -29 2 -30
-7 -10 -5 12 -11 22 -12 22 -10 0 11 -192 25 -222 22 -51 30 -48 12 3 -18 50
-20 93 -5 69 7 -11 9 -2 5 30 -4 35 -3 41 5 25 8 -16 9 -12 6 20 -5 38 -4 39
11 20 l16 -20 -8 20 c-3 11 -9 36 -12 55 -3 27 -2 31 6 20 9 -13 11 -13 11 3
0 9 -6 17 -14 17 -8 0 -17 6 -19 13 -3 6 -4 -4 -1 -23z"/>
<path d="M4881 2510 c0 -8 4 -22 9 -30 12 -18 12 -2 0 25 -6 13 -9 15 -9 5z"/>
<path d="M4705 2350 c-4 -6 -10 -8 -15 -5 -14 9 -19 -21 -13 -82 7 -66 21
-103 33 -83 5 8 10 9 14 2 4 -6 13 -9 21 -5 8 3 15 0 15 -6 0 -24 28 3 40 39
14 43 6 115 -12 104 -8 -5 -9 -1 -4 12 4 10 4 16 1 12 -4 -3 -22 0 -40 8 -22
9 -36 10 -40 4z"/>
<path d="M489 2287 c-63 -18 -133 -61 -166 -102 -16 -19 -94 -155 -175 -302
l-148 -268 0 -807 0 -808 1015 0 1016 0 -41 73 c-22 39 -288 524 -592 1075
-304 552 -568 1021 -586 1042 -69 81 -219 126 -323 97z"/>
<path d="M4108 2255 c-2 -17 3 -46 11 -65 8 -23 11 -55 8 -93 -4 -48 -2 -59
11 -64 10 -4 20 -11 24 -17 13 -19 19 1 8 28 -5 15 -12 63 -14 108 -2 44 -8
83 -13 87 -6 3 -15 15 -20 26 -10 18 -12 17 -15 -10z"/>
<path d="M4830 2254 c0 -6 11 -37 25 -69 33 -73 27 -82 -8 -13 -24 51 -26 52
-32 26 -4 -17 -1 -35 11 -52 9 -15 14 -29 11 -33 -4 -3 -12 6 -18 21 -16 35
-29 33 -30 -6 -2 -31 -2 -31 -6 -5 -3 18 -8 25 -16 20 -7 -4 -21 -9 -32 -10
-45 -7 -48 -11 -43 -63 3 -28 8 -53 11 -56 20 -20 178 72 185 108 2 9 -10 45
-27 80 -17 35 -30 58 -31 52z"/>
<path d="M4870 2220 c6 -11 13 -20 16 -20 2 0 0 9 -6 20 -6 11 -13 20 -16 20
-2 0 0 -9 6 -20z"/>
<path d="M4910 2201 c0 -6 4 -13 10 -16 6 -3 7 1 4 9 -7 18 -14 21 -14 7z"/>
<path d="M4890 2185 c0 -5 5 -17 10 -25 5 -8 10 -10 10 -5 0 6 -5 17 -10 25
-5 8 -10 11 -10 5z"/>
<path d="M3891 2060 c-146 -21 -51 -66 124 -58 l70 3 -50 26 c-66 35 -80 38
-144 29z"/>
<path d="M2422 2023 c2 -12 14 -19 38 -21 l35 -3 -30 21 c-37 25 -47 25 -43 3z"/>
<path d="M2550 2015 l-25 -15 35 2 c19 2 34 7 33 13 -3 15 -16 15 -43 0z"/>
</g>
</svg>
