<?xml version="1.0" standalone="no"?>
<!DOCTYPE svg PUBLIC "-//W3C//DTD SVG 20010904//EN"
 "http://www.w3.org/TR/2001/REC-SVG-20010904/DTD/svg10.dtd">
<svg version="1.0" xmlns="http://www.w3.org/2000/svg"
 width="64.000000pt" height="64.000000pt" viewBox="0 0 64.000000 64.000000"
 preserveAspectRatio="xMidYMid meet">

<g transform="translate(0.000000,64.000000) scale(0.100000,-0.100000)"
fill="#000000" stroke="none">
<path d="M280 554 c-72 -25 -87 -56 -72 -155 6 -39 18 -79 26 -88 34 -38 12
-77 -54 -96 -24 -7 -24 -7 -9 11 24 27 9 132 -22 156 -29 24 -81 23 -104 -2
-26 -29 -39 -129 -19 -151 12 -14 12 -18 -6 -34 -14 -13 -20 -31 -20 -62 0
-23 5 -43 10 -43 6 0 10 20 10 45 0 25 3 46 8 46 4 1 32 3 62 4 l55 1 -3 -48
c-3 -29 0 -48 6 -48 6 0 12 21 14 47 3 44 6 49 38 65 35 17 35 17 57 -9 18
-23 24 -25 37 -14 14 12 16 8 16 -38 0 -28 5 -51 10 -51 6 0 10 23 10 51 0 46
2 50 16 38 13 -11 19 -9 37 14 22 26 22 26 57 9 32 -16 35 -21 38 -65 2 -26 8
-47 13 -47 7 0 10 21 7 55 -2 34 1 54 7 52 6 -2 11 -27 13 -55 4 -67 22 -68
22 -2 0 55 11 67 55 56 22 -6 25 -11 25 -56 0 -28 5 -50 11 -50 6 0 9 20 7 52
-3 52 -11 63 -62 81 -5 2 -2 14 7 28 9 13 19 52 23 87 l7 62 -66 0 c-57 0 -68
-3 -81 -22 -18 -26 -13 -77 13 -121 13 -24 14 -29 2 -37 -15 -9 -55 2 -78 22
-18 14 -16 48 2 69 19 20 37 129 33 195 l-3 49 -70 2 c-38 1 -77 0 -85 -3z
m137 -104 c-6 -73 -26 -150 -40 -150 -1 0 -16 -4 -33 -9 -40 -11 -88 11 -103
47 -17 46 -24 138 -11 161 16 31 44 40 124 40 l69 1 -6 -90z m169 -117 c-8
-67 -19 -83 -56 -83 -34 0 -46 14 -53 65 -9 59 5 73 77 74 l39 1 -7 -57z
m-444 30 c10 -9 18 -25 18 -35 0 -18 -2 -18 -22 -4 -29 21 -62 20 -79 0 -12
-15 -11 -16 9 -10 50 16 98 -18 71 -50 -15 -18 -63 -18 -78 -1 -6 8 -14 28
-17 46 -12 58 53 95 98 54z m228 -95 c0 -4 -11 -15 -25 -24 -23 -15 -27 -15
-50 0 -37 24 -31 31 25 31 28 0 50 -3 50 -7z m-314 -35 c-7 -7 -26 7 -26 19 0
6 6 6 15 -2 9 -7 13 -15 11 -17z m109 8 c-3 -6 -11 -11 -17 -11 -6 0 -6 6 2
15 14 17 26 13 15 -4z m120 -14 c10 -8 15 -19 11 -26 -9 -14 -22 -7 -36 20
-12 22 -2 25 25 6z m95 -6 c-14 -27 -27 -34 -36 -20 -4 7 1 18 11 26 27 19 37
16 25 -6z m-260 -6 c0 -8 -9 -15 -20 -15 -11 0 -20 7 -20 15 0 8 9 15 20 15
11 0 20 -7 20 -15z m428 3 c-3 -7 -11 -13 -18 -13 -7 0 -15 6 -17 13 -3 7 4
12 17 12 13 0 20 -5 18 -12z"/>
<path d="M253 463 c-15 -6 -17 -43 -3 -43 6 0 10 7 10 15 0 18 70 21 101 4 11
-6 25 -8 32 -6 7 2 -2 11 -20 20 -30 16 -93 21 -120 10z"/>
<path d="M500 340 c20 -13 73 -13 65 0 -3 6 -23 10 -43 10 -28 0 -33 -3 -22
-10z"/>
<path d="M580 125 c0 -19 5 -35 10 -35 6 0 10 16 10 35 0 19 -4 35 -10 35 -5
0 -10 -16 -10 -35z"/>
<path d="M40 120 c0 -16 5 -30 10 -30 6 0 10 14 10 30 0 17 -4 30 -10 30 -5 0
-10 -13 -10 -30z"/>
<path d="M200 115 c0 -14 5 -25 10 -25 6 0 10 11 10 25 0 14 -4 25 -10 25 -5
0 -10 -11 -10 -25z"/>
<path d="M420 115 c0 -14 5 -25 10 -25 6 0 10 11 10 25 0 14 -4 25 -10 25 -5
0 -10 -11 -10 -25z"/>
</g>
</svg>
