<?xml version="1.0" standalone="no"?>
<!DOCTYPE svg PUBLIC "-//W3C//DTD SVG 20010904//EN"
 "http://www.w3.org/TR/2001/REC-SVG-20010904/DTD/svg10.dtd">
<svg version="1.0" xmlns="http://www.w3.org/2000/svg"
 width="24.000000pt" height="24.000000pt" viewBox="0 0 24.000000 24.000000"
 preserveAspectRatio="xMidYMid meet">

<g transform="translate(0.000000,24.000000) scale(0.100000,-0.100000)"
fill="#000000" stroke="none">
<path d="M47 222 c-19 -21 -22 -58 -6 -67 7 -5 3 -16 -12 -31 -14 -15 -22 -37
-23 -61 l-1 -38 60 -3 c33 -2 64 -7 69 -13 18 -17 56 -9 81 16 30 30 31 54 4
89 -16 20 -29 26 -61 26 -34 0 -39 3 -33 18 26 60 -36 110 -78 64z m70 -18 c9
-24 -10 -49 -38 -49 -24 0 -36 23 -25 51 7 19 55 18 63 -2z m-11 -90 c-3 -9
-6 -29 -6 -45 0 -27 -2 -29 -40 -29 -37 0 -40 2 -40 27 0 36 27 63 63 63 22 0
28 -4 23 -16z m92 0 c24 -17 30 -62 10 -82 -29 -29 -98 -1 -98 40 0 21 34 58
53 58 7 0 23 -7 35 -16z"/>
<path d="M161 88 c-1 -22 3 -28 21 -28 19 0 20 2 6 12 -9 7 -18 20 -21 28 -3
8 -6 3 -6 -12z"/>
</g>
</svg>
