<?xml version="1.0" standalone="no"?>
<!DOCTYPE svg PUBLIC "-//W3C//DTD SVG 20010904//EN"
 "http://www.w3.org/TR/2001/REC-SVG-20010904/DTD/svg10.dtd">
<svg version="1.0" xmlns="http://www.w3.org/2000/svg"
 width="1042.000000pt" height="1042.000000pt" viewBox="0 0 1042.000000 1042.000000"
 preserveAspectRatio="xMidYMid meet">

<g transform="translate(0.000000,1042.000000) scale(0.100000,-0.100000)"
fill="#000000" stroke="none">
<path d="M1069 10181 l-29 -29 0 -4632 0 -4632 29 -29 29 -29 2232 0 2232 0
29 29 c38 39 40 97 5 138 l-24 28 -714 6 c-392 4 -1347 7 -2121 8 l-1409 1
-29 29 -29 29 0 4406 0 4406 29 32 29 33 3262 0 3262 0 29 -33 29 -32 0 -2763
c0 -1962 3 -2774 11 -2802 20 -75 79 -110 140 -85 64 27 59 -212 59 2980 l0
2912 -29 29 -29 29 -3482 0 -3482 0 -29 -29z"/>
<path d="M4414 8310 c-338 -43 -631 -184 -867 -416 -209 -206 -343 -449 -409
-745 -30 -137 -33 -423 -5 -562 120 -596 587 -1053 1187 -1164 128 -23 380
-23 510 1 207 37 435 133 603 253 93 68 232 202 301 291 149 194 251 440 287
690 15 109 6 391 -16 492 -114 519 -473 925 -964 1091 -181 61 -452 91 -627
69z m372 -245 c181 -32 321 -88 473 -189 636 -423 727 -1339 186 -1881 -235
-236 -526 -355 -870 -355 -344 0 -634 118 -870 355 -291 291 -413 682 -339
1091 41 232 168 470 339 639 176 173 412 296 654 339 105 19 318 19 427 1z"/>
<path d="M4458 7641 c-31 -10 -72 -28 -91 -40 -54 -33 -126 -116 -155 -179
-24 -51 -27 -69 -27 -167 0 -104 2 -114 32 -176 39 -80 111 -150 191 -187 50
-24 69 -27 162 -27 94 0 111 3 164 28 164 76 252 214 244 382 -13 258 -276
444 -520 366z m188 -230 c113 -51 136 -192 45 -274 -72 -65 -159 -62 -227 7
-73 73 -73 162 1 233 59 56 111 66 181 34z"/>
<path d="M3904 6850 c-12 -4 -31 -21 -43 -36 -20 -26 -21 -35 -21 -360 l0
-334 733 2 732 3 0 333 0 334 -37 34 c-33 29 -45 34 -88 34 -28 0 -65 -7 -81
-16 -51 -26 -59 -61 -59 -269 l0 -185 -470 0 -470 0 0 193 c0 174 -2 195 -20
225 -11 18 -32 37 -46 42 -31 12 -101 12 -130 0z"/>
<path d="M2354 4596 c-24 -20 -28 -32 -32 -88 -4 -61 -2 -67 26 -99 l30 -34
1999 -3 c1411 -2 2009 0 2035 8 48 14 68 51 68 125 0 49 -4 60 -29 86 l-29 29
-2021 0 -2020 0 -27 -24z"/>
<path d="M2374 4006 c-41 -18 -58 -61 -52 -133 4 -46 10 -61 32 -80 l27 -23
1999 0 1999 0 27 23 c22 19 28 34 32 80 6 72 -10 111 -53 131 -30 14 -233 16
-2007 16 -1627 -1 -1978 -3 -2004 -14z"/>
<path d="M7390 4014 c-327 -23 -665 -136 -933 -313 -100 -66 -258 -193 -306
-245 l-24 -26 -1864 0 c-2045 0 -1906 4 -1933 -60 -19 -45 -8 -136 19 -163
l22 -22 1769 -3 c974 -1 1770 -4 1770 -6 0 -3 -23 -42 -52 -88 -28 -46 -69
-120 -91 -165 l-39 -83 -1664 0 c-1268 0 -1669 -3 -1689 -12 -35 -16 -55 -57
-55 -113 0 -56 20 -97 55 -113 20 -9 411 -12 1646 -12 1588 0 1620 0 1614 -19
-3 -10 -14 -63 -25 -118 -150 -760 178 -1539 832 -1976 367 -245 813 -359
1239 -317 920 91 1635 793 1740 1710 14 129 7 423 -15 538 -78 421 -262 771
-556 1061 -285 280 -660 467 -1055 525 -107 16 -315 26 -405 20z m420 -258
c501 -91 930 -402 1179 -851 139 -252 204 -511 205 -815 0 -240 -33 -427 -111
-625 -211 -537 -670 -925 -1239 -1047 -96 -20 -136 -23 -334 -23 -198 0 -238
3 -334 24 -432 92 -805 337 -1058 692 -80 111 -185 317 -227 446 -60 182 -76
295 -75 528 0 188 3 223 27 336 91 428 324 786 682 1044 110 79 336 193 465
234 91 28 268 66 355 75 84 9 383 -3 465 -18z"/>
<path d="M7355 2619 c-309 -42 -598 -199 -893 -484 l-116 -112 75 -48 c438
-285 725 -428 935 -465 108 -19 279 -9 389 24 110 33 259 103 413 195 148 88
494 322 499 338 2 6 -46 55 -107 107 -341 291 -670 438 -1005 451 -66 2 -151
0 -190 -6z m357 -218 c153 -40 353 -154 488 -278 l64 -60 -165 -110 c-292
-193 -432 -253 -593 -253 -124 0 -186 18 -351 99 -140 70 -395 225 -395 240 0
14 133 135 212 195 236 176 488 233 740 167z"/>
<path d="M7411 2359 c-126 -25 -222 -140 -224 -268 -2 -259 297 -389 479 -207
58 58 84 122 84 200 -2 133 -85 237 -217 271 -63 16 -60 16 -122 4z"/>
</g>
</svg>
