<?xml version="1.0" standalone="no"?>
<!DOCTYPE svg PUBLIC "-//W3C//DTD SVG 20010904//EN"
 "http://www.w3.org/TR/2001/REC-SVG-20010904/DTD/svg10.dtd">
<svg version="1.0" xmlns="http://www.w3.org/2000/svg"
 width="32.000000pt" height="32.000000pt" viewBox="0 0 32.000000 32.000000"
 preserveAspectRatio="xMidYMid meet">

<g transform="translate(0.000000,32.000000) scale(0.100000,-0.100000)"
fill="#000000" stroke="none">
<path d="M0 160 l0 -160 77 0 c57 0 74 3 66 11 -15 15 -5 39 17 39 22 0 32
-24 17 -39 -8 -8 9 -11 66 -11 l77 0 0 160 0 160 -71 0 c-62 0 -70 -2 -59 -15
8 -10 10 -36 6 -87 -12 -132 -16 -148 -36 -148 -21 0 -25 16 -35 143 -5 54 -3
82 5 92 11 13 3 15 -59 15 l-71 0 0 -160z"/>
</g>
</svg>
